<svg width="336" height="109" viewBox="0 0 336 109" fill="none" xmlns="http://www.w3.org/2000/svg"><rect width="336" height="109" rx="22" fill="#93B4E1"/><path d="M19.03 24.812c.657.215 1.179.578 1.564 1.088.385.499.578 1.122.578 1.87 0 1.031-.397 1.83-1.19 2.397-.793.555-1.95.833-3.468.833h-5.916V19.1h5.576c1.405 0 2.488.278 3.247.833.76.544 1.139 1.298 1.139 2.261 0 .59-.136 1.11-.408 1.564a2.793 2.793 0 01-1.122 1.054zm-6.222-3.978v3.281h3.128c.77 0 1.36-.136 1.768-.408.42-.283.629-.691.629-1.224 0-.544-.21-.952-.629-1.224-.408-.283-.997-.425-1.768-.425h-3.128zm3.57 8.432c1.711 0 2.567-.572 2.567-1.717s-.856-1.717-2.567-1.717h-3.57v3.434h3.57zM28.75 31.17c-1.213 0-2.307-.26-3.281-.782a5.935 5.935 0 01-2.295-2.193c-.556-.94-.833-1.989-.833-3.145s.277-2.199.833-3.128a5.777 5.777 0 012.295-2.193c.974-.533 2.068-.799 3.28-.799 1.213 0 2.307.266 3.282.799a5.812 5.812 0 012.295 2.176c.555.93.833 1.978.833 3.145s-.278 2.216-.833 3.145a5.934 5.934 0 01-2.295 2.193c-.975.521-2.069.782-3.281.782zm0-1.938c.793 0 1.507-.176 2.142-.527a3.95 3.95 0 001.496-1.496 4.333 4.333 0 00.544-2.159c0-.793-.182-1.507-.544-2.142a3.798 3.798 0 00-1.496-1.496c-.635-.363-1.349-.544-2.142-.544-.794 0-1.508.181-2.142.544a3.799 3.799 0 00-1.496 1.496c-.363.635-.544 1.349-.544 2.142 0 .793.181 1.513.544 2.159a3.952 3.952 0 001.496 1.496c.634.351 1.348.527 2.142.527zm13.528 1.938c-1.643 0-2.924-.459-3.842-1.377-.918-.93-1.377-2.255-1.377-3.978V19.1h2.21v6.63c0 2.335 1.009 3.502 3.026 3.502 2.006 0 3.01-1.167 3.01-3.502V19.1h2.175v6.715c0 1.723-.459 3.049-1.377 3.978-.907.918-2.181 1.377-3.825 1.377zm13.465 0c-1.201 0-2.29-.26-3.264-.782a5.968 5.968 0 01-2.278-2.193c-.544-.93-.816-1.978-.816-3.145s.278-2.216.833-3.145a5.844 5.844 0 012.278-2.176c.975-.533 2.063-.799 3.264-.799.975 0 1.865.17 2.67.51.804.34 1.484.833 2.04 1.479l-1.429 1.343c-.861-.93-1.92-1.394-3.179-1.394-.816 0-1.547.181-2.193.544a3.8 3.8 0 00-1.513 1.479c-.362.635-.544 1.354-.544 2.159 0 .805.182 1.524.544 2.159a3.917 3.917 0 001.513 1.496c.646.351 1.377.527 2.193.527 1.258 0 2.318-.47 3.18-1.411l1.427 1.36a5.415 5.415 0 01-2.057 1.479c-.804.34-1.694.51-2.669.51zM72.821 19.1V31h-2.21v-5.1h-6.154V31h-2.21V19.1h2.21v4.913h6.154V19.1h2.21zm11.773 10.047V31H75.67V19.1h8.686v1.853H77.88v3.094h5.746v1.819H77.88v3.281h6.715zM86.718 19.1h2.21v10.03h6.222V31h-8.432V19.1zm9.837 0h2.21v10.03h6.222V31h-8.432V19.1zm18.762 10.047V31h-8.925V19.1h8.687v1.853h-6.477v3.094h5.746v1.819h-5.746v3.281h6.715zm10.2-4.233h2.091v4.743a6.65 6.65 0 01-2.142 1.122 8.22 8.22 0 01-2.516.391c-1.213 0-2.307-.26-3.281-.782a5.93 5.93 0 01-2.295-2.193c-.556-.93-.833-1.978-.833-3.145s.277-2.216.833-3.145a5.808 5.808 0 012.295-2.176c.986-.533 2.091-.799 3.315-.799.997 0 1.904.164 2.72.493.816.329 1.501.81 2.057 1.445l-1.394 1.36c-.907-.907-2.001-1.36-3.281-1.36-.839 0-1.587.176-2.244.527a3.916 3.916 0 00-1.53 1.479c-.363.635-.544 1.36-.544 2.176 0 .793.181 1.507.544 2.142a4.04 4.04 0 001.53 1.496c.657.363 1.399.544 2.227.544.929 0 1.745-.204 2.448-.612v-3.706zm15.239-5.814V31h-2.21v-5.1h-6.154V31h-2.21V19.1h2.21v4.913h6.154V19.1h2.21zm11.774 10.047V31h-8.925V19.1h8.687v1.853h-6.477v3.094h5.746v1.819h-5.746v3.281h6.715zM165.585 31l-.017-7.888-3.91 6.528h-.986l-3.91-6.426V31h-2.108V19.1h1.819l4.726 7.888 4.641-7.888h1.819l.017 11.9h-2.091zm20.254 0l-.017-7.888-3.91 6.528h-.986l-3.91-6.426V31h-2.108V19.1h1.819l4.726 7.888 4.641-7.888h1.819l.017 11.9h-2.091zm13.296-4.488c0 .147-.012.357-.034.629h-7.123c.124.669.447 1.201.969 1.598.532.385 1.19.578 1.972.578.997 0 1.819-.329 2.465-.986l1.139 1.309a3.84 3.84 0 01-1.547 1.105c-.624.25-1.326.374-2.108.374-.998 0-1.876-.198-2.635-.595a4.354 4.354 0 01-1.768-1.649c-.408-.714-.612-1.519-.612-2.414 0-.884.198-1.677.595-2.38a4.324 4.324 0 011.683-1.666c.714-.397 1.518-.595 2.414-.595.884 0 1.671.198 2.363.595a4.022 4.022 0 011.632 1.649c.396.703.595 1.519.595 2.448zm-4.59-2.992c-.68 0-1.258.204-1.734.612-.465.397-.748.93-.85 1.598h5.151c-.091-.657-.369-1.19-.833-1.598-.465-.408-1.043-.612-1.734-.612zm6.291-5.134h2.125V31h-2.125V18.386zm4.574 3.536h2.125V31h-2.125v-9.078zm1.071-1.496c-.385 0-.708-.119-.969-.357a1.22 1.22 0 01-.391-.918c0-.363.13-.663.391-.901.261-.25.584-.374.969-.374s.708.119.969.357c.261.227.391.516.391.867 0 .374-.13.691-.391.952-.249.25-.572.374-.969.374zm8.654 1.394c1.145 0 2.063.334 2.754 1.003.691.669 1.037 1.66 1.037 2.975V31h-2.125v-4.93c0-.793-.187-1.388-.561-1.785-.374-.408-.907-.612-1.598-.612-.782 0-1.4.238-1.853.714-.453.465-.68 1.139-.68 2.023V31h-2.125v-9.078h2.023v1.173c.351-.42.793-.737 1.326-.952.533-.215 1.133-.323 1.802-.323zm9.615 0c1.337 0 2.357.323 3.06.969.714.635 1.071 1.598 1.071 2.89V31h-2.006v-1.105c-.261.397-.635.703-1.122.918-.476.204-1.054.306-1.734.306-.68 0-1.275-.113-1.785-.34-.51-.238-.907-.561-1.19-.969a2.537 2.537 0 01-.408-1.411c0-.816.3-1.468.901-1.955.612-.499 1.569-.748 2.873-.748h2.346v-.136c0-.635-.193-1.122-.578-1.462-.374-.34-.935-.51-1.683-.51-.51 0-1.015.08-1.513.238-.488.159-.901.38-1.241.663l-.833-1.547c.476-.363 1.048-.64 1.717-.833a7.635 7.635 0 012.125-.289zm-.289 7.752c.532 0 1.003-.119 1.411-.357.419-.25.714-.6.884-1.054v-1.054h-2.193c-1.224 0-1.836.402-1.836 1.207 0 .385.153.691.459.918.306.227.731.34 1.275.34zM48.6 73.5l2.625 4.65h-1.2l-2.7-4.675 4.575-4.7h1.275L48.6 73.5zm4.175 0l2.625 4.65h-1.2l-2.7-4.675 4.575-4.7h1.275L52.775 73.5zm16.323-9.85l-1.5 7.475h9.3l-.225 1.15h-9.3L65.823 80h-1.275l3.5-17.5h11.7l-.25 1.15h-10.4zm10.907 10.1c-.033.367-.05.642-.05.825 0 1.417.409 2.508 1.225 3.275.817.75 2.017 1.125 3.6 1.125.917 0 1.759-.15 2.525-.45.784-.317 1.434-.75 1.95-1.3l.576.875c-.584.633-1.334 1.125-2.25 1.475a7.93 7.93 0 01-2.9.525c-1.85 0-3.309-.483-4.376-1.45-1.05-.967-1.575-2.308-1.575-4.025 0-1.467.309-2.792.925-3.975.617-1.183 1.467-2.108 2.55-2.775 1.084-.683 2.3-1.025 3.65-1.025 1.7 0 3.05.483 4.05 1.45s1.5 2.3 1.5 4c0 .4-.05.883-.15 1.45h-11.25zm5.826-5.825c-1.417 0-2.642.442-3.675 1.325-1.017.883-1.684 2.058-2 3.525h10.05c.016-.15.025-.367.025-.65 0-1.317-.4-2.342-1.2-3.075-.8-.75-1.867-1.125-3.2-1.125zm3.15-6.05h1.875l-4.25 2.95H85.18l3.8-2.95zm22.966 4.975c1.467 0 2.592.367 3.375 1.1.783.717 1.175 1.725 1.175 3.025 0 .45-.05.942-.15 1.475L114.822 80h-1.25l1.525-7.55c.083-.383.125-.808.125-1.275 0-1.017-.3-1.8-.9-2.35-.6-.567-1.475-.85-2.625-.85-1.433 0-2.633.4-3.6 1.2-.95.783-1.575 1.925-1.875 3.425l-1.5 7.4h-1.25l1.525-7.55c.083-.383.125-.808.125-1.275 0-1.017-.3-1.8-.9-2.35-.6-.567-1.475-.85-2.625-.85-1.45 0-2.658.425-3.625 1.275-.967.833-1.608 2.05-1.925 3.65L94.622 80h-1.25l2.6-13.05h1.225l-.5 2.45c.617-.867 1.367-1.508 2.25-1.925.883-.417 1.875-.625 2.975-.625 1.2 0 2.167.258 2.9.775.733.5 1.217 1.217 1.45 2.15.65-.967 1.458-1.692 2.425-2.175.967-.5 2.05-.75 3.25-.75zm10.136.1h1.25l-2.6 13.05h-1.25l2.6-13.05zm1.4-3.175a.92.92 0 01-.675-.275.89.89 0 01-.275-.65c0-.3.1-.558.3-.775.217-.217.484-.325.8-.325.267 0 .492.092.675.275.2.183.3.4.3.65 0 .317-.108.583-.325.8-.216.2-.483.3-.8.3zm10.744 3.075c1.483 0 2.625.375 3.425 1.125.8.733 1.2 1.75 1.2 3.05 0 .45-.05.925-.15 1.425l-1.5 7.55h-1.25l1.5-7.55c.083-.383.125-.8.125-1.25 0-1.033-.317-1.825-.95-2.375-.617-.567-1.525-.85-2.725-.85-1.5 0-2.75.425-3.75 1.275-1 .833-1.659 2.05-1.975 3.65l-1.425 7.1h-1.25l2.6-13.05h1.225l-.5 2.475c.616-.867 1.383-1.508 2.3-1.925.933-.433 1.966-.65 3.1-.65zm10.196.1h1.25l-2.6 13.05h-1.25l2.6-13.05zm1.4-3.175a.917.917 0 01-.675-.275.89.89 0 01-.275-.65c0-.3.1-.558.3-.775.217-.217.483-.325.8-.325.267 0 .492.092.675.275.2.183.3.4.3.65 0 .317-.108.583-.325.8-.217.2-.483.3-.8.3zm5.594 16.325a9.496 9.496 0 01-2.925-.45c-.917-.317-1.634-.717-2.15-1.2l.675-.975c.483.467 1.125.842 1.925 1.125.816.267 1.675.4 2.575.4 1.35 0 2.391-.233 3.125-.7.75-.483 1.125-1.15 1.125-2 0-.483-.15-.867-.45-1.15a2.756 2.756 0 00-1.1-.625c-.434-.15-1.034-.308-1.8-.475-.9-.183-1.634-.375-2.2-.575a3.49 3.49 0 01-1.4-.925c-.384-.433-.575-1.017-.575-1.75 0-1.2.491-2.158 1.475-2.875 1-.717 2.325-1.075 3.975-1.075.833 0 1.641.117 2.425.35.783.217 1.408.525 1.875.925l-.575.975c-.484-.383-1.067-.667-1.75-.85-.667-.2-1.359-.3-2.075-.3-1.267 0-2.275.25-3.025.75-.734.5-1.1 1.158-1.1 1.975 0 .5.15.9.45 1.2.3.283.675.5 1.125.65.466.15 1.083.308 1.85.475.9.183 1.616.375 2.15.575a3.28 3.28 0 011.4.9c.383.417.575.983.575 1.7 0 1.217-.509 2.175-1.525 2.875-1.017.7-2.375 1.05-4.075 1.05zm26.438-13.25c1.467 0 2.592.367 3.375 1.1.783.717 1.175 1.725 1.175 3.025 0 .45-.05.942-.15 1.475L180.73 80h-1.25l1.525-7.55c.083-.383.125-.808.125-1.275 0-1.017-.3-1.8-.9-2.35-.6-.567-1.475-.85-2.625-.85-1.433 0-2.633.4-3.6 1.2-.95.783-1.575 1.925-1.875 3.425l-1.5 7.4h-1.25l1.525-7.55c.083-.383.125-.808.125-1.275 0-1.017-.3-1.8-.9-2.35-.6-.567-1.475-.85-2.625-.85-1.45 0-2.658.425-3.625 1.275-.967.833-1.608 2.05-1.925 3.65L160.53 80h-1.25l2.6-13.05h1.225l-.5 2.45c.617-.867 1.367-1.508 2.25-1.925.883-.417 1.875-.625 2.975-.625 1.2 0 2.167.258 2.9.775.733.5 1.217 1.217 1.45 2.15.65-.967 1.458-1.692 2.425-2.175.967-.5 2.05-.75 3.25-.75zm21.786.1l-2.6 13.05h-1.2l.5-2.55a6.596 6.596 0 01-2.375 1.95c-.934.467-1.975.7-3.125.7-1.7 0-3.067-.483-4.1-1.45-1.017-.983-1.525-2.308-1.525-3.975 0-1.483.316-2.817.95-4 .633-1.2 1.508-2.133 2.625-2.8 1.133-.683 2.4-1.025 3.8-1.025 1.35 0 2.466.292 3.35.875.883.583 1.483 1.408 1.8 2.475l.65-3.25h1.25zm-8.55 12.025c1.166 0 2.208-.283 3.125-.85a5.99 5.99 0 002.2-2.35c.533-1.017.8-2.158.8-3.425 0-1.383-.409-2.458-1.225-3.225-.8-.767-1.934-1.15-3.4-1.15-1.167 0-2.217.292-3.15.875-.917.567-1.642 1.358-2.175 2.375-.534 1-.8 2.125-.8 3.375 0 1.383.4 2.458 1.2 3.225.816.767 1.958 1.15 3.425 1.15zm21.166-5.5l-4.575 4.675h-1.25l4.55-4.75-2.6-4.625h1.175l2.7 4.7zm4.175 0l-4.575 4.675h-1.25l4.55-4.75-2.6-4.625h1.175l2.7 4.7z" fill="#292626"/></svg>