<svg width="336" height="115" viewBox="0 0 336 115" fill="none" xmlns="http://www.w3.org/2000/svg">
<rect width="336" height="115" rx="22" fill="#B9D7EA"/>
<path d="M17.106 27.17C15.9047 27.17 14.8167 26.9093 13.842 26.388C12.8787 25.8553 12.1193 25.1243 11.564 24.195C11.02 23.2657 10.748 22.2173 10.748 21.05C10.748 19.8827 11.0257 18.8343 11.581 17.905C12.1363 16.9757 12.8957 16.2503 13.859 15.729C14.8337 15.1963 15.9217 14.93 17.123 14.93C18.0977 14.93 18.9873 15.1 19.792 15.44C20.5967 15.78 21.2767 16.273 21.832 16.919L20.404 18.262C19.5427 17.3327 18.483 16.868 17.225 16.868C16.409 16.868 15.678 17.0493 15.032 17.412C14.386 17.7633 13.8817 18.2563 13.519 18.891C13.1563 19.5257 12.975 20.2453 12.975 21.05C12.975 21.8547 13.1563 22.5743 13.519 23.209C13.8817 23.8437 14.386 24.3423 15.032 24.705C15.678 25.0563 16.409 25.232 17.225 25.232C18.483 25.232 19.5427 24.7617 20.404 23.821L21.832 25.181C21.2767 25.827 20.591 26.32 19.775 26.66C18.9703 27 18.0807 27.17 17.106 27.17ZM34.1836 15.1V27H31.9736V21.9H25.8196V27H23.6096V15.1H25.8196V20.013H31.9736V15.1H34.1836ZM45.9573 25.147V27H37.0323V15.1H45.7193V16.953H39.2423V20.047H44.9883V21.866H39.2423V25.147H45.9573ZM51.7699 27.17C50.8519 27.17 49.9623 27.0397 49.1009 26.779C48.2509 26.5183 47.5766 26.1727 47.0779 25.742L47.8429 24.025C48.3303 24.4103 48.9253 24.7277 49.6279 24.977C50.3419 25.215 51.0559 25.334 51.7699 25.334C52.6539 25.334 53.3113 25.1923 53.7419 24.909C54.1839 24.6257 54.4049 24.2517 54.4049 23.787C54.4049 23.447 54.2803 23.1693 54.0309 22.954C53.7929 22.7273 53.4869 22.5517 53.1129 22.427C52.7389 22.3023 52.2289 22.1607 51.5829 22.002C50.6763 21.7867 49.9396 21.5713 49.3729 21.356C48.8176 21.1407 48.3359 20.8063 47.9279 20.353C47.5313 19.8883 47.3329 19.265 47.3329 18.483C47.3329 17.8257 47.5086 17.2307 47.8599 16.698C48.2226 16.154 48.7609 15.7233 49.4749 15.406C50.2003 15.0887 51.0843 14.93 52.1269 14.93C52.8523 14.93 53.5663 15.0207 54.2689 15.202C54.9716 15.3833 55.5779 15.644 56.0879 15.984L55.3909 17.701C54.8696 17.395 54.3256 17.1627 53.7589 17.004C53.1923 16.8453 52.6426 16.766 52.1099 16.766C51.2373 16.766 50.5856 16.9133 50.1549 17.208C49.7356 17.5027 49.5259 17.8937 49.5259 18.381C49.5259 18.721 49.6449 18.9987 49.8829 19.214C50.1323 19.4293 50.4439 19.5993 50.8179 19.724C51.1919 19.8487 51.7019 19.9903 52.3479 20.149C53.2319 20.353 53.9573 20.5683 54.5239 20.795C55.0906 21.0103 55.5723 21.3447 55.9689 21.798C56.3769 22.2513 56.5809 22.8633 56.5809 23.634C56.5809 24.2913 56.3996 24.8863 56.0369 25.419C55.6856 25.9517 55.1473 26.3767 54.4219 26.694C53.6966 27.0113 52.8126 27.17 51.7699 27.17ZM69.0063 15.1V27H67.1873L60.6253 18.942V27H58.4323V15.1H60.2513L66.8133 23.158V15.1H69.0063ZM80.78 25.147V27H71.855V15.1H80.542V16.953H74.065V20.047H79.811V21.866H74.065V25.147H80.78ZM90.6217 24.246H84.6717L83.4987 27H81.2207L86.5757 15.1H88.7517L94.1237 27H91.8117L90.6217 24.246ZM89.8907 22.512L87.6467 17.31L85.4197 22.512H89.8907ZM100.165 27.17C98.5217 27.17 97.2411 26.711 96.3231 25.793C95.4051 24.8637 94.9461 23.5377 94.9461 21.815V15.1H97.1561V21.73C97.1561 24.0647 98.1647 25.232 100.182 25.232C102.188 25.232 103.191 24.0647 103.191 21.73V15.1H105.367V21.815C105.367 23.5377 104.908 24.8637 103.99 25.793C103.083 26.711 101.808 27.17 100.165 27.17ZM112.48 15.1H114.69V25.13H120.912V27H112.48V15.1ZM122.113 17.922H124.238V27H122.113V17.922ZM123.184 16.426C122.799 16.426 122.476 16.307 122.215 16.069C121.954 15.8197 121.824 15.5137 121.824 15.151C121.824 14.7883 121.954 14.488 122.215 14.25C122.476 14.0007 122.799 13.876 123.184 13.876C123.569 13.876 123.892 13.995 124.153 14.233C124.414 14.4597 124.544 14.7487 124.544 15.1C124.544 15.474 124.414 15.7913 124.153 16.052C123.904 16.3013 123.581 16.426 123.184 16.426ZM126.687 14.386H128.812V27H126.687V14.386ZM131.261 17.922H133.386V27H131.261V17.922ZM132.332 16.426C131.947 16.426 131.624 16.307 131.363 16.069C131.103 15.8197 130.972 15.5137 130.972 15.151C130.972 14.7883 131.103 14.488 131.363 14.25C131.624 14.0007 131.947 13.876 132.332 13.876C132.718 13.876 133.041 13.995 133.301 14.233C133.562 14.4597 133.692 14.7487 133.692 15.1C133.692 15.474 133.562 15.7913 133.301 16.052C133.052 16.3013 132.729 16.426 132.332 16.426ZM139.303 17.82C140.641 17.82 141.661 18.143 142.363 18.789C143.077 19.4237 143.434 20.387 143.434 21.679V27H141.428V25.895C141.168 26.2917 140.794 26.5977 140.306 26.813C139.83 27.017 139.252 27.119 138.572 27.119C137.892 27.119 137.297 27.0057 136.787 26.779C136.277 26.541 135.881 26.218 135.597 25.81C135.325 25.3907 135.189 24.9203 135.189 24.399C135.189 23.583 135.49 22.9313 136.09 22.444C136.702 21.9453 137.66 21.696 138.963 21.696H141.309V21.56C141.309 20.9253 141.117 20.438 140.731 20.098C140.357 19.758 139.796 19.588 139.048 19.588C138.538 19.588 138.034 19.6673 137.535 19.826C137.048 19.9847 136.634 20.2057 136.294 20.489L135.461 18.942C135.937 18.5793 136.51 18.3017 137.178 18.109C137.847 17.9163 138.555 17.82 139.303 17.82ZM139.014 25.572C139.547 25.572 140.017 25.453 140.425 25.215C140.845 24.9657 141.139 24.6143 141.309 24.161V23.107H139.116C137.892 23.107 137.28 23.5093 137.28 24.314C137.28 24.6993 137.433 25.0053 137.739 25.232C138.045 25.4587 138.47 25.572 139.014 25.572ZM150.973 17.82C152.117 17.82 153.035 18.1543 153.727 18.823C154.418 19.4917 154.764 20.4833 154.764 21.798V27H152.639V22.07C152.639 21.2767 152.452 20.6817 152.078 20.285C151.704 19.877 151.171 19.673 150.48 19.673C149.698 19.673 149.08 19.911 148.627 20.387C148.173 20.8517 147.947 21.526 147.947 22.41V27H145.822V17.922H147.845V19.095C148.196 18.6757 148.638 18.3583 149.171 18.143C149.703 17.9277 150.304 17.82 150.973 17.82Z" fill="#292626"/>
<path d="M56.6 74.5L59.225 79.15H58.025L55.325 74.475L59.9 69.775H61.175L56.6 74.5ZM60.775 74.5L63.4 79.15H62.2L59.5 74.475L64.075 69.775H65.35L60.775 74.5ZM99.4479 63.5L90.0229 81H88.6729L86.3729 65.35L77.7729 81H76.4229L73.9729 63.5H75.2479L77.4479 79.3L86.0979 63.5H87.2979L89.5979 79.3L98.1479 63.5H99.4479ZM103.272 81.1C101.505 81.1 100.097 80.6083 99.0471 79.625C98.0137 78.6417 97.4971 77.325 97.4971 75.675C97.4971 74.1917 97.8137 72.8583 98.4471 71.675C99.0971 70.4917 99.9887 69.5583 101.122 68.875C102.255 68.1917 103.539 67.85 104.972 67.85C106.739 67.85 108.139 68.3417 109.172 69.325C110.222 70.2917 110.747 71.6083 110.747 73.275C110.747 74.7583 110.422 76.1 109.772 77.3C109.139 78.4833 108.255 79.4167 107.122 80.1C105.989 80.7667 104.705 81.1 103.272 81.1ZM103.372 79.975C104.539 79.975 105.58 79.6917 106.497 79.125C107.43 78.5583 108.164 77.775 108.697 76.775C109.23 75.7583 109.497 74.6167 109.497 73.35C109.497 71.9667 109.089 70.8917 108.272 70.125C107.472 69.3583 106.339 68.975 104.872 68.975C103.705 68.975 102.655 69.2667 101.722 69.85C100.805 70.4167 100.08 71.2083 99.5471 72.225C99.0137 73.225 98.7471 74.35 98.7471 75.6C98.7471 76.9833 99.1471 78.0583 99.9471 78.825C100.764 79.5917 101.905 79.975 103.372 79.975ZM131.275 67.85C132.742 67.85 133.867 68.2167 134.65 68.95C135.433 69.6667 135.825 70.675 135.825 71.975C135.825 72.425 135.775 72.9167 135.675 73.45L134.15 81H132.9L134.425 73.45C134.508 73.0667 134.55 72.6417 134.55 72.175C134.55 71.1583 134.25 70.375 133.65 69.825C133.05 69.2583 132.175 68.975 131.025 68.975C129.592 68.975 128.392 69.375 127.425 70.175C126.475 70.9583 125.85 72.1 125.55 73.6L124.05 81H122.8L124.325 73.45C124.408 73.0667 124.45 72.6417 124.45 72.175C124.45 71.1583 124.15 70.375 123.55 69.825C122.95 69.2583 122.075 68.975 120.925 68.975C119.475 68.975 118.267 69.4 117.3 70.25C116.333 71.0833 115.692 72.3 115.375 73.9L113.95 81H112.7L115.3 67.95H116.525L116.025 70.4C116.642 69.5333 117.392 68.8917 118.275 68.475C119.158 68.0583 120.15 67.85 121.25 67.85C122.45 67.85 123.417 68.1083 124.15 68.625C124.883 69.125 125.367 69.8417 125.6 70.775C126.25 69.8083 127.058 69.0833 128.025 68.6C128.992 68.1 130.075 67.85 131.275 67.85ZM139.911 74.75C139.877 75.1167 139.861 75.3917 139.861 75.575C139.861 76.9917 140.269 78.0833 141.086 78.85C141.902 79.6 143.102 79.975 144.686 79.975C145.602 79.975 146.444 79.825 147.211 79.525C147.994 79.2083 148.644 78.775 149.161 78.225L149.736 79.1C149.152 79.7333 148.402 80.225 147.486 80.575C146.586 80.925 145.619 81.1 144.586 81.1C142.736 81.1 141.277 80.6167 140.211 79.65C139.161 78.6833 138.636 77.3417 138.636 75.625C138.636 74.1583 138.944 72.8333 139.561 71.65C140.177 70.4667 141.027 69.5417 142.111 68.875C143.194 68.1917 144.411 67.85 145.761 67.85C147.461 67.85 148.811 68.3333 149.811 69.3C150.811 70.2667 151.311 71.6 151.311 73.3C151.311 73.7 151.261 74.1833 151.161 74.75H139.911ZM145.736 68.925C144.319 68.925 143.094 69.3667 142.061 70.25C141.044 71.1333 140.377 72.3083 140.061 73.775H150.111C150.127 73.625 150.136 73.4083 150.136 73.125C150.136 71.8083 149.736 70.7833 148.936 70.05C148.136 69.3 147.069 68.925 145.736 68.925ZM162.002 67.85C163.485 67.85 164.627 68.225 165.427 68.975C166.227 69.7083 166.627 70.725 166.627 72.025C166.627 72.475 166.577 72.95 166.477 73.45L164.977 81H163.727L165.227 73.45C165.31 73.0667 165.352 72.65 165.352 72.2C165.352 71.1667 165.035 70.375 164.402 69.825C163.785 69.2583 162.877 68.975 161.677 68.975C160.177 68.975 158.927 69.4 157.927 70.25C156.927 71.0833 156.269 72.3 155.952 73.9L154.527 81H153.277L155.877 67.95H157.102L156.602 70.425C157.219 69.5583 157.985 68.9167 158.902 68.5C159.835 68.0667 160.869 67.85 162.002 67.85ZM172.804 62.35C173.087 62.35 173.32 62.45 173.504 62.65C173.704 62.85 173.804 63.0917 173.804 63.375C173.804 63.5417 173.779 63.7083 173.729 63.875C173.679 64.025 173.587 64.2167 173.454 64.45L171.704 67.95H170.804L172.329 64.4C172.145 64.3167 171.995 64.1917 171.879 64.025C171.762 63.8583 171.704 63.6667 171.704 63.45C171.704 63.1333 171.812 62.875 172.029 62.675C172.245 62.4583 172.504 62.35 172.804 62.35ZM177.068 81.1C176.051 81.1 175.076 80.95 174.143 80.65C173.226 80.3333 172.51 79.9333 171.993 79.45L172.668 78.475C173.151 78.9417 173.793 79.3167 174.593 79.6C175.41 79.8667 176.268 80 177.168 80C178.518 80 179.56 79.7667 180.293 79.3C181.043 78.8167 181.418 78.15 181.418 77.3C181.418 76.8167 181.268 76.4333 180.968 76.15C180.668 75.8667 180.301 75.6583 179.868 75.525C179.435 75.375 178.835 75.2167 178.068 75.05C177.168 74.8667 176.435 74.675 175.868 74.475C175.318 74.275 174.851 73.9667 174.468 73.55C174.085 73.1167 173.893 72.5333 173.893 71.8C173.893 70.6 174.385 69.6417 175.368 68.925C176.368 68.2083 177.693 67.85 179.343 67.85C180.176 67.85 180.985 67.9667 181.768 68.2C182.551 68.4167 183.176 68.725 183.643 69.125L183.068 70.1C182.585 69.7167 182.001 69.4333 181.318 69.25C180.651 69.05 179.96 68.95 179.243 68.95C177.976 68.95 176.968 69.2 176.218 69.7C175.485 70.2 175.118 70.8583 175.118 71.675C175.118 72.175 175.268 72.575 175.568 72.875C175.868 73.1583 176.243 73.375 176.693 73.525C177.16 73.675 177.776 73.8333 178.543 74C179.443 74.1833 180.16 74.375 180.693 74.575C181.243 74.7583 181.71 75.0583 182.093 75.475C182.476 75.8917 182.668 76.4583 182.668 77.175C182.668 78.3917 182.16 79.35 181.143 80.05C180.126 80.75 178.768 81.1 177.068 81.1ZM218.177 63.5L208.752 81H207.402L205.102 65.35L196.502 81H195.152L192.702 63.5H193.977L196.177 79.3L204.827 63.5H206.027L208.327 79.3L216.877 63.5H218.177ZM222.002 81.1C220.235 81.1 218.827 80.6083 217.777 79.625C216.743 78.6417 216.227 77.325 216.227 75.675C216.227 74.1917 216.543 72.8583 217.177 71.675C217.827 70.4917 218.718 69.5583 219.852 68.875C220.985 68.1917 222.268 67.85 223.702 67.85C225.468 67.85 226.868 68.3417 227.902 69.325C228.952 70.2917 229.477 71.6083 229.477 73.275C229.477 74.7583 229.152 76.1 228.502 77.3C227.868 78.4833 226.985 79.4167 225.852 80.1C224.718 80.7667 223.435 81.1 222.002 81.1ZM222.102 79.975C223.268 79.975 224.31 79.6917 225.227 79.125C226.16 78.5583 226.893 77.775 227.427 76.775C227.96 75.7583 228.227 74.6167 228.227 73.35C228.227 71.9667 227.818 70.8917 227.002 70.125C226.202 69.3583 225.068 68.975 223.602 68.975C222.435 68.975 221.385 69.2667 220.452 69.85C219.535 70.4167 218.81 71.2083 218.277 72.225C217.743 73.225 217.477 74.35 217.477 75.6C217.477 76.9833 217.877 78.0583 218.677 78.825C219.493 79.5917 220.635 79.975 222.102 79.975ZM234.704 70.7C235.288 69.75 236.029 69.0417 236.929 68.575C237.846 68.0917 238.954 67.85 240.254 67.85L240.029 69.075L239.629 69.05C238.146 69.05 236.929 69.4917 235.979 70.375C235.029 71.2583 234.379 72.5667 234.029 74.3L232.679 81H231.429L234.029 67.95H235.254L234.704 70.7ZM247.599 73.275L252.299 81H250.849L246.624 74.025L242.574 77.15L241.799 81H240.549L244.249 62.45H245.499L242.899 75.525L252.624 67.95H254.449L247.599 73.275ZM264.924 74.475L260.349 79.15H259.099L263.649 74.4L261.049 69.775H262.224L264.924 74.475ZM269.099 74.475L264.524 79.15H263.274L267.824 74.4L265.224 69.775H266.399L269.099 74.475Z" fill="#292626"/>
</svg>
