<svg width="336" height="134" viewBox="0 0 336 134" fill="none" xmlns="http://www.w3.org/2000/svg">
<rect width="336" height="134" rx="22" fill="#93B4E1"/>
<path d="M11.598 19.1H16.8C18.0693 19.1 19.197 19.3493 20.183 19.848C21.169 20.3353 21.934 21.0323 22.478 21.939C23.022 22.8343 23.294 23.8713 23.294 25.05C23.294 26.2287 23.022 27.2713 22.478 28.178C21.934 29.0733 21.169 29.7703 20.183 30.269C19.197 30.7563 18.0693 31 16.8 31H11.598V19.1ZM16.698 29.13C17.5707 29.13 18.3357 28.9657 18.993 28.637C19.6617 28.297 20.1717 27.821 20.523 27.209C20.8857 26.5857 21.067 25.866 21.067 25.05C21.067 24.234 20.8857 23.52 20.523 22.908C20.1717 22.2847 19.6617 21.8087 18.993 21.48C18.3357 21.14 17.5707 20.97 16.698 20.97H13.808V29.13H16.698ZM34.2279 29.147V31H25.3029V19.1H33.9899V20.953H27.5129V24.047H33.2589V25.866H27.5129V29.147H34.2279ZM47.2826 31L47.2656 23.112L43.3556 29.64H42.3696L38.4596 23.214V31H36.3516V19.1H38.1706L42.8966 26.988L47.5376 19.1H49.3566L49.3736 31H47.2826ZM57.8069 31.17C56.5943 31.17 55.5006 30.9093 54.5259 30.388C53.5513 29.8553 52.7863 29.1243 52.2309 28.195C51.6756 27.2543 51.3979 26.206 51.3979 25.05C51.3979 23.894 51.6756 22.8513 52.2309 21.922C52.7863 20.9813 53.5513 20.2503 54.5259 19.729C55.5006 19.1963 56.5943 18.93 57.8069 18.93C59.0196 18.93 60.1133 19.1963 61.0879 19.729C62.0626 20.2503 62.8276 20.9757 63.3829 21.905C63.9383 22.8343 64.2159 23.8827 64.2159 25.05C64.2159 26.2173 63.9383 27.2657 63.3829 28.195C62.8276 29.1243 62.0626 29.8553 61.0879 30.388C60.1133 30.9093 59.0196 31.17 57.8069 31.17ZM57.8069 29.232C58.6003 29.232 59.3143 29.0563 59.9489 28.705C60.5836 28.3423 61.0823 27.8437 61.4449 27.209C61.8076 26.563 61.9889 25.8433 61.9889 25.05C61.9889 24.2567 61.8076 23.5427 61.4449 22.908C61.0823 22.262 60.5836 21.7633 59.9489 21.412C59.3143 21.0493 58.6003 20.868 57.8069 20.868C57.0136 20.868 56.2996 21.0493 55.6649 21.412C55.0303 21.7633 54.5316 22.262 54.1689 22.908C53.8063 23.5427 53.6249 24.2567 53.6249 25.05C53.6249 25.8433 53.8063 26.563 54.1689 27.209C54.5316 27.8437 55.0303 28.3423 55.6649 28.705C56.2996 29.0563 57.0136 29.232 57.8069 29.232ZM74.0045 31L71.5735 27.515C71.4715 27.5263 71.3185 27.532 71.1145 27.532H68.4285V31H66.2185V19.1H71.1145C72.1458 19.1 73.0411 19.27 73.8005 19.61C74.5711 19.95 75.1605 20.4373 75.5685 21.072C75.9765 21.7067 76.1805 22.4603 76.1805 23.333C76.1805 24.2283 75.9595 24.999 75.5175 25.645C75.0868 26.291 74.4635 26.7727 73.6475 27.09L76.3845 31H74.0045ZM73.9535 23.333C73.9535 22.5737 73.7041 21.99 73.2055 21.582C72.7068 21.174 71.9758 20.97 71.0125 20.97H68.4285V25.713H71.0125C71.9758 25.713 72.7068 25.509 73.2055 25.101C73.7041 24.6817 73.9535 24.0923 73.9535 23.333ZM80.561 20.97H76.617V19.1H86.715V20.97H82.771V31H80.561V20.97ZM88.0336 19.1H90.2436V31H88.0336V19.1ZM102.047 29.147V31H93.1223V19.1H101.809V20.953H95.3323V24.047H101.078V25.866H95.3323V29.147H102.047ZM111.957 31L109.526 27.515C109.424 27.5263 109.271 27.532 109.067 27.532H106.381V31H104.171V19.1H109.067C110.098 19.1 110.994 19.27 111.753 19.61C112.524 19.95 113.113 20.4373 113.521 21.072C113.929 21.7067 114.133 22.4603 114.133 23.333C114.133 24.2283 113.912 24.999 113.47 25.645C113.039 26.291 112.416 26.7727 111.6 27.09L114.337 31H111.957ZM111.906 23.333C111.906 22.5737 111.657 21.99 111.158 21.582C110.659 21.174 109.928 20.97 108.965 20.97H106.381V25.713H108.965C109.928 25.713 110.659 25.509 111.158 25.101C111.657 24.6817 111.906 24.0923 111.906 23.333ZM125.191 29.147V31H116.266V19.1H124.953V20.953H118.476V24.047H124.222V25.866H118.476V29.147H125.191ZM133.882 20.953V24.574H139.628V26.444H133.882V31H131.672V19.1H140.359V20.953H133.882ZM141.953 18.386H144.078V31H141.953V18.386ZM150.607 31.119C149.689 31.119 148.861 30.9207 148.125 30.524C147.388 30.1273 146.81 29.5777 146.391 28.875C145.983 28.161 145.779 27.3563 145.779 26.461C145.779 25.5657 145.983 24.7667 146.391 24.064C146.81 23.3613 147.388 22.8117 148.125 22.415C148.861 22.0183 149.689 21.82 150.607 21.82C151.536 21.82 152.369 22.0183 153.106 22.415C153.842 22.8117 154.415 23.3613 154.823 24.064C155.242 24.7667 155.452 25.5657 155.452 26.461C155.452 27.3563 155.242 28.161 154.823 28.875C154.415 29.5777 153.842 30.1273 153.106 30.524C152.369 30.9207 151.536 31.119 150.607 31.119ZM150.607 29.3C151.389 29.3 152.035 29.0393 152.545 28.518C153.055 27.9967 153.31 27.311 153.31 26.461C153.31 25.611 153.055 24.9253 152.545 24.404C152.035 23.8827 151.389 23.622 150.607 23.622C149.825 23.622 149.179 23.8827 148.669 24.404C148.17 24.9253 147.921 25.611 147.921 26.461C147.921 27.311 148.17 27.9967 148.669 28.518C149.179 29.0393 149.825 29.3 150.607 29.3ZM159.167 23.248C159.779 22.296 160.855 21.82 162.397 21.82V23.843C162.215 23.809 162.051 23.792 161.904 23.792C161.076 23.792 160.43 24.0357 159.966 24.523C159.501 24.999 159.269 25.6903 159.269 26.597V31H157.144V21.922H159.167V23.248ZM172.31 26.512C172.31 26.6593 172.299 26.869 172.276 27.141H165.153C165.278 27.8097 165.601 28.3423 166.122 28.739C166.655 29.1243 167.312 29.317 168.094 29.317C169.092 29.317 169.913 28.9883 170.559 28.331L171.698 29.64C171.29 30.1273 170.775 30.4957 170.151 30.745C169.528 30.9943 168.825 31.119 168.043 31.119C167.046 31.119 166.168 30.9207 165.408 30.524C164.649 30.1273 164.06 29.5777 163.64 28.875C163.232 28.161 163.028 27.3563 163.028 26.461C163.028 25.577 163.227 24.7837 163.623 24.081C164.031 23.367 164.592 22.8117 165.306 22.415C166.02 22.0183 166.825 21.82 167.72 21.82C168.604 21.82 169.392 22.0183 170.083 22.415C170.786 22.8003 171.33 23.35 171.715 24.064C172.112 24.7667 172.31 25.5827 172.31 26.512ZM167.72 23.52C167.04 23.52 166.462 23.724 165.986 24.132C165.522 24.5287 165.238 25.0613 165.136 25.73H170.287C170.197 25.0727 169.919 24.54 169.454 24.132C168.99 23.724 168.412 23.52 167.72 23.52ZM179.163 21.82C180.307 21.82 181.225 22.1543 181.917 22.823C182.608 23.4917 182.954 24.4833 182.954 25.798V31H180.829V26.07C180.829 25.2767 180.642 24.6817 180.268 24.285C179.894 23.877 179.361 23.673 178.67 23.673C177.888 23.673 177.27 23.911 176.817 24.387C176.363 24.8517 176.137 25.526 176.137 26.41V31H174.012V21.922H176.035V23.095C176.386 22.6757 176.828 22.3583 177.361 22.143C177.893 21.9277 178.494 21.82 179.163 21.82ZM190.766 30.507C190.517 30.711 190.211 30.864 189.848 30.966C189.497 31.068 189.123 31.119 188.726 31.119C187.729 31.119 186.958 30.8583 186.414 30.337C185.87 29.8157 185.598 29.0563 185.598 28.059V23.69H184.102V21.99H185.598V19.916H187.723V21.99H190.154V23.69H187.723V28.008C187.723 28.45 187.831 28.79 188.046 29.028C188.262 29.2547 188.573 29.368 188.981 29.368C189.457 29.368 189.854 29.2433 190.171 28.994L190.766 30.507ZM192.174 21.922H194.299V31H192.174V21.922ZM193.245 20.426C192.86 20.426 192.537 20.307 192.276 20.069C192.016 19.8197 191.885 19.5137 191.885 19.151C191.885 18.7883 192.016 18.488 192.276 18.25C192.537 18.0007 192.86 17.876 193.245 17.876C193.631 17.876 193.954 17.995 194.214 18.233C194.475 18.4597 194.605 18.7487 194.605 19.1C194.605 19.474 194.475 19.7913 194.214 20.052C193.965 20.3013 193.642 20.426 193.245 20.426ZM201.899 21.82C203.044 21.82 203.962 22.1543 204.653 22.823C205.345 23.4917 205.69 24.4833 205.69 25.798V31H203.565V26.07C203.565 25.2767 203.378 24.6817 203.004 24.285C202.63 23.877 202.098 23.673 201.406 23.673C200.624 23.673 200.007 23.911 199.553 24.387C199.1 24.8517 198.873 25.526 198.873 26.41V31H196.748V21.922H198.771V23.095C199.123 22.6757 199.565 22.3583 200.097 22.143C200.63 21.9277 201.231 21.82 201.899 21.82Z" fill="#292626"/>
<path d="M9.6 82.5L12.225 87.15H11.025L8.325 82.475L12.9 77.775H14.175L9.6 82.5ZM13.775 82.5L16.4 87.15H15.2L12.5 82.475L17.075 77.775H18.35L13.775 82.5ZM30.0979 72.65L28.5979 80.125H37.8979L37.6729 81.275H28.3729L26.8229 89H25.5479L29.0479 71.5H40.7479L40.4979 72.65H30.0979ZM43.4252 78.7C44.0085 77.75 44.7502 77.0417 45.6502 76.575C46.5669 76.0917 47.6752 75.85 48.9752 75.85L48.7502 77.075L48.3502 77.05C46.8669 77.05 45.6502 77.4917 44.7002 78.375C43.7502 79.2583 43.1002 80.5667 42.7502 82.3L41.4002 89H40.1502L42.7502 75.95H43.9752L43.4252 78.7ZM50.2223 82.75C50.1889 83.1167 50.1723 83.3917 50.1723 83.575C50.1723 84.9917 50.5806 86.0833 51.3973 86.85C52.2139 87.6 53.4139 87.975 54.9973 87.975C55.9139 87.975 56.7556 87.825 57.5223 87.525C58.3056 87.2083 58.9556 86.775 59.4723 86.225L60.0473 87.1C59.4639 87.7333 58.7139 88.225 57.7973 88.575C56.8973 88.925 55.9306 89.1 54.8973 89.1C53.0473 89.1 51.5889 88.6167 50.5223 87.65C49.4723 86.6833 48.9473 85.3417 48.9473 83.625C48.9473 82.1583 49.2556 80.8333 49.8723 79.65C50.4889 78.4667 51.3389 77.5417 52.4223 76.875C53.5056 76.1917 54.7223 75.85 56.0723 75.85C57.7723 75.85 59.1223 76.3333 60.1223 77.3C61.1223 78.2667 61.6223 79.6 61.6223 81.3C61.6223 81.7 61.5723 82.1833 61.4723 82.75H50.2223ZM56.0473 76.925C54.6306 76.925 53.4056 77.3667 52.3723 78.25C51.3556 79.1333 50.6889 80.3083 50.3723 81.775H60.4223C60.4389 81.625 60.4473 81.4083 60.4473 81.125C60.4473 79.8083 60.0473 78.7833 59.2473 78.05C58.4473 77.3 57.3806 76.925 56.0473 76.925ZM72.3137 75.85C73.797 75.85 74.9387 76.225 75.7387 76.975C76.5387 77.7083 76.9387 78.725 76.9387 80.025C76.9387 80.475 76.8887 80.95 76.7887 81.45L75.2887 89H74.0387L75.5387 81.45C75.622 81.0667 75.6637 80.65 75.6637 80.2C75.6637 79.1667 75.347 78.375 74.7137 77.825C74.097 77.2583 73.1887 76.975 71.9887 76.975C70.4887 76.975 69.2387 77.4 68.2387 78.25C67.2387 79.0833 66.5803 80.3 66.2637 81.9L64.8387 89H63.5887L66.1887 75.95H67.4137L66.9137 78.425C67.5303 77.5583 68.297 76.9167 69.2137 76.5C70.147 76.0667 71.1803 75.85 72.3137 75.85ZM85.6094 89.1C83.8094 89.1 82.376 88.6083 81.3094 87.625C80.2594 86.6417 79.7344 85.325 79.7344 83.675C79.7344 82.1917 80.051 80.8583 80.6844 79.675C81.3344 78.475 82.226 77.5417 83.3594 76.875C84.5094 76.1917 85.801 75.85 87.2344 75.85C88.401 75.85 89.401 76.0583 90.2344 76.475C91.0677 76.875 91.7177 77.4833 92.1844 78.3L91.1594 78.925C90.376 77.625 89.0427 76.975 87.1594 76.975C85.976 76.975 84.9177 77.2667 83.9844 77.85C83.051 78.4167 82.3177 79.2 81.7844 80.2C81.251 81.2 80.9844 82.3333 80.9844 83.6C80.9844 84.9833 81.3927 86.0583 82.2094 86.825C83.026 87.5917 84.1927 87.975 85.7094 87.975C86.576 87.975 87.3844 87.8083 88.1344 87.475C88.901 87.1417 89.5344 86.675 90.0344 86.075L90.9094 86.775C90.3427 87.5083 89.5844 88.0833 88.6344 88.5C87.701 88.9 86.6927 89.1 85.6094 89.1ZM101.807 75.85C103.29 75.85 104.432 76.225 105.232 76.975C106.032 77.7083 106.432 78.725 106.432 80.025C106.432 80.475 106.382 80.95 106.282 81.45L104.782 89H103.532L105.032 81.45C105.115 81.0667 105.157 80.65 105.157 80.2C105.157 79.1667 104.84 78.375 104.207 77.825C103.59 77.2583 102.682 76.975 101.482 76.975C99.9818 76.975 98.7318 77.4 97.7318 78.25C96.7318 79.0833 96.0735 80.3 95.7568 81.9L94.3318 89H93.0818L96.7818 70.45H98.0318L96.4568 78.375C97.6902 76.6917 99.4735 75.85 101.807 75.85ZM120.299 72.65L118.799 80.125H128.099L127.874 81.275H118.574L117.024 89H115.749L119.249 71.5H130.949L130.699 72.65H120.299ZM131.207 82.75C131.173 83.1167 131.157 83.3917 131.157 83.575C131.157 84.9917 131.565 86.0833 132.382 86.85C133.198 87.6 134.398 87.975 135.982 87.975C136.898 87.975 137.74 87.825 138.507 87.525C139.29 87.2083 139.94 86.775 140.457 86.225L141.032 87.1C140.448 87.7333 139.698 88.225 138.782 88.575C137.882 88.925 136.915 89.1 135.882 89.1C134.032 89.1 132.573 88.6167 131.507 87.65C130.457 86.6833 129.932 85.3417 129.932 83.625C129.932 82.1583 130.24 80.8333 130.857 79.65C131.473 78.4667 132.323 77.5417 133.407 76.875C134.49 76.1917 135.707 75.85 137.057 75.85C138.757 75.85 140.107 76.3333 141.107 77.3C142.107 78.2667 142.607 79.6 142.607 81.3C142.607 81.7 142.557 82.1833 142.457 82.75H131.207ZM137.032 76.925C135.615 76.925 134.39 77.3667 133.357 78.25C132.34 79.1333 131.673 80.3083 131.357 81.775H141.407C141.423 81.625 141.432 81.4083 141.432 81.125C141.432 79.8083 141.032 78.7833 140.232 78.05C139.432 77.3 138.365 76.925 137.032 76.925ZM163.148 75.85C164.615 75.85 165.74 76.2167 166.523 76.95C167.306 77.6667 167.698 78.675 167.698 79.975C167.698 80.425 167.648 80.9167 167.548 81.45L166.023 89H164.773L166.298 81.45C166.381 81.0667 166.423 80.6417 166.423 80.175C166.423 79.1583 166.123 78.375 165.523 77.825C164.923 77.2583 164.048 76.975 162.898 76.975C161.465 76.975 160.265 77.375 159.298 78.175C158.348 78.9583 157.723 80.1 157.423 81.6L155.923 89H154.673L156.198 81.45C156.281 81.0667 156.323 80.6417 156.323 80.175C156.323 79.1583 156.023 78.375 155.423 77.825C154.823 77.2583 153.948 76.975 152.798 76.975C151.348 76.975 150.14 77.4 149.173 78.25C148.206 79.0833 147.565 80.3 147.248 81.9L145.823 89H144.573L147.173 75.95H148.398L147.898 78.4C148.515 77.5333 149.265 76.8917 150.148 76.475C151.031 76.0583 152.023 75.85 153.123 75.85C154.323 75.85 155.29 76.1083 156.023 76.625C156.756 77.125 157.24 77.8417 157.473 78.775C158.123 77.8083 158.931 77.0833 159.898 76.6C160.865 76.1 161.948 75.85 163.148 75.85ZM173.284 75.95H174.534L171.934 89H170.684L173.284 75.95ZM174.684 72.775C174.418 72.775 174.193 72.6833 174.009 72.5C173.826 72.3167 173.734 72.1 173.734 71.85C173.734 71.55 173.834 71.2917 174.034 71.075C174.251 70.8583 174.518 70.75 174.834 70.75C175.101 70.75 175.326 70.8417 175.509 71.025C175.709 71.2083 175.809 71.425 175.809 71.675C175.809 71.9917 175.701 72.2583 175.484 72.475C175.268 72.675 175.001 72.775 174.684 72.775ZM185.428 75.85C186.911 75.85 188.053 76.225 188.853 76.975C189.653 77.7083 190.053 78.725 190.053 80.025C190.053 80.475 190.003 80.95 189.903 81.45L188.403 89H187.153L188.653 81.45C188.736 81.0667 188.778 80.65 188.778 80.2C188.778 79.1667 188.461 78.375 187.828 77.825C187.211 77.2583 186.303 76.975 185.103 76.975C183.603 76.975 182.353 77.4 181.353 78.25C180.353 79.0833 179.695 80.3 179.378 81.9L177.953 89H176.703L179.303 75.95H180.528L180.028 78.425C180.645 77.5583 181.411 76.9167 182.328 76.5C183.261 76.0667 184.295 75.85 185.428 75.85ZM195.624 75.95H196.874L194.274 89H193.024L195.624 75.95ZM197.024 72.775C196.758 72.775 196.533 72.6833 196.349 72.5C196.166 72.3167 196.074 72.1 196.074 71.85C196.074 71.55 196.174 71.2917 196.374 71.075C196.591 70.8583 196.858 70.75 197.174 70.75C197.441 70.75 197.666 70.8417 197.849 71.025C198.049 71.2083 198.149 71.425 198.149 71.675C198.149 71.9917 198.041 72.2583 197.824 72.475C197.608 72.675 197.341 72.775 197.024 72.775ZM202.618 89.1C201.601 89.1 200.626 88.95 199.693 88.65C198.776 88.3333 198.059 87.9333 197.543 87.45L198.218 86.475C198.701 86.9417 199.343 87.3167 200.143 87.6C200.959 87.8667 201.818 88 202.718 88C204.068 88 205.109 87.7667 205.843 87.3C206.593 86.8167 206.968 86.15 206.968 85.3C206.968 84.8167 206.818 84.4333 206.518 84.15C206.218 83.8667 205.851 83.6583 205.418 83.525C204.984 83.375 204.384 83.2167 203.618 83.05C202.718 82.8667 201.984 82.675 201.418 82.475C200.868 82.275 200.401 81.9667 200.018 81.55C199.634 81.1167 199.443 80.5333 199.443 79.8C199.443 78.6 199.934 77.6417 200.918 76.925C201.918 76.2083 203.243 75.85 204.893 75.85C205.726 75.85 206.534 75.9667 207.318 76.2C208.101 76.4167 208.726 76.725 209.193 77.125L208.618 78.1C208.134 77.7167 207.551 77.4333 206.868 77.25C206.201 77.05 205.509 76.95 204.793 76.95C203.526 76.95 202.518 77.2 201.768 77.7C201.034 78.2 200.668 78.8583 200.668 79.675C200.668 80.175 200.818 80.575 201.118 80.875C201.418 81.1583 201.793 81.375 202.243 81.525C202.709 81.675 203.326 81.8333 204.093 82C204.993 82.1833 205.709 82.375 206.243 82.575C206.793 82.7583 207.259 83.0583 207.643 83.475C208.026 83.8917 208.218 84.4583 208.218 85.175C208.218 86.3917 207.709 87.35 206.693 88.05C205.676 88.75 204.318 89.1 202.618 89.1ZM229.056 75.85C230.523 75.85 231.648 76.2167 232.431 76.95C233.215 77.6667 233.606 78.675 233.606 79.975C233.606 80.425 233.556 80.9167 233.456 81.45L231.931 89H230.681L232.206 81.45C232.29 81.0667 232.331 80.6417 232.331 80.175C232.331 79.1583 232.031 78.375 231.431 77.825C230.831 77.2583 229.956 76.975 228.806 76.975C227.373 76.975 226.173 77.375 225.206 78.175C224.256 78.9583 223.631 80.1 223.331 81.6L221.831 89H220.581L222.106 81.45C222.19 81.0667 222.231 80.6417 222.231 80.175C222.231 79.1583 221.931 78.375 221.331 77.825C220.731 77.2583 219.856 76.975 218.706 76.975C217.256 76.975 216.048 77.4 215.081 78.25C214.115 79.0833 213.473 80.3 213.156 81.9L211.731 89H210.481L213.081 75.95H214.306L213.806 78.4C214.423 77.5333 215.173 76.8917 216.056 76.475C216.94 76.0583 217.931 75.85 219.031 75.85C220.231 75.85 221.198 76.1083 221.931 76.625C222.665 77.125 223.148 77.8417 223.381 78.775C224.031 77.8083 224.84 77.0833 225.806 76.6C226.773 76.1 227.856 75.85 229.056 75.85ZM241.143 82.475L236.568 87.15H235.318L239.868 82.4L237.268 77.775H238.443L241.143 82.475ZM245.318 82.475L240.743 87.15H239.493L244.043 82.4L241.443 77.775H242.618L245.318 82.475Z" fill="#292626"/>
</svg>
