<svg width="336" height="134" viewBox="0 0 336 134" fill="none" xmlns="http://www.w3.org/2000/svg"><rect width="336" height="134" rx="22" fill="#93B4E1"/><path d="M20.523 29.147V31h-8.925V19.1h8.687v1.853h-6.477v3.094h5.746v1.819h-5.746v3.281h6.715zm7.582 2.023c-1.201 0-2.29-.26-3.264-.782a5.966 5.966 0 01-2.278-2.193c-.544-.93-.816-1.978-.816-3.145s.277-2.216.833-3.145a5.842 5.842 0 012.278-2.176c.974-.533 2.063-.799 3.264-.799.974 0 1.864.17 2.669.51.805.34 1.485.833 2.04 1.479l-1.428 1.343c-.861-.93-1.921-1.394-3.18-1.394-.815 0-1.546.181-2.192.544a3.799 3.799 0 00-1.513 1.479c-.363.635-.544 1.354-.544 2.159 0 .805.181 1.524.544 2.159a3.917 3.917 0 001.513 1.496c.646.351 1.377.527 2.193.527 1.258 0 2.317-.47 3.179-1.411l1.428 1.36a5.416 5.416 0 01-2.057 1.479c-.805.34-1.695.51-2.67.51zm11.762 0c-1.2 0-2.289-.26-3.264-.782a5.967 5.967 0 01-2.278-2.193c-.544-.93-.816-1.978-.816-3.145s.278-2.216.833-3.145a5.843 5.843 0 012.278-2.176c.975-.533 2.063-.799 3.264-.799.975 0 1.865.17 2.67.51.804.34 1.484.833 2.04 1.479l-1.429 1.343c-.86-.93-1.92-1.394-3.179-1.394-.816 0-1.547.181-2.193.544a3.8 3.8 0 00-1.513 1.479c-.362.635-.544 1.354-.544 2.159 0 .805.182 1.524.544 2.159a3.917 3.917 0 001.513 1.496c.646.351 1.377.527 2.193.527 1.258 0 2.318-.47 3.18-1.411l1.427 1.36a5.415 5.415 0 01-2.057 1.479c-.804.34-1.694.51-2.669.51zM56.945 19.1V31h-2.21v-5.1h-6.154V31h-2.21V19.1h2.21v4.913h6.154V19.1h2.21zm11.774 10.047V31h-8.925V19.1h8.687v1.853h-6.477v3.094h5.746v1.819h-5.746v3.281h6.715zM78.629 31l-2.432-3.485a4.542 4.542 0 01-.459.017h-2.686V31h-2.21V19.1h4.896c1.032 0 1.927.17 2.686.51.771.34 1.36.827 1.768 1.462.408.635.612 1.388.612 2.261 0 .895-.22 1.666-.663 2.312-.43.646-1.054 1.128-1.87 1.445L81.008 31h-2.38zm-.052-7.667c0-.76-.249-1.343-.748-1.751-.498-.408-1.23-.612-2.193-.612h-2.584v4.743h2.584c.964 0 1.695-.204 2.193-.612.499-.42.748-1.009.748-1.768zm16.436 4.913h-5.95L87.89 31h-2.278l5.355-11.9h2.176L98.515 31h-2.312l-1.19-2.754zm-.73-1.734l-2.245-5.202-2.227 5.202h4.471zm14.129-4.59v7.701c0 3.196-1.632 4.794-4.896 4.794a8.87 8.87 0 01-2.482-.34c-.782-.215-1.428-.533-1.939-.952l.953-1.598c.396.329.895.59 1.496.782a5.823 5.823 0 001.853.306c.997 0 1.728-.227 2.193-.68.464-.453.697-1.145.697-2.074v-.476a3.498 3.498 0 01-1.326.901 4.677 4.677 0 01-1.717.306c-.862 0-1.644-.181-2.346-.544a4.285 4.285 0 01-1.65-1.564c-.396-.669-.595-1.434-.595-2.295s.199-1.62.596-2.278a4.162 4.162 0 011.649-1.547c.702-.363 1.484-.544 2.346-.544.657 0 1.252.108 1.785.323a3.3 3.3 0 011.36.986v-1.207h2.023zm-4.845 6.868c.804 0 1.462-.238 1.972-.714.521-.487.782-1.116.782-1.887 0-.76-.261-1.377-.782-1.853-.51-.476-1.168-.714-1.972-.714-.816 0-1.485.238-2.006.714-.51.476-.765 1.094-.765 1.853 0 .77.255 1.4.765 1.887.521.476 1.19.714 2.006.714zm10.766-6.97c1.338 0 2.358.323 3.06.969.714.635 1.071 1.598 1.071 2.89V31h-2.006v-1.105c-.26.397-.634.703-1.122.918-.476.204-1.054.306-1.734.306-.68 0-1.275-.113-1.785-.34-.51-.238-.906-.561-1.19-.969a2.537 2.537 0 01-.408-1.411c0-.816.301-1.468.901-1.955.612-.499 1.57-.748 2.873-.748h2.346v-.136c0-.635-.192-1.122-.578-1.462-.374-.34-.935-.51-1.683-.51-.51 0-1.014.08-1.513.238-.487.159-.901.38-1.241.663l-.833-1.547c.476-.363 1.049-.64 1.717-.833a7.64 7.64 0 012.125-.289zm-.289 7.752c.533 0 1.003-.119 1.411-.357.42-.25.714-.6.884-1.054v-1.054h-2.193c-1.224 0-1.836.402-1.836 1.207 0 .385.153.691.459.918.306.227.731.34 1.275.34zm12.264.935a2.492 2.492 0 01-.918.459 4.003 4.003 0 01-1.122.153c-.997 0-1.768-.26-2.312-.782-.544-.521-.816-1.28-.816-2.278V23.69h-1.496v-1.7h1.496v-2.074h2.125v2.074h2.431v1.7h-2.431v4.318c0 .442.108.782.323 1.02.216.227.527.34.935.34.476 0 .873-.125 1.19-.374l.595 1.513zm6.56-8.687c1.144 0 2.062.334 2.754 1.003.691.669 1.037 1.66 1.037 2.975V31h-2.125v-4.93c0-.793-.187-1.388-.561-1.785-.374-.408-.907-.612-1.598-.612-.782 0-1.4.238-1.853.714-.454.465-.68 1.139-.68 2.023V31h-2.125V18.386h2.125v4.59a3.382 3.382 0 011.292-.85 4.719 4.719 0 011.734-.306zm14.763 4.692c0 .147-.011.357-.034.629h-7.123c.125.669.448 1.201.969 1.598.533.385 1.19.578 1.972.578.998 0 1.819-.329 2.465-.986l1.139 1.309a3.833 3.833 0 01-1.547 1.105c-.623.25-1.326.374-2.108.374-.997 0-1.875-.198-2.635-.595a4.367 4.367 0 01-1.768-1.649c-.408-.714-.612-1.519-.612-2.414 0-.884.199-1.677.595-2.38a4.324 4.324 0 011.683-1.666c.714-.397 1.519-.595 2.414-.595.884 0 1.672.198 2.363.595a4.01 4.01 0 011.632 1.649c.397.703.595 1.519.595 2.448zm-4.59-2.992c-.68 0-1.258.204-1.734.612-.464.397-.748.93-.85 1.598h5.151c-.09-.657-.368-1.19-.833-1.598-.464-.408-1.042-.612-1.734-.612zM58.6 75.5l2.625 4.65h-1.2l-2.7-4.675 4.575-4.7h1.275L58.6 75.5zm4.175 0l2.625 4.65h-1.2l-2.7-4.675 4.575-4.7h1.275L62.775 75.5zm16.323-9.85l-1.5 7.475h9.3l-.225 1.15h-9.3L75.823 82h-1.275l3.5-17.5h11.7l-.25 1.15h-10.4zm10.907 10.1c-.033.367-.05.642-.05.825 0 1.417.409 2.508 1.225 3.275.817.75 2.017 1.125 3.6 1.125.917 0 1.759-.15 2.525-.45.784-.317 1.434-.75 1.95-1.3l.576.875c-.584.633-1.334 1.125-2.25 1.475a7.93 7.93 0 01-2.9.525c-1.85 0-3.309-.483-4.376-1.45-1.05-.967-1.575-2.308-1.575-4.025 0-1.467.309-2.792.925-3.975.617-1.183 1.467-2.108 2.55-2.775 1.084-.683 2.3-1.025 3.65-1.025 1.7 0 3.05.483 4.05 1.45s1.5 2.3 1.5 4c0 .4-.05.883-.15 1.45h-11.25zm5.826-5.825c-1.417 0-2.642.442-3.675 1.325-1.017.883-1.684 2.058-2 3.525h10.049c.017-.15.025-.367.025-.65 0-1.317-.4-2.342-1.2-3.075-.8-.75-1.866-1.125-3.2-1.125zm26.116-1.075c1.467 0 2.592.367 3.375 1.1.783.717 1.175 1.725 1.175 3.025 0 .45-.05.942-.15 1.475L124.822 82h-1.25l1.525-7.55c.083-.383.125-.808.125-1.275 0-1.017-.3-1.8-.9-2.35-.6-.567-1.475-.85-2.625-.85-1.433 0-2.633.4-3.6 1.2-.95.783-1.575 1.925-1.875 3.425l-1.5 7.4h-1.25l1.525-7.55c.083-.383.125-.808.125-1.275 0-1.017-.3-1.8-.9-2.35-.6-.567-1.475-.85-2.625-.85-1.45 0-2.658.425-3.625 1.275-.967.833-1.608 2.05-1.925 3.65l-1.425 7.1h-1.25l2.6-13.05h1.225l-.5 2.45c.617-.867 1.367-1.508 2.25-1.925.883-.417 1.875-.625 2.975-.625 1.2 0 2.167.258 2.9.775.733.5 1.217 1.217 1.45 2.15.65-.967 1.458-1.692 2.425-2.175.967-.5 2.05-.75 3.25-.75zm10.136.1h1.25l-2.6 13.05h-1.25l2.6-13.05zm1.4-3.175a.92.92 0 01-.675-.275.89.89 0 01-.275-.65c0-.3.1-.558.3-.775.217-.217.484-.325.8-.325.267 0 .492.092.675.275.2.183.3.4.3.65 0 .317-.108.583-.325.8-.216.2-.483.3-.8.3zm10.744 3.075c1.483 0 2.625.375 3.425 1.125.8.733 1.2 1.75 1.2 3.05 0 .45-.05.925-.15 1.425l-1.5 7.55h-1.25l1.5-7.55c.083-.383.125-.8.125-1.25 0-1.033-.317-1.825-.95-2.375-.617-.567-1.525-.85-2.725-.85-1.5 0-2.75.425-3.75 1.275-1 .833-1.659 2.05-1.975 3.65l-1.425 7.1h-1.25l2.6-13.05h1.225l-.5 2.475c.616-.867 1.383-1.508 2.3-1.925.933-.433 1.966-.65 3.1-.65zm10.196.1h1.25l-2.6 13.05h-1.25l2.6-13.05zm1.4-3.175a.917.917 0 01-.675-.275.89.89 0 01-.275-.65c0-.3.1-.558.3-.775.217-.217.483-.325.8-.325.267 0 .492.092.675.275.2.183.3.4.3.65 0 .317-.108.583-.325.8-.217.2-.483.3-.8.3zm17.344-2.325l-3.7 18.55h-1.2l.5-2.55a6.596 6.596 0 01-2.375 1.95c-.934.467-1.975.7-3.125.7-1.7 0-3.067-.483-4.1-1.45-1.017-.983-1.525-2.308-1.525-3.975 0-1.483.316-2.817.95-4 .633-1.2 1.508-2.133 2.625-2.8 1.133-.683 2.4-1.025 3.8-1.025 1.35 0 2.466.292 3.35.875.883.583 1.483 1.417 1.8 2.5l1.75-8.775h1.25zm-9.65 17.525c1.166 0 2.208-.283 3.125-.85a5.99 5.99 0 002.2-2.35c.533-1.017.8-2.158.8-3.425 0-1.383-.409-2.458-1.225-3.225-.8-.767-1.934-1.15-3.4-1.15-1.167 0-2.217.292-3.15.875-.917.567-1.642 1.358-2.175 2.375-.534 1-.8 2.125-.8 3.375 0 1.383.4 2.458 1.2 3.225.816.767 1.958 1.15 3.425 1.15zm24.77-12.025l-2.6 13.05h-1.225l.5-2.475c-1.217 1.717-3 2.575-5.35 2.575-1.467 0-2.6-.367-3.4-1.1-.784-.75-1.175-1.775-1.175-3.075 0-.45.05-.925.15-1.425l1.5-7.55h1.25l-1.5 7.55a5.625 5.625 0 00-.125 1.25c0 1.033.3 1.833.9 2.4.616.55 1.525.825 2.725.825 1.5 0 2.741-.417 3.725-1.25.983-.85 1.633-2.075 1.95-3.675l1.425-7.1h1.25zm7.823 13.15c-1.8 0-3.233-.492-4.3-1.475-1.05-.983-1.575-2.3-1.575-3.95 0-1.483.317-2.817.95-4 .65-1.2 1.542-2.133 2.675-2.8 1.15-.683 2.442-1.025 3.875-1.025 1.167 0 2.167.208 3 .625a4.383 4.383 0 011.95 1.825l-1.025.625c-.783-1.3-2.116-1.95-4-1.95-1.183 0-2.241.292-3.175.875a5.99 5.99 0 00-2.2 2.35c-.533 1-.8 2.133-.8 3.4 0 1.383.409 2.458 1.225 3.225.817.767 1.984 1.15 3.5 1.15.867 0 1.675-.167 2.425-.5.767-.333 1.4-.8 1.9-1.4l.875.7c-.566.733-1.325 1.308-2.275 1.725-.933.4-1.941.6-3.025.6zm18.163-6.625l-4.575 4.675h-1.25l4.55-4.75-2.6-4.625h1.175l2.7 4.7zm4.175 0l-4.575 4.675h-1.25l4.55-4.75-2.6-4.625h1.175l2.7 4.7z" fill="#292626"/></svg>