<svg width="336" height="133" viewBox="0 0 336 133" fill="none" xmlns="http://www.w3.org/2000/svg"><rect width="336" height="133" rx="22" fill="#B9D7EA"/><path d="M19.523 22.147V24h-8.925V12.1h8.687v1.853h-6.477v3.094h5.746v1.819h-5.746v3.281h6.715zm5.813 2.023c-.918 0-1.808-.13-2.67-.391-.85-.26-1.524-.606-2.022-1.037l.765-1.717c.487.385 1.082.703 1.785.952a6.738 6.738 0 002.142.357c.884 0 1.541-.142 1.972-.425.442-.283.663-.657.663-1.122 0-.34-.125-.618-.374-.833a2.416 2.416 0 00-.918-.527 20.655 20.655 0 00-1.53-.425c-.907-.215-1.644-.43-2.21-.646a3.741 3.741 0 01-1.445-1.003c-.397-.465-.595-1.088-.595-1.87 0-.657.175-1.252.527-1.785.362-.544.9-.975 1.615-1.292.725-.317 1.609-.476 2.652-.476.725 0 1.439.09 2.142.272.702.181 1.309.442 1.819.782l-.697 1.717a6.88 6.88 0 00-1.632-.697 6.104 6.104 0 00-1.65-.238c-.872 0-1.524.147-1.954.442-.42.295-.63.686-.63 1.173 0 .34.12.618.358.833.249.215.56.385.935.51.374.125.884.266 1.53.425.884.204 1.609.42 2.176.646.566.215 1.048.55 1.445 1.003.408.453.612 1.065.612 1.836 0 .657-.182 1.252-.544 1.785-.352.533-.89.958-1.615 1.275-.726.317-1.61.476-2.652.476zm6.248-5.78h4.675v1.768h-4.675V18.39zm10.304 5.78c-.918 0-1.808-.13-2.669-.391-.85-.26-1.524-.606-2.023-1.037l.765-1.717c.487.385 1.082.703 1.785.952a6.738 6.738 0 002.142.357c.884 0 1.541-.142 1.972-.425.442-.283.663-.657.663-1.122 0-.34-.125-.618-.374-.833a2.416 2.416 0 00-.918-.527 20.655 20.655 0 00-1.53-.425c-.907-.215-1.643-.43-2.21-.646a3.742 3.742 0 01-1.445-1.003c-.397-.465-.595-1.088-.595-1.87 0-.657.176-1.252.527-1.785.363-.544.901-.975 1.615-1.292.725-.317 1.61-.476 2.652-.476.725 0 1.44.09 2.142.272.703.181 1.31.442 1.82.782l-.698 1.717a6.876 6.876 0 00-1.632-.697 6.103 6.103 0 00-1.649-.238c-.873 0-1.524.147-1.955.442-.42.295-.629.686-.629 1.173 0 .34.12.618.357.833.25.215.561.385.935.51s.884.266 1.53.425c.884.204 1.61.42 2.176.646.567.215 1.048.55 1.445 1.003.408.453.612 1.065.612 1.836a3.1 3.1 0 01-.544 1.785c-.351.533-.89.958-1.615 1.275-.725.317-1.61.476-2.652.476zm14.38-2.924h-5.95L49.147 24h-2.279l5.355-11.9h2.176L59.77 24h-2.312l-1.19-2.754zm-.73-1.734l-2.244-5.202-2.227 5.202h4.47zm13.838-1.7c.657.215 1.179.578 1.564 1.088.385.499.578 1.122.578 1.87 0 1.031-.397 1.83-1.19 2.397-.793.555-1.95.833-3.468.833h-5.916V12.1h5.576c1.405 0 2.488.278 3.247.833.76.544 1.139 1.298 1.139 2.261 0 .59-.136 1.11-.408 1.564a2.793 2.793 0 01-1.122 1.054zm-6.222-3.978v3.281h3.128c.77 0 1.36-.136 1.768-.408.42-.283.629-.691.629-1.224 0-.544-.21-.952-.63-1.224-.407-.283-.996-.425-1.767-.425h-3.128zm3.57 8.432c1.711 0 2.567-.572 2.567-1.717s-.856-1.717-2.567-1.717h-3.57v3.434h3.57zm15.245-4.454c.657.215 1.178.578 1.564 1.088.385.499.578 1.122.578 1.87 0 1.031-.397 1.83-1.19 2.397-.794.555-1.95.833-3.469.833h-5.915V12.1h5.575c1.406 0 2.488.278 3.248.833.759.544 1.139 1.298 1.139 2.261 0 .59-.136 1.11-.408 1.564a2.793 2.793 0 01-1.122 1.054zm-6.222-3.978v3.281h3.127c.771 0 1.36-.136 1.769-.408.419-.283.629-.691.629-1.224 0-.544-.21-.952-.63-1.224-.407-.283-.997-.425-1.767-.425h-3.129zm3.57 8.432c1.71 0 2.567-.572 2.567-1.717s-.856-1.717-2.567-1.717h-3.57v3.434h3.57zm14.53-1.02h-5.95L86.724 24h-2.278l5.355-11.9h2.176L97.35 24h-2.312l-1.19-2.754zm-.73-1.734l-2.245-5.202-2.227 5.202h4.471zM106.308 24l-2.431-3.485a4.542 4.542 0 01-.459.017h-2.686V24h-2.21V12.1h4.896c1.031 0 1.926.17 2.686.51.77.34 1.36.827 1.768 1.462.408.635.612 1.388.612 2.261 0 .895-.221 1.666-.663 2.312-.431.646-1.054 1.128-1.87 1.445l2.737 3.91h-2.38zm-.051-7.667c0-.76-.25-1.343-.748-1.751-.499-.408-1.23-.612-2.193-.612h-2.584v4.743h2.584c.963 0 1.694-.204 2.193-.612.498-.42.748-1.009.748-1.768zm16.435 4.913h-5.95L115.57 24h-2.278l5.355-11.9h2.176l5.372 11.9h-2.312l-1.19-2.754zm-.731-1.734l-2.244-5.202-2.227 5.202h4.471zm7.925 4.607a8.12 8.12 0 01-2.159-.289c-.703-.193-1.264-.436-1.683-.731l.816-1.615c.408.272.895.493 1.462.663a6.4 6.4 0 001.7.238c1.269 0 1.904-.334 1.904-1.003 0-.317-.165-.538-.493-.663-.318-.125-.833-.244-1.547-.357-.748-.113-1.36-.244-1.836-.391a2.902 2.902 0 01-1.224-.765c-.34-.374-.51-.89-.51-1.547 0-.861.357-1.547 1.071-2.057.725-.521 1.7-.782 2.924-.782.623 0 1.246.074 1.87.221.623.136 1.133.323 1.53.561l-.816 1.615c-.771-.453-1.638-.68-2.601-.68-.624 0-1.1.096-1.428.289-.318.181-.476.425-.476.731 0 .34.17.584.51.731.351.136.889.266 1.615.391.725.113 1.32.244 1.785.391.464.147.861.397 1.19.748.34.351.51.85.51 1.496 0 .85-.369 1.53-1.105 2.04-.737.51-1.74.765-3.009.765zm17.062-9.299c1.144 0 2.051.334 2.72 1.003.668.657 1.003 1.649 1.003 2.975V24h-2.125v-4.93c0-.793-.176-1.388-.527-1.785-.352-.408-.856-.612-1.513-.612-.714 0-1.287.238-1.717.714-.431.465-.646 1.133-.646 2.006V24h-2.125v-4.93c0-.793-.176-1.388-.527-1.785-.352-.408-.856-.612-1.513-.612-.726 0-1.304.232-1.734.697-.42.465-.629 1.139-.629 2.023V24h-2.125v-9.078h2.023v1.156c.34-.408.765-.72 1.275-.935a4.327 4.327 0 011.7-.323c.68 0 1.28.13 1.802.391.532.25.952.623 1.258 1.122a3.705 3.705 0 011.445-1.105 4.608 4.608 0 011.955-.408zm9.566 0c1.338 0 2.358.323 3.06.969.714.635 1.071 1.598 1.071 2.89V24h-2.006v-1.105c-.26.397-.634.703-1.122.918-.476.204-1.054.306-1.734.306-.68 0-1.275-.113-1.785-.34-.51-.238-.906-.561-1.19-.969a2.537 2.537 0 01-.408-1.411c0-.816.301-1.468.901-1.955.612-.499 1.57-.748 2.873-.748h2.346v-.136c0-.635-.192-1.122-.578-1.462-.374-.34-.935-.51-1.683-.51-.51 0-1.014.08-1.513.238-.487.159-.901.38-1.241.663l-.833-1.547c.476-.363 1.049-.64 1.717-.833a7.64 7.64 0 012.125-.289zm-.289 7.752c.533 0 1.003-.119 1.411-.357.42-.25.714-.6.884-1.054v-1.054h-2.193c-1.224 0-1.836.402-1.836 1.207 0 .385.153.691.459.918.306.227.731.34 1.275.34zM48.6 74.5l2.625 4.65h-1.2l-2.7-4.675 4.575-4.7h1.275L48.6 74.5zm4.175 0l2.625 4.65h-1.2l-2.7-4.675 4.575-4.7h1.275L52.775 74.5zm38.673-11L82.023 81h-1.35l-2.3-15.65-8.6 15.65h-1.35l-2.45-17.5h1.275l2.2 15.8 8.65-15.8h1.2l2.3 15.8 8.55-15.8h1.3zm3.824 17.6c-1.767 0-3.175-.492-4.225-1.475-1.033-.983-1.55-2.3-1.55-3.95 0-1.483.317-2.817.95-4a7.323 7.323 0 012.675-2.8c1.133-.683 2.417-1.025 3.85-1.025 1.767 0 3.167.492 4.2 1.475 1.05.967 1.575 2.283 1.575 3.95 0 1.483-.325 2.825-.975 4.025a7.142 7.142 0 01-2.65 2.8c-1.133.667-2.417 1-3.85 1zm.1-1.125c1.167 0 2.208-.283 3.125-.85a5.98 5.98 0 002.2-2.35c.533-1.017.8-2.158.8-3.425 0-1.383-.408-2.458-1.225-3.225-.8-.767-1.933-1.15-3.4-1.15-1.167 0-2.217.292-3.15.875-.917.567-1.642 1.358-2.175 2.375-.533 1-.8 2.125-.8 3.375 0 1.383.4 2.458 1.2 3.225.817.767 1.958 1.15 3.425 1.15zm27.903-12.125c1.467 0 2.592.367 3.375 1.1.783.717 1.175 1.725 1.175 3.025 0 .45-.05.942-.15 1.475L126.15 81h-1.25l1.525-7.55c.083-.383.125-.808.125-1.275 0-1.017-.3-1.8-.9-2.35-.6-.567-1.475-.85-2.625-.85-1.433 0-2.633.4-3.6 1.2-.95.783-1.575 1.925-1.875 3.425l-1.5 7.4h-1.25l1.525-7.55c.083-.383.125-.808.125-1.275 0-1.017-.3-1.8-.9-2.35-.6-.567-1.475-.85-2.625-.85-1.45 0-2.658.425-3.625 1.275-.967.833-1.608 2.05-1.925 3.65L105.95 81h-1.25l2.6-13.05h1.225l-.5 2.45c.617-.867 1.367-1.508 2.25-1.925.883-.417 1.875-.625 2.975-.625 1.2 0 2.167.258 2.9.775.733.5 1.217 1.217 1.45 2.15.65-.967 1.458-1.692 2.425-2.175.967-.5 2.05-.75 3.25-.75zm8.636 6.9c-.034.367-.05.642-.05.825 0 1.417.408 2.508 1.225 3.275.816.75 2.016 1.125 3.6 1.125.916 0 1.758-.15 2.525-.45.783-.317 1.433-.75 1.95-1.3l.575.875c-.584.633-1.334 1.125-2.25 1.475-.9.35-1.867.525-2.9.525-1.85 0-3.309-.483-4.375-1.45-1.05-.967-1.575-2.308-1.575-4.025 0-1.467.308-2.792.925-3.975.616-1.183 1.466-2.108 2.55-2.775 1.083-.683 2.3-1.025 3.65-1.025 1.7 0 3.05.483 4.05 1.45s1.5 2.3 1.5 4c0 .4-.05.883-.15 1.45h-11.25zm5.825-5.825c-1.417 0-2.642.442-3.675 1.325-1.017.883-1.684 2.058-2 3.525h10.05c.016-.15.025-.367.025-.65 0-1.317-.4-2.342-1.2-3.075-.8-.75-1.867-1.125-3.2-1.125zm16.266-1.075c1.483 0 2.625.375 3.425 1.125.8.733 1.2 1.75 1.2 3.05 0 .45-.05.925-.15 1.425l-1.5 7.55h-1.25l1.5-7.55c.083-.383.125-.8.125-1.25 0-1.033-.317-1.825-.95-2.375-.617-.567-1.525-.85-2.725-.85-1.5 0-2.75.425-3.75 1.275-1 .833-1.658 2.05-1.975 3.65l-1.425 7.1h-1.25l2.6-13.05h1.225l-.5 2.475c.617-.867 1.383-1.508 2.3-1.925.933-.433 1.967-.65 3.1-.65zm10.802-5.5c.283 0 .516.1.7.3.2.2.3.442.3.725 0 .167-.025.333-.075.5-.05.15-.142.342-.275.575l-1.75 3.5h-.9l1.525-3.55a1.083 1.083 0 01-.45-.375.975.975 0 01-.175-.575c0-.317.108-.575.325-.775.216-.217.475-.325.775-.325zm4.264 18.75a9.496 9.496 0 01-2.925-.45c-.917-.317-1.633-.717-2.15-1.2l.675-.975c.483.467 1.125.842 1.925 1.125.817.267 1.675.4 2.575.4 1.35 0 2.392-.233 3.125-.7.75-.483 1.125-1.15 1.125-2 0-.483-.15-.867-.45-1.15a2.756 2.756 0 00-1.1-.625c-.433-.15-1.033-.308-1.8-.475-.9-.183-1.633-.375-2.2-.575a3.49 3.49 0 01-1.4-.925c-.383-.433-.575-1.017-.575-1.75 0-1.2.492-2.158 1.475-2.875 1-.717 2.325-1.075 3.975-1.075a8.45 8.45 0 012.425.35c.783.217 1.408.525 1.875.925l-.575.975c-.483-.383-1.067-.667-1.75-.85-.667-.2-1.358-.3-2.075-.3-1.267 0-2.275.25-3.025.75-.733.5-1.1 1.158-1.1 1.975 0 .5.15.9.45 1.2.3.283.675.5 1.125.65.467.15 1.083.308 1.85.475.9.183 1.617.375 2.15.575.55.183 1.017.483 1.4.9.383.417.575.983.575 1.7 0 1.217-.508 2.175-1.525 2.875-1.017.7-2.375 1.05-4.075 1.05zm18.759-16.45l-1.375 6.9h9.3l-.225 1.125h-9.3l-1.45 7.175h10.8l-.25 1.15h-12.05l3.5-17.5h11.7l-.25 1.15h-10.4zm14.524 6.05c.583-.95 1.325-1.658 2.225-2.125.917-.483 2.025-.725 3.325-.725l-.225 1.225-.4-.025c-1.483 0-2.7.442-3.65 1.325-.95.883-1.6 2.192-1.95 3.925l-1.35 6.7h-1.25l2.6-13.05h1.225l-.55 2.75zm19.947-2.75l-2.6 13.05h-1.2l.5-2.55a6.588 6.588 0 01-2.375 1.95c-.933.467-1.975.7-3.125.7-1.7 0-3.067-.483-4.1-1.45-1.017-.983-1.525-2.308-1.525-3.975 0-1.483.317-2.817.95-4 .633-1.2 1.508-2.133 2.625-2.8 1.133-.683 2.4-1.025 3.8-1.025 1.35 0 2.467.292 3.35.875s1.483 1.408 1.8 2.475l.65-3.25h1.25zm-8.55 12.025c1.167 0 2.208-.283 3.125-.85a5.983 5.983 0 002.2-2.35c.533-1.017.8-2.158.8-3.425 0-1.383-.408-2.458-1.225-3.225-.8-.767-1.933-1.15-3.4-1.15-1.167 0-2.217.292-3.15.875-.917.567-1.642 1.358-2.175 2.375-.533 1-.8 2.125-.8 3.375 0 1.383.4 2.458 1.2 3.225.817.767 1.958 1.15 3.425 1.15zm21.166-5.5l-4.575 4.675h-1.25l4.55-4.75-2.6-4.625h1.175l2.7 4.7zm4.175 0l-4.575 4.675h-1.25l4.55-4.75-2.6-4.625h1.175l2.7 4.7z" fill="#292626"/></svg>