<svg width="336" height="109" viewBox="0 0 336 109" fill="none" xmlns="http://www.w3.org/2000/svg"><rect width="336" height="109" rx="22" fill="#93B4E1"/><path d="M12.808 20.953v3.621h5.746v1.87h-5.746V31h-2.21V19.1h8.687v1.853h-6.477zm15.478 7.293h-5.95L21.163 31h-2.278l5.355-11.9h2.176L31.788 31h-2.312l-1.19-2.754zm-.731-1.734L25.31 21.31l-2.227 5.202h4.47zm9.826.289V31h-2.21v-4.165L30.496 19.1h2.363l3.485 5.797 3.52-5.797h2.175l-4.658 7.701zm14.524 2.346V31H42.98V19.1h8.687v1.853H45.19v3.094h5.746v1.819H45.19v3.281h6.715zM58.387 19.1h2.21v10.03h6.222V31h-8.432V19.1zm18.339 2.822V31h-2.023v-1.156c-.34.408-.765.725-1.275.952-.51.215-1.06.323-1.649.323-1.213 0-2.17-.334-2.873-1.003-.691-.68-1.037-1.683-1.037-3.009v-5.185h2.125v4.896c0 .816.181 1.428.544 1.836.374.397.901.595 1.581.595.76 0 1.36-.232 1.802-.697.453-.476.68-1.156.68-2.04v-4.59h2.125zm11.333-3.536V31h-2.04v-1.173c-.351.43-.787.754-1.309.969a4.33 4.33 0 01-1.7.323c-.872 0-1.66-.193-2.363-.578a4.184 4.184 0 01-1.632-1.632c-.396-.714-.595-1.53-.595-2.448 0-.918.199-1.728.595-2.431a4.184 4.184 0 011.632-1.632c.703-.385 1.49-.578 2.363-.578.601 0 1.15.102 1.65.306.498.204.923.51 1.274.918v-4.658h2.125zM83.265 29.3c.51 0 .97-.113 1.377-.34.408-.238.731-.572.97-1.003.237-.43.356-.93.356-1.496 0-.567-.119-1.065-.357-1.496a2.46 2.46 0 00-.969-.986 2.682 2.682 0 00-1.377-.357c-.51 0-.969.119-1.377.357a2.46 2.46 0 00-.969.986c-.238.43-.357.93-.357 1.496 0 .567.12 1.065.357 1.496.238.43.561.765.97 1.003.407.227.866.34 1.376.34zm11.314 1.819c-.918 0-1.745-.198-2.482-.595a4.416 4.416 0 01-1.734-1.649c-.408-.714-.612-1.519-.612-2.414 0-.895.204-1.694.612-2.397a4.416 4.416 0 011.734-1.649c.737-.397 1.564-.595 2.482-.595.93 0 1.763.198 2.5.595a4.297 4.297 0 011.716 1.649c.42.703.63 1.502.63 2.397 0 .895-.21 1.7-.63 2.414a4.297 4.297 0 01-1.717 1.649c-.737.397-1.57.595-2.499.595zm0-1.819c.782 0 1.428-.26 1.938-.782.51-.521.765-1.207.765-2.057 0-.85-.255-1.536-.765-2.057-.51-.521-1.156-.782-1.938-.782s-1.428.26-1.938.782c-.499.521-.748 1.207-.748 2.057 0 .85.25 1.536.748 2.057.51.521 1.156.782 1.938.782zm14.788-7.378L105.474 31h-2.193l-3.893-9.078h2.21l2.822 6.732 2.907-6.732h2.04zm.988 0h2.125V31h-2.125v-9.078zm1.071-1.496c-.385 0-.708-.119-.969-.357a1.223 1.223 0 01-.391-.918c0-.363.131-.663.391-.901.261-.25.584-.374.969-.374.386 0 .709.119.969.357.261.227.391.516.391.867 0 .374-.13.691-.391.952-.249.25-.572.374-.969.374zm7.668 10.693c-.94 0-1.785-.198-2.533-.595a4.392 4.392 0 01-1.751-1.649c-.419-.714-.629-1.519-.629-2.414 0-.895.21-1.694.629-2.397a4.425 4.425 0 011.734-1.649c.748-.397 1.598-.595 2.55-.595.896 0 1.678.181 2.346.544a3.52 3.52 0 011.53 1.564l-1.632.952a2.502 2.502 0 00-.986-.935 2.568 2.568 0 00-1.275-.323c-.793 0-1.45.26-1.972.782-.521.51-.782 1.196-.782 2.057s.255 1.553.765 2.074c.522.51 1.185.765 1.989.765.465 0 .89-.102 1.275-.306.397-.215.726-.533.986-.952l1.632.952a3.715 3.715 0 01-1.547 1.581c-.668.363-1.445.544-2.329.544zM48.6 73.5l2.625 4.65h-1.2l-2.7-4.675 4.575-4.7h1.275L48.6 73.5zm4.175 0l2.625 4.65h-1.2l-2.7-4.675 4.575-4.7h1.275L52.775 73.5zm16.323-9.85l-1.5 7.475h9.3l-.225 1.15h-9.3L65.823 80h-1.275l3.5-17.5h11.7l-.25 1.15h-10.4zm10.907 10.1c-.033.367-.05.642-.05.825 0 1.417.409 2.508 1.225 3.275.817.75 2.017 1.125 3.6 1.125.917 0 1.759-.15 2.525-.45.784-.317 1.434-.75 1.95-1.3l.576.875c-.584.633-1.334 1.125-2.25 1.475a7.93 7.93 0 01-2.9.525c-1.85 0-3.309-.483-4.376-1.45-1.05-.967-1.575-2.308-1.575-4.025 0-1.467.309-2.792.925-3.975.617-1.183 1.467-2.108 2.55-2.775 1.084-.683 2.3-1.025 3.65-1.025 1.7 0 3.05.483 4.05 1.45s1.5 2.3 1.5 4c0 .4-.05.883-.15 1.45h-11.25zm5.826-5.825c-1.417 0-2.642.442-3.675 1.325-1.017.883-1.684 2.058-2 3.525h10.05c.016-.15.025-.367.025-.65 0-1.317-.4-2.342-1.2-3.075-.8-.75-1.867-1.125-3.2-1.125zm3.15-6.05h1.875l-4.25 2.95H85.18l3.8-2.95zm22.966 4.975c1.467 0 2.592.367 3.375 1.1.783.717 1.175 1.725 1.175 3.025 0 .45-.05.942-.15 1.475L114.822 80h-1.25l1.525-7.55c.083-.383.125-.808.125-1.275 0-1.017-.3-1.8-.9-2.35-.6-.567-1.475-.85-2.625-.85-1.433 0-2.633.4-3.6 1.2-.95.783-1.575 1.925-1.875 3.425l-1.5 7.4h-1.25l1.525-7.55c.083-.383.125-.808.125-1.275 0-1.017-.3-1.8-.9-2.35-.6-.567-1.475-.85-2.625-.85-1.45 0-2.658.425-3.625 1.275-.967.833-1.608 2.05-1.925 3.65L94.622 80h-1.25l2.6-13.05h1.225l-.5 2.45c.617-.867 1.367-1.508 2.25-1.925.883-.417 1.875-.625 2.975-.625 1.2 0 2.167.258 2.9.775.733.5 1.217 1.217 1.45 2.15.65-.967 1.458-1.692 2.425-2.175.967-.5 2.05-.75 3.25-.75zm13.136 13.25c-1.767 0-3.175-.492-4.225-1.475-1.034-.983-1.55-2.3-1.55-3.95 0-1.483.316-2.817.95-4a7.319 7.319 0 012.675-2.8c1.133-.683 2.416-1.025 3.85-1.025 1.766 0 3.166.492 4.2 1.475 1.05.967 1.575 2.283 1.575 3.95 0 1.483-.325 2.825-.975 4.025a7.148 7.148 0 01-2.65 2.8c-1.134.667-2.417 1-3.85 1zm.1-1.125c1.166 0 2.208-.283 3.125-.85a5.99 5.99 0 002.2-2.35c.533-1.017.8-2.158.8-3.425 0-1.383-.409-2.458-1.225-3.225-.8-.767-1.934-1.15-3.4-1.15-1.167 0-2.217.292-3.15.875-.917.567-1.642 1.358-2.175 2.375-.534 1-.8 2.125-.8 3.375 0 1.383.4 2.458 1.2 3.225.816.767 1.958 1.15 3.425 1.15zm16.378-6.7l4.7 7.725h-1.45l-4.225-6.975-4.05 3.125-.775 3.85h-1.25l3.7-18.55h1.25l-2.6 13.075 9.725-7.575h1.825l-6.85 5.325zm9.234-5.325h1.25l-2.6 13.05h-1.25l2.6-13.05zm1.4-3.175a.917.917 0 01-.675-.275.89.89 0 01-.275-.65c0-.3.1-.558.3-.775.217-.217.483-.325.8-.325.267 0 .492.092.675.275.2.183.3.4.3.65 0 .317-.108.583-.325.8-.217.2-.483.3-.8.3zm10.819 3.075c1.7 0 3.066.492 4.1 1.475 1.033.967 1.55 2.283 1.55 3.95 0 1.483-.325 2.825-.975 4.025a7.148 7.148 0 01-2.65 2.8c-1.117.667-2.375 1-3.775 1-1.35 0-2.467-.283-3.35-.85-.867-.583-1.467-1.417-1.8-2.5l-1.625 8.1h-1.25l3.575-17.9h1.225l-.5 2.525a6.404 6.404 0 012.35-1.925c.933-.467 1.975-.7 3.125-.7zm-1.725 12.125c1.166 0 2.208-.283 3.125-.85a5.987 5.987 0 002.175-2.375c.533-1 .8-2.133.8-3.4 0-1.383-.409-2.458-1.225-3.225-.8-.767-1.934-1.15-3.4-1.15-1.167 0-2.217.283-3.15.85-.917.567-1.642 1.358-2.175 2.375-.534 1-.8 2.133-.8 3.4 0 1.383.408 2.458 1.225 3.225.816.767 1.958 1.15 3.425 1.15zm10.37-5.225c-.034.367-.05.642-.05.825 0 1.417.408 2.508 1.225 3.275.816.75 2.016 1.125 3.6 1.125.916 0 1.758-.15 2.525-.45.783-.317 1.433-.75 1.95-1.3l.575.875c-.584.633-1.334 1.125-2.25 1.475-.9.35-1.867.525-2.9.525-1.85 0-3.309-.483-4.375-1.45-1.05-.967-1.575-2.308-1.575-4.025 0-1.467.308-2.792.925-3.975.616-1.183 1.466-2.108 2.55-2.775 1.083-.683 2.3-1.025 3.65-1.025 1.7 0 3.05.483 4.05 1.45s1.5 2.3 1.5 4c0 .4-.05.883-.15 1.45h-11.25zm5.825-5.825c-1.417 0-2.642.442-3.675 1.325-1.017.883-1.684 2.058-2 3.525h10.05c.016-.15.025-.367.025-.65 0-1.317-.4-2.342-1.2-3.075-.8-.75-1.867-1.125-3.2-1.125zm3.15-6.05h1.875l-4.25 2.95h-1.425l3.8-2.95zm19.716-.425L196.65 80h-1.2l.5-2.55a6.588 6.588 0 01-2.375 1.95c-.933.467-1.975.7-3.125.7-1.7 0-3.066-.483-4.1-1.45-1.016-.983-1.525-2.308-1.525-3.975 0-1.483.317-2.817.95-4 .634-1.2 1.509-2.133 2.625-2.8 1.134-.683 2.4-1.025 3.8-1.025 1.35 0 2.467.292 3.35.875.884.583 1.484 1.417 1.8 2.5l1.75-8.775h1.25zm-9.65 17.525c1.167 0 2.209-.283 3.125-.85a5.976 5.976 0 002.2-2.35c.534-1.017.8-2.158.8-3.425 0-1.383-.408-2.458-1.225-3.225-.8-.767-1.933-1.15-3.4-1.15-1.166 0-2.216.292-3.15.875-.916.567-1.641 1.358-2.175 2.375-.533 1-.8 2.125-.8 3.375 0 1.383.4 2.458 1.2 3.225.817.767 1.959 1.15 3.425 1.15zm13.295-12.025h1.25l-2.6 13.05h-1.25l2.6-13.05zm1.4-3.175a.92.92 0 01-.675-.275.89.89 0 01-.275-.65c0-.3.1-.558.3-.775.217-.217.484-.325.8-.325.267 0 .492.092.675.275.2.183.3.4.3.65 0 .317-.108.583-.325.8-.216.2-.483.3-.8.3zm16.244 3.175l-2.6 13.05h-1.2l.5-2.55a6.588 6.588 0 01-2.375 1.95c-.933.467-1.975.7-3.125.7-1.7 0-3.067-.483-4.1-1.45-1.017-.983-1.525-2.308-1.525-3.975 0-1.483.317-2.817.95-4 .633-1.2 1.508-2.133 2.625-2.8 1.133-.683 2.4-1.025 3.8-1.025 1.35 0 2.467.292 3.35.875s1.483 1.408 1.8 2.475l.65-3.25h1.25zm-8.55 12.025c1.167 0 2.208-.283 3.125-.85a5.983 5.983 0 002.2-2.35c.533-1.017.8-2.158.8-3.425 0-1.383-.408-2.458-1.225-3.225-.8-.767-1.933-1.15-3.4-1.15-1.167 0-2.217.292-3.15.875-.917.567-1.642 1.358-2.175 2.375-.533 1-.8 2.125-.8 3.375 0 1.383.4 2.458 1.2 3.225.817.767 1.958 1.15 3.425 1.15zm21.166-5.5l-4.575 4.675h-1.25l4.55-4.75-2.6-4.625h1.175l2.7 4.7zm4.175 0l-4.575 4.675h-1.25l4.55-4.75-2.6-4.625h1.175l2.7 4.7z" fill="#292626"/></svg>