<svg width="336" height="133" viewBox="0 0 336 133" fill="none" xmlns="http://www.w3.org/2000/svg">
<rect width="336" height="133" rx="22" fill="#B9D7EA"/>
<path d="M12.808 13.953V17.574H18.554V19.444H12.808V24H10.598V12.1H19.285V13.953H12.808ZM21.0822 12.1H23.2922V22.13H29.5142V24H21.0822V12.1ZM39.844 22.147V24H30.919V12.1H39.606V13.953H33.129V17.047H38.875V18.866H33.129V22.147H39.844ZM47.0846 24.17C45.4413 24.17 44.1606 23.711 43.2426 22.793C42.3246 21.8637 41.8656 20.5377 41.8656 18.815V12.1H44.0756V18.73C44.0756 21.0647 45.0843 22.232 47.1016 22.232C49.1076 22.232 50.1106 21.0647 50.1106 18.73V12.1H52.2866V18.815C52.2866 20.5377 51.8276 21.8637 50.9096 22.793C50.003 23.711 48.728 24.17 47.0846 24.17ZM62.8277 24L60.3967 20.515C60.2947 20.5263 60.1417 20.532 59.9377 20.532H57.2517V24H55.0417V12.1H59.9377C60.969 12.1 61.8644 12.27 62.6237 12.61C63.3944 12.95 63.9837 13.4373 64.3917 14.072C64.7997 14.7067 65.0037 15.4603 65.0037 16.333C65.0037 17.2283 64.7827 17.999 64.3407 18.645C63.91 19.291 63.2867 19.7727 62.4707 20.09L65.2077 24H62.8277ZM62.7767 16.333C62.7767 15.5737 62.5274 14.99 62.0287 14.582C61.53 14.174 60.799 13.97 59.8357 13.97H57.2517V18.713H59.8357C60.799 18.713 61.53 18.509 62.0287 18.101C62.5274 17.6817 62.7767 17.0923 62.7767 16.333ZM76.0613 22.147V24H67.1363V12.1H75.8233V13.953H69.3463V17.047H75.0923V18.866H69.3463V22.147H76.0613ZM88.759 12.1V24H86.94L80.378 15.942V24H78.185V12.1H80.004L86.566 20.158V12.1H88.759ZM94.0217 13.97H90.0777V12.1H100.176V13.97H96.2317V24H94.0217V13.97ZM107.705 24.17C106.946 24.17 106.243 24.0227 105.597 23.728C104.963 23.422 104.441 22.997 104.033 22.453L105.291 20.94C105.949 21.8467 106.736 22.3 107.654 22.3C108.89 22.3 109.507 21.569 109.507 20.107V13.953H105.274V12.1H111.717V19.988C111.717 21.382 111.377 22.4303 110.697 23.133C110.017 23.8243 109.02 24.17 107.705 24.17ZM123.062 14.922V24H121.039V22.844C120.699 23.252 120.274 23.5693 119.764 23.796C119.254 24.0113 118.705 24.119 118.115 24.119C116.903 24.119 115.945 23.7847 115.242 23.116C114.551 22.436 114.205 21.433 114.205 20.107V14.922H116.33V19.818C116.33 20.634 116.512 21.246 116.874 21.654C117.248 22.0507 117.775 22.249 118.455 22.249C119.215 22.249 119.815 22.0167 120.257 21.552C120.711 21.076 120.937 20.396 120.937 19.512V14.922H123.062ZM125.505 11.386H127.63V24H125.505V11.386ZM130.079 14.922H132.204V24H130.079V14.922ZM131.15 13.426C130.764 13.426 130.441 13.307 130.181 13.069C129.92 12.8197 129.79 12.5137 129.79 12.151C129.79 11.7883 129.92 11.488 130.181 11.25C130.441 11.0007 130.764 10.876 131.15 10.876C131.535 10.876 131.858 10.995 132.119 11.233C132.379 11.4597 132.51 11.7487 132.51 12.1C132.51 12.474 132.379 12.7913 132.119 13.052C131.869 13.3013 131.546 13.426 131.15 13.426ZM143.187 19.512C143.187 19.6593 143.175 19.869 143.153 20.141H136.03C136.154 20.8097 136.477 21.3423 136.999 21.739C137.531 22.1243 138.189 22.317 138.971 22.317C139.968 22.317 140.79 21.9883 141.436 21.331L142.575 22.64C142.167 23.1273 141.651 23.4957 141.028 23.745C140.404 23.9943 139.702 24.119 138.92 24.119C137.922 24.119 137.044 23.9207 136.285 23.524C135.525 23.1273 134.936 22.5777 134.517 21.875C134.109 21.161 133.905 20.3563 133.905 19.461C133.905 18.577 134.103 17.7837 134.5 17.081C134.908 16.367 135.469 15.8117 136.183 15.415C136.897 15.0183 137.701 14.82 138.597 14.82C139.481 14.82 140.268 15.0183 140.96 15.415C141.662 15.8003 142.206 16.35 142.592 17.064C142.988 17.7667 143.187 18.5827 143.187 19.512ZM138.597 16.52C137.917 16.52 137.339 16.724 136.863 17.132C136.398 17.5287 136.115 18.0613 136.013 18.73H141.164C141.073 18.0727 140.795 17.54 140.331 17.132C139.866 16.724 139.288 16.52 138.597 16.52ZM150.039 14.82C151.184 14.82 152.102 15.1543 152.793 15.823C153.484 16.4917 153.83 17.4833 153.83 18.798V24H151.705V19.07C151.705 18.2767 151.518 17.6817 151.144 17.285C150.77 16.877 150.237 16.673 149.546 16.673C148.764 16.673 148.146 16.911 147.693 17.387C147.24 17.8517 147.013 18.526 147.013 19.41V24H144.888V14.922H146.911V16.095C147.262 15.6757 147.704 15.3583 148.237 15.143C148.77 14.9277 149.37 14.82 150.039 14.82Z" fill="#292626"/>
<path d="M48.6 74.5L51.225 79.15H50.025L47.325 74.475L51.9 69.775H53.175L48.6 74.5ZM52.775 74.5L55.4 79.15H54.2L51.5 74.475L56.075 69.775H57.35L52.775 74.5ZM68.0479 63.5H74.5479C76.2645 63.5 77.7312 63.7917 78.9479 64.375C80.1812 64.9583 81.1145 65.7833 81.7479 66.85C82.3812 67.9167 82.6979 69.1583 82.6979 70.575C82.6979 72.5917 82.2479 74.3917 81.3479 75.975C80.4479 77.5583 79.1729 78.7917 77.5229 79.675C75.8729 80.5583 73.9645 81 71.7979 81H64.5479L68.0479 63.5ZM71.8729 79.85C73.7895 79.85 75.4645 79.4583 76.8979 78.675C78.3479 77.8917 79.4562 76.8 80.2229 75.4C81.0062 74 81.3979 72.4083 81.3979 70.625C81.3979 68.775 80.8062 67.3167 79.6229 66.25C78.4395 65.1833 76.6979 64.65 74.3979 64.65H69.0979L66.0479 79.85H71.8729ZM86.8771 67.95H88.1271L85.5271 81H84.2771L86.8771 67.95ZM88.2771 64.775C88.0105 64.775 87.7855 64.6833 87.6021 64.5C87.4188 64.3167 87.3271 64.1 87.3271 63.85C87.3271 63.55 87.4271 63.2917 87.6271 63.075C87.8438 62.8583 88.1105 62.75 88.4271 62.75C88.6938 62.75 88.9188 62.8417 89.1021 63.025C89.3021 63.2083 89.4021 63.425 89.4021 63.675C89.4021 63.9917 89.2938 64.2583 89.0771 64.475C88.8605 64.675 88.5938 64.775 88.2771 64.775ZM103.396 67.95L94.9207 81H93.6457L90.3457 67.95H91.6207L94.5207 79.625L102.071 67.95H103.396ZM116.863 67.95L114.263 81H113.063L113.563 78.45C112.929 79.2833 112.138 79.9333 111.188 80.4C110.254 80.8667 109.213 81.1 108.063 81.1C106.363 81.1 104.996 80.6167 103.963 79.65C102.946 78.6667 102.438 77.3417 102.438 75.675C102.438 74.1917 102.754 72.8583 103.388 71.675C104.021 70.475 104.896 69.5417 106.013 68.875C107.146 68.1917 108.413 67.85 109.813 67.85C111.163 67.85 112.279 68.1417 113.163 68.725C114.046 69.3083 114.646 70.1333 114.963 71.2L115.613 67.95H116.863ZM108.313 79.975C109.479 79.975 110.521 79.6917 111.438 79.125C112.371 78.5583 113.104 77.775 113.638 76.775C114.171 75.7583 114.438 74.6167 114.438 73.35C114.438 71.9667 114.029 70.8917 113.213 70.125C112.413 69.3583 111.279 68.975 109.813 68.975C108.646 68.975 107.596 69.2667 106.663 69.85C105.746 70.4167 105.021 71.2083 104.488 72.225C103.954 73.225 103.688 74.35 103.688 75.6C103.688 76.9833 104.088 78.0583 104.888 78.825C105.704 79.5917 106.846 79.975 108.313 79.975ZM129.904 64.65L128.404 72.125H137.704L137.479 73.275H128.179L126.629 81H125.354L128.854 63.5H140.554L140.304 64.65H129.904ZM140.811 74.75C140.778 75.1167 140.761 75.3917 140.761 75.575C140.761 76.9917 141.169 78.0833 141.986 78.85C142.803 79.6 144.003 79.975 145.586 79.975C146.503 79.975 147.344 79.825 148.111 79.525C148.894 79.2083 149.544 78.775 150.061 78.225L150.636 79.1C150.053 79.7333 149.303 80.225 148.386 80.575C147.486 80.925 146.519 81.1 145.486 81.1C143.636 81.1 142.178 80.6167 141.111 79.65C140.061 78.6833 139.536 77.3417 139.536 75.625C139.536 74.1583 139.844 72.8333 140.461 71.65C141.078 70.4667 141.928 69.5417 143.011 68.875C144.094 68.1917 145.311 67.85 146.661 67.85C148.361 67.85 149.711 68.3333 150.711 69.3C151.711 70.2667 152.211 71.6 152.211 73.3C152.211 73.7 152.161 74.1833 152.061 74.75H140.811ZM146.636 68.925C145.219 68.925 143.994 69.3667 142.961 70.25C141.944 71.1333 141.278 72.3083 140.961 73.775H151.011C151.028 73.625 151.036 73.4083 151.036 73.125C151.036 71.8083 150.636 70.7833 149.836 70.05C149.036 69.3 147.969 68.925 146.636 68.925ZM172.753 67.85C174.219 67.85 175.344 68.2167 176.128 68.95C176.911 69.6667 177.303 70.675 177.303 71.975C177.303 72.425 177.253 72.9167 177.153 73.45L175.628 81H174.378L175.903 73.45C175.986 73.0667 176.028 72.6417 176.028 72.175C176.028 71.1583 175.728 70.375 175.128 69.825C174.528 69.2583 173.653 68.975 172.503 68.975C171.069 68.975 169.869 69.375 168.903 70.175C167.953 70.9583 167.328 72.1 167.028 73.6L165.528 81H164.278L165.803 73.45C165.886 73.0667 165.928 72.6417 165.928 72.175C165.928 71.1583 165.628 70.375 165.028 69.825C164.428 69.2583 163.553 68.975 162.403 68.975C160.953 68.975 159.744 69.4 158.778 70.25C157.811 71.0833 157.169 72.3 156.853 73.9L155.428 81H154.178L156.778 67.95H158.003L157.503 70.4C158.119 69.5333 158.869 68.8917 159.753 68.475C160.636 68.0583 161.628 67.85 162.728 67.85C163.928 67.85 164.894 68.1083 165.628 68.625C166.361 69.125 166.844 69.8417 167.078 70.775C167.728 69.8083 168.536 69.0833 169.503 68.6C170.469 68.1 171.553 67.85 172.753 67.85ZM182.889 67.95H184.139L181.539 81H180.289L182.889 67.95ZM184.289 64.775C184.022 64.775 183.797 64.6833 183.614 64.5C183.431 64.3167 183.339 64.1 183.339 63.85C183.339 63.55 183.439 63.2917 183.639 63.075C183.856 62.8583 184.122 62.75 184.439 62.75C184.706 62.75 184.931 62.8417 185.114 63.025C185.314 63.2083 185.414 63.425 185.414 63.675C185.414 63.9917 185.306 64.2583 185.089 64.475C184.872 64.675 184.606 64.775 184.289 64.775ZM195.032 67.85C196.516 67.85 197.657 68.225 198.457 68.975C199.257 69.7083 199.657 70.725 199.657 72.025C199.657 72.475 199.607 72.95 199.507 73.45L198.007 81H196.757L198.257 73.45C198.341 73.0667 198.382 72.65 198.382 72.2C198.382 71.1667 198.066 70.375 197.432 69.825C196.816 69.2583 195.907 68.975 194.707 68.975C193.207 68.975 191.957 69.4 190.957 70.25C189.957 71.0833 189.299 72.3 188.982 73.9L187.557 81H186.307L188.907 67.95H190.132L189.632 70.425C190.249 69.5583 191.016 68.9167 191.932 68.5C192.866 68.0667 193.899 67.85 195.032 67.85ZM205.229 67.95H206.479L203.879 81H202.629L205.229 67.95ZM206.629 64.775C206.362 64.775 206.137 64.6833 205.954 64.5C205.77 64.3167 205.679 64.1 205.679 63.85C205.679 63.55 205.779 63.2917 205.979 63.075C206.195 62.8583 206.462 62.75 206.779 62.75C207.045 62.75 207.27 62.8417 207.454 63.025C207.654 63.2083 207.754 63.425 207.754 63.675C207.754 63.9917 207.645 64.2583 207.429 64.475C207.212 64.675 206.945 64.775 206.629 64.775ZM212.222 81.1C211.206 81.1 210.231 80.95 209.297 80.65C208.381 80.3333 207.664 79.9333 207.147 79.45L207.822 78.475C208.306 78.9417 208.947 79.3167 209.747 79.6C210.564 79.8667 211.422 80 212.322 80C213.672 80 214.714 79.7667 215.447 79.3C216.197 78.8167 216.572 78.15 216.572 77.3C216.572 76.8167 216.422 76.4333 216.122 76.15C215.822 75.8667 215.456 75.6583 215.022 75.525C214.589 75.375 213.989 75.2167 213.222 75.05C212.322 74.8667 211.589 74.675 211.022 74.475C210.472 74.275 210.006 73.9667 209.622 73.55C209.239 73.1167 209.047 72.5333 209.047 71.8C209.047 70.6 209.539 69.6417 210.522 68.925C211.522 68.2083 212.847 67.85 214.497 67.85C215.331 67.85 216.139 67.9667 216.922 68.2C217.706 68.4167 218.331 68.725 218.797 69.125L218.222 70.1C217.739 69.7167 217.156 69.4333 216.472 69.25C215.806 69.05 215.114 68.95 214.397 68.95C213.131 68.95 212.122 69.2 211.372 69.7C210.639 70.2 210.272 70.8583 210.272 71.675C210.272 72.175 210.422 72.575 210.722 72.875C211.022 73.1583 211.397 73.375 211.847 73.525C212.314 73.675 212.931 73.8333 213.697 74C214.597 74.1833 215.314 74.375 215.847 74.575C216.397 74.7583 216.864 75.0583 217.247 75.475C217.631 75.8917 217.822 76.4583 217.822 77.175C217.822 78.3917 217.314 79.35 216.297 80.05C215.281 80.75 213.922 81.1 212.222 81.1ZM222.361 77.225C222.294 77.5417 222.261 77.85 222.261 78.15C222.261 79.4 222.927 80.025 224.261 80.025C225.061 80.025 225.769 79.7833 226.386 79.3L226.761 80.225C226.044 80.8083 225.111 81.1 223.961 81.1C223.027 81.1 222.294 80.8583 221.761 80.375C221.244 79.875 220.986 79.1917 220.986 78.325C220.986 77.975 221.019 77.6417 221.086 77.325L222.761 69.025H220.336L220.536 67.95H222.961L223.536 65.1H224.786L224.211 67.95H228.361L228.161 69.025H224.011L222.361 77.225ZM243.308 67.95L240.708 81H239.508L240.008 78.45C239.374 79.2833 238.583 79.9333 237.633 80.4C236.699 80.8667 235.658 81.1 234.508 81.1C232.808 81.1 231.441 80.6167 230.408 79.65C229.391 78.6667 228.883 77.3417 228.883 75.675C228.883 74.1917 229.199 72.8583 229.833 71.675C230.466 70.475 231.341 69.5417 232.458 68.875C233.591 68.1917 234.858 67.85 236.258 67.85C237.608 67.85 238.724 68.1417 239.608 68.725C240.491 69.3083 241.091 70.1333 241.408 71.2L242.058 67.95H243.308ZM234.758 79.975C235.924 79.975 236.966 79.6917 237.883 79.125C238.816 78.5583 239.549 77.775 240.083 76.775C240.616 75.7583 240.883 74.6167 240.883 73.35C240.883 71.9667 240.474 70.8917 239.658 70.125C238.858 69.3583 237.724 68.975 236.258 68.975C235.091 68.975 234.041 69.2667 233.108 69.85C232.191 70.4167 231.466 71.2083 230.933 72.225C230.399 73.225 230.133 74.35 230.133 75.6C230.133 76.9833 230.533 78.0583 231.333 78.825C232.149 79.5917 233.291 79.975 234.758 79.975ZM255.924 74.475L251.349 79.15H250.099L254.649 74.4L252.049 69.775H253.224L255.924 74.475ZM260.099 74.475L255.524 79.15H254.274L258.824 74.4L256.224 69.775H257.399L260.099 74.475Z" fill="#292626"/>
</svg>
