<svg width="88" height="86" viewBox="0 0 88 86" fill="none" xmlns="http://www.w3.org/2000/svg"><path d="M12.653 28.783c8.769-4.41 12.7-7.244 13.57-8.11 5.155-6.739 12.566-8.398 15.626-8.385 10.205-2.721 18.54 4.917 21.432 9.077 4.888.702 8.008 1.75 10.55 5.878 2.034 3.302-.18 10.424-1.541 13.573.69.317 4.557 3.38 4.31 6.998-.198 2.894-3.228 8.424-4.718 10.827-2.43 2.486-7.077 3.78-9.098 4.117-8.722 11.56-19.007 12.944-27.886 10.986-7.103-1.566-11.55-10.047-12.887-14.092-2.142-.264-5.946-1.618-7.58-2.261-2.519-.232-4.588-10.129-5.308-15.048-.907-5.976 1.975-11.53 3.53-13.56z" fill="#AFB0B5"/><path d="M24.423 37.3c-1.58-4.175-.586-5.91.109-6.255.332-.263 1.974-1.215 5.233 2.47 2.608 2.948 1.208 5.444.182 6.324-1.182.893-3.943 1.636-5.524-2.539zM54.193 42.232c1.39-4.816 3.579-5.174 4.5-4.75 1.27.454.83 6.17-1.793 7.538-2.098 1.095-2.68-1.402-2.707-2.788zM41.301 58.5c2.527-6.506 6.492-5.4 8.158-4.034 1.746.905 1.346 3.792.927 5.122-2.429 2.486-4.84 3.394-5.742 3.537-2.167 1.17-5.87 1.883-3.343-4.624z" fill="#777983"/></svg>