<svg width="99" height="114" viewBox="0 0 99 114" fill="none" xmlns="http://www.w3.org/2000/svg"><path d="M20.21 95.592c-4.077-12.538-7.042-18.332-8.014-19.663-7.903-8.213-8.603-18.388-7.965-22.45-1.543-14.101 10.29-23.618 16.4-26.614 1.924-6.348 3.95-10.279 9.945-12.816 4.797-2.03 13.805 2.354 17.71 4.8.56-.852 5.413-5.365 10.166-4.303 3.803.85 10.53 5.995 13.418 8.46 2.808 3.73 3.584 10.165 3.621 12.915 13.58 13.926 13.33 27.864 8.93 39.256-3.52 9.113-15.683 13.298-21.325 14.251-.786 2.792-3.355 7.568-4.541 9.607-.818 3.297-14.379 4.037-21.057 3.994-8.118-.007-14.907-4.961-17.288-7.437z" fill="#AFB0B5"/><path d="M42.62 88.258c-5.864 1.253-7.965-.42-8.282-1.412-.283-.496-1.214-2.868 4.34-6.448 4.444-2.865 7.474-.5 8.433 1.041.947 1.752 1.373 5.567-4.49 6.82zM55.209 49.732c-6.113-2.823-6.145-5.802-5.396-6.938.862-1.594 8.363.15 9.647 3.91 1.027 3.007-2.406 3.272-4.251 3.028zM62.798 40.065c-8.127-4.676-5.854-9.716-3.702-11.651 1.556-2.135 5.307-1.017 6.989-.192 2.808 3.73 3.524 7.115 3.53 8.342 1.114 3.115 1.31 8.176-6.817 3.5z" fill="#777983"/></svg>