<svg width="58" height="55" viewBox="0 0 58 55" fill="none" xmlns="http://www.w3.org/2000/svg"><path d="M48.515 40.917c-6.566 1.847-9.623 3.26-10.33 3.736-4.41 3.915-9.685 4.066-11.771 3.652-7.323.505-11.997-5.81-13.42-9.03-3.241-1.126-5.231-2.255-6.419-5.407-.95-2.522 1.503-7.087 2.849-9.055-.43-.308-2.662-2.91-2.014-5.345.518-1.948 3.317-5.32 4.652-6.761 1.986-1.375 5.328-1.643 6.751-1.605 7.48-6.731 14.68-6.314 20.479-3.803 4.638 2.008 6.55 8.383 6.925 11.32 1.428.464 3.843 1.89 4.873 2.546 1.687.491 1.789 7.517 1.628 10.968-.171 4.197-2.873 7.604-4.203 8.784z" fill="#AFB0B5"/><path d="M38.784 35.393c.526 3.058-.382 4.11-.901 4.253-.262.136-1.508.568-3.244-2.378-1.389-2.356-.103-3.874.713-4.338.925-.453 2.907-.594 3.432 2.463zM19.128 28.087c-1.585 3.102-3.126 3.056-3.698 2.646-.806-.479.25-4.32 2.22-4.906 1.577-.469 1.643 1.311 1.478 2.26zM26.592 18.73c-2.586 4.104-5.144 2.825-6.1 1.672-1.071-.849-.416-2.765.046-3.617 1.986-1.375 3.751-1.675 4.385-1.653 1.634-.51 4.254-.507 1.669 3.598z" fill="#777983"/></svg>