<svg width="77" height="87" viewBox="0 0 77 87" fill="none" xmlns="http://www.w3.org/2000/svg"><path d="M73.266 17.873c-.767 12.39-.175 18.491.216 19.993 4.08 9.927 1.172 19.08-.792 22.416-3.528 12.884-17.185 17.124-23.572 17.634-3.881 4.893-7.015 7.635-13.144 7.783-4.903.118-11.274-6.838-13.847-10.331-.787.552-6.598 2.826-10.393.25-3.036-2.06-7.147-8.892-8.823-12.052-1.17-4.238.377-10.14 1.296-12.563C-2.866 34.11 2.174 21.99 9.97 13.535c6.236-6.763 18.336-6.22 23.607-5.103 1.654-2.173 5.557-5.466 7.301-6.842 1.857-2.604 13.989 1.44 19.822 3.788 7.108 2.815 11.34 9.503 12.567 12.495z" fill="#AFB0B5"/><path d="M57.86 24.36c5.568.933 6.83 3.124 6.764 4.104.076.53.071 2.93-6.032 4.145-4.883.97-6.718-2.15-7.025-3.83-.223-1.861.724-5.35 6.293-4.418zM33.505 53.745c4.377 4.587 3.374 7.207 2.325 7.943-1.307 1.098-7.272-3.024-7.096-6.761.141-2.99 3.24-2.034 4.771-1.182zM16.874 38.813c5.5 6.906 1.765 10.534-.79 11.484-2.1 1.331-5-.945-6.186-2.25-1.169-4.238-.624-7.45-.206-8.527.103-3.114 1.683-7.613 7.182-.707z" fill="#777983"/></svg>