<svg width="73" height="83" viewBox="0 0 73 83" fill="none" xmlns="http://www.w3.org/2000/svg"><path d="M71.792 41.14c-5.802 7.004-8.085 10.871-8.501 11.93-1.87 7.637-7.542 11.801-10.144 12.928-7.65 6.105-17.565 2.721-21.566.266-4.41 1.222-7.448 1.493-11.14-1.065-2.954-2.046-3.724-8.914-3.74-12.093-.704-.013-5.125-1.175-6.26-4.337-.91-2.53-.394-8.35-.023-10.943 1.138-3.014 4.6-5.841 6.19-6.878 3.104-13.055 11.32-18.055 19.583-19.695 6.61-1.313 13.54 4.232 16.178 7.168 1.917-.573 5.649-.839 7.275-.9 2.224-.74 7.66 6.89 10.1 10.798 2.993 4.734 2.612 10.52 2.048 12.821z" fill="#AFB0B5"/><path d="M59.245 30.786c2.895 2.956 2.696 4.797 2.235 5.349-.185.347-1.224 1.766-5.361-.15-3.31-1.532-3.05-4.171-2.506-5.3.672-1.197 2.738-2.854 5.632.101zM32.145 37.671c.61 4.605-1.114 5.723-2.052 5.706-1.248.086-3-4.93-1.283-7.066 1.374-1.709 2.796.195 3.335 1.36zM23.709 36.816c.275 6.463-3.502 6.999-5.424 6.459-1.818-.12-2.552-2.718-2.692-4.003 1.137-3.013 2.846-4.68 3.559-5.137 1.404-1.799 4.282-3.78 4.557 2.681z" fill="#777983"/></svg>