<svg width="52" height="55" viewBox="0 0 52 55" fill="none" xmlns="http://www.w3.org/2000/svg"><path d="M13.44 45.939c-1.836-6.139-3.209-8.989-3.666-9.647-3.744-4.082-3.966-9.034-3.609-11-.586-6.87 5.275-11.356 8.278-12.74 1.008-3.062 2.038-4.949 4.98-6.112 2.355-.93 6.68 1.304 8.55 2.538.282-.407 2.692-2.544 4.989-1.972 1.838.457 5.046 3.035 6.42 4.267 1.322 1.844 1.624 4.98 1.61 6.316 6.436 6.924 6.154 13.693 3.883 19.177-1.816 4.387-7.775 6.28-10.527 6.677-.414 1.347-1.718 3.638-2.318 4.615-.436 1.592-7.033 1.794-10.277 1.696-3.944-.098-7.186-2.584-8.313-3.815z" fill="#AFB0B5"/><path d="M20.449 41.733c-2.17.41-2.93-.225-3.038-.593-.1-.185-.422-1.067 1.655-2.337 1.662-1.015 2.757-.118 3.097.458.333.653.456 2.062-1.714 2.472zM25.424 27.656c-2.227-1.093-2.212-2.19-1.926-2.602.331-.58 3.078.129 3.518 1.524.352 1.117-.915 1.184-1.592 1.078zM30.141 21.333c-5.743-3.313-3.954-6.826-2.342-8.169 1.186-1.484 3.867-.683 5.06-.097 1.923 2.624 2.344 4.996 2.314 5.854.715 2.184.711 5.725-5.032 2.412z" fill="#777983"/></svg>