<svg width="336" height="115" viewBox="0 0 336 115" fill="none" xmlns="http://www.w3.org/2000/svg">
<rect width="336" height="115" rx="22" fill="#B9D7EA"/>
<path d="M11.598 15.1H16.8C18.0693 15.1 19.197 15.3493 20.183 15.848C21.169 16.3353 21.934 17.0323 22.478 17.939C23.022 18.8343 23.294 19.8713 23.294 21.05C23.294 22.2287 23.022 23.2713 22.478 24.178C21.934 25.0733 21.169 25.7703 20.183 26.269C19.197 26.7563 18.0693 27 16.8 27H11.598V15.1ZM16.698 25.13C17.5707 25.13 18.3357 24.9657 18.993 24.637C19.6617 24.297 20.1717 23.821 20.523 23.209C20.8857 22.5857 21.067 21.866 21.067 21.05C21.067 20.234 20.8857 19.52 20.523 18.908C20.1717 18.2847 19.6617 17.8087 18.993 17.48C18.3357 17.14 17.5707 16.97 16.698 16.97H13.808V25.13H16.698ZM32.8549 24.246H26.9049L25.7319 27H23.4539L28.8089 15.1H30.9849L36.3569 27H34.0449L32.8549 24.246ZM32.1239 22.512L29.8799 17.31L27.6529 22.512H32.1239ZM45.9623 20.812C46.6196 21.0273 47.141 21.39 47.5263 21.9C47.9116 22.3987 48.1043 23.022 48.1043 23.77C48.1043 24.8013 47.7076 25.6003 46.9143 26.167C46.121 26.7223 44.965 27 43.4463 27H37.5303V15.1H43.1063C44.5116 15.1 45.594 15.3777 46.3533 15.933C47.1126 16.477 47.4923 17.2307 47.4923 18.194C47.4923 18.7833 47.3563 19.3047 47.0843 19.758C46.8123 20.2113 46.4383 20.5627 45.9623 20.812ZM39.7403 16.834V20.115H42.8683C43.639 20.115 44.2283 19.979 44.6363 19.707C45.0556 19.4237 45.2653 19.0157 45.2653 18.483C45.2653 17.939 45.0556 17.531 44.6363 17.259C44.2283 16.9757 43.639 16.834 42.8683 16.834H39.7403ZM43.3103 25.266C45.0216 25.266 45.8773 24.6937 45.8773 23.549C45.8773 22.4043 45.0216 21.832 43.3103 21.832H39.7403V25.266H43.3103ZM55.6819 27.17C54.4693 27.17 53.3756 26.9093 52.4009 26.388C51.4263 25.8553 50.6613 25.1243 50.1059 24.195C49.5506 23.2543 49.2729 22.206 49.2729 21.05C49.2729 19.894 49.5506 18.8513 50.1059 17.922C50.6613 16.9813 51.4263 16.2503 52.4009 15.729C53.3756 15.1963 54.4693 14.93 55.6819 14.93C56.8946 14.93 57.9883 15.1963 58.9629 15.729C59.9376 16.2503 60.7026 16.9757 61.2579 17.905C61.8133 18.8343 62.0909 19.8827 62.0909 21.05C62.0909 22.2173 61.8133 23.2657 61.2579 24.195C60.7026 25.1243 59.9376 25.8553 58.9629 26.388C57.9883 26.9093 56.8946 27.17 55.6819 27.17ZM55.6819 25.232C56.4753 25.232 57.1893 25.0563 57.8239 24.705C58.4586 24.3423 58.9573 23.8437 59.3199 23.209C59.6826 22.563 59.8639 21.8433 59.8639 21.05C59.8639 20.2567 59.6826 19.5427 59.3199 18.908C58.9573 18.262 58.4586 17.7633 57.8239 17.412C57.1893 17.0493 56.4753 16.868 55.6819 16.868C54.8886 16.868 54.1746 17.0493 53.5399 17.412C52.9053 17.7633 52.4066 18.262 52.0439 18.908C51.6813 19.5427 51.4999 20.2567 51.4999 21.05C51.4999 21.8433 51.6813 22.563 52.0439 23.209C52.4066 23.8437 52.9053 24.3423 53.5399 24.705C54.1746 25.0563 54.8886 25.232 55.6819 25.232ZM69.2105 27.17C67.5671 27.17 66.2865 26.711 65.3685 25.793C64.4505 24.8637 63.9915 23.5377 63.9915 21.815V15.1H66.2015V21.73C66.2015 24.0647 67.2101 25.232 69.2275 25.232C71.2335 25.232 72.2365 24.0647 72.2365 21.73V15.1H74.4125V21.815C74.4125 23.5377 73.9535 24.8637 73.0355 25.793C72.1288 26.711 70.8538 27.17 69.2105 27.17ZM85.5995 20.812C86.2569 21.0273 86.7782 21.39 87.1635 21.9C87.5489 22.3987 87.7415 23.022 87.7415 23.77C87.7415 24.8013 87.3449 25.6003 86.5515 26.167C85.7582 26.7223 84.6022 27 83.0835 27H77.1675V15.1H82.7435C84.1489 15.1 85.2312 15.3777 85.9905 15.933C86.7499 16.477 87.1295 17.2307 87.1295 18.194C87.1295 18.7833 86.9935 19.3047 86.7215 19.758C86.4495 20.2113 86.0755 20.5627 85.5995 20.812ZM79.3775 16.834V20.115H82.5055C83.2762 20.115 83.8655 19.979 84.2735 19.707C84.6929 19.4237 84.9025 19.0157 84.9025 18.483C84.9025 17.939 84.6929 17.531 84.2735 17.259C83.8655 16.9757 83.2762 16.834 82.5055 16.834H79.3775ZM82.9475 25.266C84.6589 25.266 85.5145 24.6937 85.5145 23.549C85.5145 22.4043 84.6589 21.832 82.9475 21.832H79.3775V25.266H82.9475ZM105.049 27L105.032 19.112L101.122 25.64H100.136L96.2264 19.214V27H94.1184V15.1H95.9374L100.663 22.988L105.304 15.1H107.123L107.14 27H105.049ZM113.891 27.119C112.973 27.119 112.145 26.9207 111.409 26.524C110.672 26.1273 110.094 25.5777 109.675 24.875C109.267 24.161 109.063 23.3563 109.063 22.461C109.063 21.5657 109.267 20.7667 109.675 20.064C110.094 19.3613 110.672 18.8117 111.409 18.415C112.145 18.0183 112.973 17.82 113.891 17.82C114.82 17.82 115.653 18.0183 116.39 18.415C117.126 18.8117 117.699 19.3613 118.107 20.064C118.526 20.7667 118.736 21.5657 118.736 22.461C118.736 23.3563 118.526 24.161 118.107 24.875C117.699 25.5777 117.126 26.1273 116.39 26.524C115.653 26.9207 114.82 27.119 113.891 27.119ZM113.891 25.3C114.673 25.3 115.319 25.0393 115.829 24.518C116.339 23.9967 116.594 23.311 116.594 22.461C116.594 21.611 116.339 20.9253 115.829 20.404C115.319 19.8827 114.673 19.622 113.891 19.622C113.109 19.622 112.463 19.8827 111.953 20.404C111.454 20.9253 111.205 21.611 111.205 22.461C111.205 23.311 111.454 23.9967 111.953 24.518C112.463 25.0393 113.109 25.3 113.891 25.3ZM125.579 17.82C126.723 17.82 127.641 18.1543 128.333 18.823C129.024 19.4917 129.37 20.4833 129.37 21.798V27H127.245V22.07C127.245 21.2767 127.058 20.6817 126.684 20.285C126.31 19.877 125.777 19.673 125.086 19.673C124.304 19.673 123.686 19.911 123.233 20.387C122.779 20.8517 122.553 21.526 122.553 22.41V27H120.428V14.386H122.553V18.976C122.904 18.602 123.335 18.3187 123.845 18.126C124.366 17.922 124.944 17.82 125.579 17.82ZM135.193 17.82C136.531 17.82 137.551 18.143 138.253 18.789C138.967 19.4237 139.324 20.387 139.324 21.679V27H137.318V25.895C137.058 26.2917 136.684 26.5977 136.196 26.813C135.72 27.017 135.142 27.119 134.462 27.119C133.782 27.119 133.187 27.0057 132.677 26.779C132.167 26.541 131.771 26.218 131.487 25.81C131.215 25.3907 131.079 24.9203 131.079 24.399C131.079 23.583 131.38 22.9313 131.98 22.444C132.592 21.9453 133.55 21.696 134.853 21.696H137.199V21.56C137.199 20.9253 137.007 20.438 136.621 20.098C136.247 19.758 135.686 19.588 134.938 19.588C134.428 19.588 133.924 19.6673 133.425 19.826C132.938 19.9847 132.524 20.2057 132.184 20.489L131.351 18.942C131.827 18.5793 132.4 18.3017 133.068 18.109C133.737 17.9163 134.445 17.82 135.193 17.82ZM134.904 25.572C135.437 25.572 135.907 25.453 136.315 25.215C136.735 24.9657 137.029 24.6143 137.199 24.161V23.107H135.006C133.782 23.107 133.17 23.5093 133.17 24.314C133.17 24.6993 133.323 25.0053 133.629 25.232C133.935 25.4587 134.36 25.572 134.904 25.572ZM153.17 17.82C154.314 17.82 155.221 18.1543 155.89 18.823C156.558 19.4803 156.893 20.472 156.893 21.798V27H154.768V22.07C154.768 21.2767 154.592 20.6817 154.241 20.285C153.889 19.877 153.385 19.673 152.728 19.673C152.014 19.673 151.441 19.911 151.011 20.387C150.58 20.8517 150.365 21.5203 150.365 22.393V27H148.24V22.07C148.24 21.2767 148.064 20.6817 147.713 20.285C147.361 19.877 146.857 19.673 146.2 19.673C145.474 19.673 144.896 19.9053 144.466 20.37C144.046 20.8347 143.837 21.509 143.837 22.393V27H141.712V17.922H143.735V19.078C144.075 18.67 144.5 18.3583 145.01 18.143C145.52 17.9277 146.086 17.82 146.71 17.82C147.39 17.82 147.99 17.9503 148.512 18.211C149.044 18.4603 149.464 18.8343 149.77 19.333C150.144 18.857 150.625 18.4887 151.215 18.228C151.804 17.956 152.456 17.82 153.17 17.82ZM167.885 22.512C167.885 22.6593 167.874 22.869 167.851 23.141H160.728C160.853 23.8097 161.176 24.3423 161.697 24.739C162.23 25.1243 162.887 25.317 163.669 25.317C164.666 25.317 165.488 24.9883 166.134 24.331L167.273 25.64C166.865 26.1273 166.349 26.4957 165.726 26.745C165.103 26.9943 164.4 27.119 163.618 27.119C162.621 27.119 161.742 26.9207 160.983 26.524C160.224 26.1273 159.634 25.5777 159.215 24.875C158.807 24.161 158.603 23.3563 158.603 22.461C158.603 21.577 158.801 20.7837 159.198 20.081C159.606 19.367 160.167 18.8117 160.881 18.415C161.595 18.0183 162.4 17.82 163.295 17.82C164.179 17.82 164.967 18.0183 165.658 18.415C166.361 18.8003 166.905 19.35 167.29 20.064C167.687 20.7667 167.885 21.5827 167.885 22.512ZM163.295 19.52C162.615 19.52 162.037 19.724 161.561 20.132C161.096 20.5287 160.813 21.0613 160.711 21.73H165.862C165.771 21.0727 165.494 20.54 165.029 20.132C164.564 19.724 163.986 19.52 163.295 19.52ZM178.477 14.386V27H176.437V25.827C176.086 26.2577 175.65 26.5807 175.128 26.796C174.618 27.0113 174.052 27.119 173.428 27.119C172.556 27.119 171.768 26.9263 171.065 26.541C170.374 26.1557 169.83 25.6117 169.433 24.909C169.037 24.195 168.838 23.379 168.838 22.461C168.838 21.543 169.037 20.7327 169.433 20.03C169.83 19.3273 170.374 18.7833 171.065 18.398C171.768 18.0127 172.556 17.82 173.428 17.82C174.029 17.82 174.579 17.922 175.077 18.126C175.576 18.33 176.001 18.636 176.352 19.044V14.386H178.477ZM173.683 25.3C174.193 25.3 174.652 25.1867 175.06 24.96C175.468 24.722 175.791 24.3877 176.029 23.957C176.267 23.5263 176.386 23.0277 176.386 22.461C176.386 21.8943 176.267 21.3957 176.029 20.965C175.791 20.5343 175.468 20.2057 175.06 19.979C174.652 19.741 174.193 19.622 173.683 19.622C173.173 19.622 172.714 19.741 172.306 19.979C171.898 20.2057 171.575 20.5343 171.337 20.965C171.099 21.3957 170.98 21.8943 170.98 22.461C170.98 23.0277 171.099 23.5263 171.337 23.957C171.575 24.3877 171.898 24.722 172.306 24.96C172.714 25.1867 173.173 25.3 173.683 25.3Z" fill="#292626"/>
<path d="M56.6 74.5L59.225 79.15H58.025L55.325 74.475L59.9 69.775H61.175L56.6 74.5ZM60.775 74.5L63.4 79.15H62.2L59.5 74.475L64.075 69.775H65.35L60.775 74.5ZM77.0979 64.65L75.7229 71.55H85.0229L84.7979 72.675H75.4979L74.0479 79.85H84.8479L84.5979 81H72.5479L76.0479 63.5H87.7479L87.4979 64.65H77.0979ZM101.129 67.95L92.6541 81H91.3791L88.0791 67.95H89.3541L92.2541 79.625L99.8041 67.95H101.129ZM105.946 81.1C104.179 81.1 102.771 80.6083 101.721 79.625C100.688 78.6417 100.171 77.325 100.171 75.675C100.171 74.1917 100.488 72.8583 101.121 71.675C101.771 70.4917 102.663 69.5583 103.796 68.875C104.929 68.1917 106.213 67.85 107.646 67.85C109.413 67.85 110.813 68.3417 111.846 69.325C112.896 70.2917 113.421 71.6083 113.421 73.275C113.421 74.7583 113.096 76.1 112.446 77.3C111.813 78.4833 110.929 79.4167 109.796 80.1C108.663 80.7667 107.379 81.1 105.946 81.1ZM106.046 79.975C107.213 79.975 108.254 79.6917 109.171 79.125C110.104 78.5583 110.838 77.775 111.371 76.775C111.904 75.7583 112.171 74.6167 112.171 73.35C112.171 71.9667 111.763 70.8917 110.946 70.125C110.146 69.3583 109.013 68.975 107.546 68.975C106.379 68.975 105.329 69.2667 104.396 69.85C103.479 70.4167 102.754 71.2083 102.221 72.225C101.688 73.225 101.421 74.35 101.421 75.6C101.421 76.9833 101.821 78.0583 102.621 78.825C103.438 79.5917 104.579 79.975 106.046 79.975ZM122.799 63.425C121.982 63.425 121.332 63.6417 120.849 64.075C120.365 64.5083 120.032 65.2 119.849 66.15L119.474 67.95H123.649L123.449 69.025H119.274L116.899 81H115.649L118.049 69.025H115.624L115.824 67.95H118.249L118.649 65.975C118.882 64.7917 119.349 63.8917 120.049 63.275C120.765 62.6583 121.69 62.35 122.824 62.35C123.34 62.35 123.824 62.425 124.274 62.575C124.724 62.725 125.082 62.9417 125.349 63.225L124.749 64.125C124.249 63.6583 123.599 63.425 122.799 63.425ZM123.932 74.75C123.899 75.1167 123.882 75.3917 123.882 75.575C123.882 76.9917 124.291 78.0833 125.107 78.85C125.924 79.6 127.124 79.975 128.707 79.975C129.624 79.975 130.466 79.825 131.232 79.525C132.016 79.2083 132.666 78.775 133.182 78.225L133.757 79.1C133.174 79.7333 132.424 80.225 131.507 80.575C130.607 80.925 129.641 81.1 128.607 81.1C126.757 81.1 125.299 80.6167 124.232 79.65C123.182 78.6833 122.657 77.3417 122.657 75.625C122.657 74.1583 122.966 72.8333 123.582 71.65C124.199 70.4667 125.049 69.5417 126.132 68.875C127.216 68.1917 128.432 67.85 129.782 67.85C131.482 67.85 132.832 68.3333 133.832 69.3C134.832 70.2667 135.332 71.6 135.332 73.3C135.332 73.7 135.282 74.1833 135.182 74.75H123.932ZM129.757 68.925C128.341 68.925 127.116 69.3667 126.082 70.25C125.066 71.1333 124.399 72.3083 124.082 73.775H134.132C134.149 73.625 134.157 73.4083 134.157 73.125C134.157 71.8083 133.757 70.7833 132.957 70.05C132.157 69.3 131.091 68.925 129.757 68.925ZM155.874 67.85C157.34 67.85 158.465 68.2167 159.249 68.95C160.032 69.6667 160.424 70.675 160.424 71.975C160.424 72.425 160.374 72.9167 160.274 73.45L158.749 81H157.499L159.024 73.45C159.107 73.0667 159.149 72.6417 159.149 72.175C159.149 71.1583 158.849 70.375 158.249 69.825C157.649 69.2583 156.774 68.975 155.624 68.975C154.19 68.975 152.99 69.375 152.024 70.175C151.074 70.9583 150.449 72.1 150.149 73.6L148.649 81H147.399L148.924 73.45C149.007 73.0667 149.049 72.6417 149.049 72.175C149.049 71.1583 148.749 70.375 148.149 69.825C147.549 69.2583 146.674 68.975 145.524 68.975C144.074 68.975 142.865 69.4 141.899 70.25C140.932 71.0833 140.29 72.3 139.974 73.9L138.549 81H137.299L139.899 67.95H141.124L140.624 70.4C141.24 69.5333 141.99 68.8917 142.874 68.475C143.757 68.0583 144.749 67.85 145.849 67.85C147.049 67.85 148.015 68.1083 148.749 68.625C149.482 69.125 149.965 69.8417 150.199 70.775C150.849 69.8083 151.657 69.0833 152.624 68.6C153.59 68.1 154.674 67.85 155.874 67.85ZM166.01 67.95H167.26L164.66 81H163.41L166.01 67.95ZM167.41 64.775C167.143 64.775 166.918 64.6833 166.735 64.5C166.552 64.3167 166.46 64.1 166.46 63.85C166.46 63.55 166.56 63.2917 166.76 63.075C166.977 62.8583 167.243 62.75 167.56 62.75C167.827 62.75 168.052 62.8417 168.235 63.025C168.435 63.2083 168.535 63.425 168.535 63.675C168.535 63.9917 168.427 64.2583 168.21 64.475C167.993 64.675 167.727 64.775 167.41 64.775ZM178.154 67.85C179.637 67.85 180.779 68.225 181.579 68.975C182.379 69.7083 182.779 70.725 182.779 72.025C182.779 72.475 182.729 72.95 182.629 73.45L181.129 81H179.879L181.379 73.45C181.462 73.0667 181.504 72.65 181.504 72.2C181.504 71.1667 181.187 70.375 180.554 69.825C179.937 69.2583 179.029 68.975 177.829 68.975C176.329 68.975 175.079 69.4 174.079 70.25C173.079 71.0833 172.42 72.3 172.104 73.9L170.679 81H169.429L172.029 67.95H173.254L172.754 70.425C173.37 69.5583 174.137 68.9167 175.054 68.5C175.987 68.0667 177.02 67.85 178.154 67.85ZM188.35 67.95H189.6L187 81H185.75L188.35 67.95ZM189.75 64.775C189.483 64.775 189.258 64.6833 189.075 64.5C188.891 64.3167 188.8 64.1 188.8 63.85C188.8 63.55 188.9 63.2917 189.1 63.075C189.316 62.8583 189.583 62.75 189.9 62.75C190.166 62.75 190.391 62.8417 190.575 63.025C190.775 63.2083 190.875 63.425 190.875 63.675C190.875 63.9917 190.766 64.2583 190.55 64.475C190.333 64.675 190.066 64.775 189.75 64.775ZM195.343 81.1C194.327 81.1 193.352 80.95 192.418 80.65C191.502 80.3333 190.785 79.9333 190.268 79.45L190.943 78.475C191.427 78.9417 192.068 79.3167 192.868 79.6C193.685 79.8667 194.543 80 195.443 80C196.793 80 197.835 79.7667 198.568 79.3C199.318 78.8167 199.693 78.15 199.693 77.3C199.693 76.8167 199.543 76.4333 199.243 76.15C198.943 75.8667 198.577 75.6583 198.143 75.525C197.71 75.375 197.11 75.2167 196.343 75.05C195.443 74.8667 194.71 74.675 194.143 74.475C193.593 74.275 193.127 73.9667 192.743 73.55C192.36 73.1167 192.168 72.5333 192.168 71.8C192.168 70.6 192.66 69.6417 193.643 68.925C194.643 68.2083 195.968 67.85 197.618 67.85C198.452 67.85 199.26 67.9667 200.043 68.2C200.827 68.4167 201.452 68.725 201.918 69.125L201.343 70.1C200.86 69.7167 200.277 69.4333 199.593 69.25C198.927 69.05 198.235 68.95 197.518 68.95C196.252 68.95 195.243 69.2 194.493 69.7C193.76 70.2 193.393 70.8583 193.393 71.675C193.393 72.175 193.543 72.575 193.843 72.875C194.143 73.1583 194.518 73.375 194.968 73.525C195.435 73.675 196.052 73.8333 196.818 74C197.718 74.1833 198.435 74.375 198.968 74.575C199.518 74.7583 199.985 75.0583 200.368 75.475C200.752 75.8917 200.943 76.4583 200.943 77.175C200.943 78.3917 200.435 79.35 199.418 80.05C198.402 80.75 197.043 81.1 195.343 81.1ZM221.782 67.85C223.249 67.85 224.374 68.2167 225.157 68.95C225.94 69.6667 226.332 70.675 226.332 71.975C226.332 72.425 226.282 72.9167 226.182 73.45L224.657 81H223.407L224.932 73.45C225.015 73.0667 225.057 72.6417 225.057 72.175C225.057 71.1583 224.757 70.375 224.157 69.825C223.557 69.2583 222.682 68.975 221.532 68.975C220.099 68.975 218.899 69.375 217.932 70.175C216.982 70.9583 216.357 72.1 216.057 73.6L214.557 81H213.307L214.832 73.45C214.915 73.0667 214.957 72.6417 214.957 72.175C214.957 71.1583 214.657 70.375 214.057 69.825C213.457 69.2583 212.582 68.975 211.432 68.975C209.982 68.975 208.774 69.4 207.807 70.25C206.84 71.0833 206.199 72.3 205.882 73.9L204.457 81H203.207L205.807 67.95H207.032L206.532 70.4C207.149 69.5333 207.899 68.8917 208.782 68.475C209.665 68.0583 210.657 67.85 211.757 67.85C212.957 67.85 213.924 68.1083 214.657 68.625C215.39 69.125 215.874 69.8417 216.107 70.775C216.757 69.8083 217.565 69.0833 218.532 68.6C219.499 68.1 220.582 67.85 221.782 67.85ZM230.418 74.75C230.384 75.1167 230.368 75.3917 230.368 75.575C230.368 76.9917 230.776 78.0833 231.593 78.85C232.409 79.6 233.609 79.975 235.193 79.975C236.109 79.975 236.951 79.825 237.718 79.525C238.501 79.2083 239.151 78.775 239.668 78.225L240.243 79.1C239.659 79.7333 238.909 80.225 237.993 80.575C237.093 80.925 236.126 81.1 235.093 81.1C233.243 81.1 231.784 80.6167 230.718 79.65C229.668 78.6833 229.143 77.3417 229.143 75.625C229.143 74.1583 229.451 72.8333 230.068 71.65C230.684 70.4667 231.534 69.5417 232.618 68.875C233.701 68.1917 234.918 67.85 236.268 67.85C237.968 67.85 239.318 68.3333 240.318 69.3C241.318 70.2667 241.818 71.6 241.818 73.3C241.818 73.7 241.768 74.1833 241.668 74.75H230.418ZM236.243 68.925C234.826 68.925 233.601 69.3667 232.568 70.25C231.551 71.1333 230.884 72.3083 230.568 73.775H240.618C240.634 73.625 240.643 73.4083 240.643 73.125C240.643 71.8083 240.243 70.7833 239.443 70.05C238.643 69.3 237.576 68.925 236.243 68.925ZM254.255 74.475L249.68 79.15H248.43L252.98 74.4L250.38 69.775H251.555L254.255 74.475ZM258.43 74.475L253.855 79.15H252.605L257.155 74.4L254.555 69.775H255.73L258.43 74.475Z" fill="#292626"/>
</svg>
