<svg width="336" height="134" viewBox="0 0 336 134" fill="none" xmlns="http://www.w3.org/2000/svg">
<rect width="336" height="134" rx="22" fill="#93B4E1"/>
<path d="M11.598 19.1H16.8C18.0693 19.1 19.197 19.3493 20.183 19.848C21.169 20.3353 21.934 21.0323 22.478 21.939C23.022 22.8343 23.294 23.8713 23.294 25.05C23.294 26.2287 23.022 27.2713 22.478 28.178C21.934 29.0733 21.169 29.7703 20.183 30.269C19.197 30.7563 18.0693 31 16.8 31H11.598V19.1ZM16.698 29.13C17.5707 29.13 18.3357 28.9657 18.993 28.637C19.6617 28.297 20.1717 27.821 20.523 27.209C20.8857 26.5857 21.067 25.866 21.067 25.05C21.067 24.234 20.8857 23.52 20.523 22.908C20.1717 22.2847 19.6617 21.8087 18.993 21.48C18.3357 21.14 17.5707 20.97 16.698 20.97H13.808V29.13H16.698ZM34.2279 29.147V31H25.3029V19.1H33.9899V20.953H27.5129V24.047H33.2589V25.866H27.5129V29.147H34.2279ZM47.2826 31L47.2656 23.112L43.3556 29.64H42.3696L38.4596 23.214V31H36.3516V19.1H38.1706L42.8966 26.988L47.5376 19.1H49.3566L49.3736 31H47.2826ZM57.8069 31.17C56.5943 31.17 55.5006 30.9093 54.5259 30.388C53.5513 29.8553 52.7863 29.1243 52.2309 28.195C51.6756 27.2543 51.3979 26.206 51.3979 25.05C51.3979 23.894 51.6756 22.8513 52.2309 21.922C52.7863 20.9813 53.5513 20.2503 54.5259 19.729C55.5006 19.1963 56.5943 18.93 57.8069 18.93C59.0196 18.93 60.1133 19.1963 61.0879 19.729C62.0626 20.2503 62.8276 20.9757 63.3829 21.905C63.9383 22.8343 64.2159 23.8827 64.2159 25.05C64.2159 26.2173 63.9383 27.2657 63.3829 28.195C62.8276 29.1243 62.0626 29.8553 61.0879 30.388C60.1133 30.9093 59.0196 31.17 57.8069 31.17ZM57.8069 29.232C58.6003 29.232 59.3143 29.0563 59.9489 28.705C60.5836 28.3423 61.0823 27.8437 61.4449 27.209C61.8076 26.563 61.9889 25.8433 61.9889 25.05C61.9889 24.2567 61.8076 23.5427 61.4449 22.908C61.0823 22.262 60.5836 21.7633 59.9489 21.412C59.3143 21.0493 58.6003 20.868 57.8069 20.868C57.0136 20.868 56.2996 21.0493 55.6649 21.412C55.0303 21.7633 54.5316 22.262 54.1689 22.908C53.8063 23.5427 53.6249 24.2567 53.6249 25.05C53.6249 25.8433 53.8063 26.563 54.1689 27.209C54.5316 27.8437 55.0303 28.3423 55.6649 28.705C56.2996 29.0563 57.0136 29.232 57.8069 29.232ZM74.0045 31L71.5735 27.515C71.4715 27.5263 71.3185 27.532 71.1145 27.532H68.4285V31H66.2185V19.1H71.1145C72.1458 19.1 73.0411 19.27 73.8005 19.61C74.5711 19.95 75.1605 20.4373 75.5685 21.072C75.9765 21.7067 76.1805 22.4603 76.1805 23.333C76.1805 24.2283 75.9595 24.999 75.5175 25.645C75.0868 26.291 74.4635 26.7727 73.6475 27.09L76.3845 31H74.0045ZM73.9535 23.333C73.9535 22.5737 73.7041 21.99 73.2055 21.582C72.7068 21.174 71.9758 20.97 71.0125 20.97H68.4285V25.713H71.0125C71.9758 25.713 72.7068 25.509 73.2055 25.101C73.7041 24.6817 73.9535 24.0923 73.9535 23.333ZM80.561 20.97H76.617V19.1H86.715V20.97H82.771V31H80.561V20.97ZM88.0336 19.1H90.2436V31H88.0336V19.1ZM102.047 29.147V31H93.1223V19.1H101.809V20.953H95.3323V24.047H101.078V25.866H95.3323V29.147H102.047ZM111.957 31L109.526 27.515C109.424 27.5263 109.271 27.532 109.067 27.532H106.381V31H104.171V19.1H109.067C110.098 19.1 110.994 19.27 111.753 19.61C112.524 19.95 113.113 20.4373 113.521 21.072C113.929 21.7067 114.133 22.4603 114.133 23.333C114.133 24.2283 113.912 24.999 113.47 25.645C113.039 26.291 112.416 26.7727 111.6 27.09L114.337 31H111.957ZM111.906 23.333C111.906 22.5737 111.657 21.99 111.158 21.582C110.659 21.174 109.928 20.97 108.965 20.97H106.381V25.713H108.965C109.928 25.713 110.659 25.509 111.158 25.101C111.657 24.6817 111.906 24.0923 111.906 23.333ZM125.191 29.147V31H116.266V19.1H124.953V20.953H118.476V24.047H124.222V25.866H118.476V29.147H125.191ZM133.882 20.953V24.574H139.628V26.444H133.882V31H131.672V19.1H140.359V20.953H133.882ZM141.953 18.386H144.078V31H141.953V18.386ZM150.607 31.119C149.689 31.119 148.861 30.9207 148.125 30.524C147.388 30.1273 146.81 29.5777 146.391 28.875C145.983 28.161 145.779 27.3563 145.779 26.461C145.779 25.5657 145.983 24.7667 146.391 24.064C146.81 23.3613 147.388 22.8117 148.125 22.415C148.861 22.0183 149.689 21.82 150.607 21.82C151.536 21.82 152.369 22.0183 153.106 22.415C153.842 22.8117 154.415 23.3613 154.823 24.064C155.242 24.7667 155.452 25.5657 155.452 26.461C155.452 27.3563 155.242 28.161 154.823 28.875C154.415 29.5777 153.842 30.1273 153.106 30.524C152.369 30.9207 151.536 31.119 150.607 31.119ZM150.607 29.3C151.389 29.3 152.035 29.0393 152.545 28.518C153.055 27.9967 153.31 27.311 153.31 26.461C153.31 25.611 153.055 24.9253 152.545 24.404C152.035 23.8827 151.389 23.622 150.607 23.622C149.825 23.622 149.179 23.8827 148.669 24.404C148.17 24.9253 147.921 25.611 147.921 26.461C147.921 27.311 148.17 27.9967 148.669 28.518C149.179 29.0393 149.825 29.3 150.607 29.3ZM159.167 23.248C159.779 22.296 160.855 21.82 162.397 21.82V23.843C162.215 23.809 162.051 23.792 161.904 23.792C161.076 23.792 160.43 24.0357 159.966 24.523C159.501 24.999 159.269 25.6903 159.269 26.597V31H157.144V21.922H159.167V23.248ZM172.31 26.512C172.31 26.6593 172.299 26.869 172.276 27.141H165.153C165.278 27.8097 165.601 28.3423 166.122 28.739C166.655 29.1243 167.312 29.317 168.094 29.317C169.092 29.317 169.913 28.9883 170.559 28.331L171.698 29.64C171.29 30.1273 170.775 30.4957 170.151 30.745C169.528 30.9943 168.825 31.119 168.043 31.119C167.046 31.119 166.168 30.9207 165.408 30.524C164.649 30.1273 164.06 29.5777 163.64 28.875C163.232 28.161 163.028 27.3563 163.028 26.461C163.028 25.577 163.227 24.7837 163.623 24.081C164.031 23.367 164.592 22.8117 165.306 22.415C166.02 22.0183 166.825 21.82 167.72 21.82C168.604 21.82 169.392 22.0183 170.083 22.415C170.786 22.8003 171.33 23.35 171.715 24.064C172.112 24.7667 172.31 25.5827 172.31 26.512ZM167.72 23.52C167.04 23.52 166.462 23.724 165.986 24.132C165.522 24.5287 165.238 25.0613 165.136 25.73H170.287C170.197 25.0727 169.919 24.54 169.454 24.132C168.99 23.724 168.412 23.52 167.72 23.52ZM179.163 21.82C180.307 21.82 181.225 22.1543 181.917 22.823C182.608 23.4917 182.954 24.4833 182.954 25.798V31H180.829V26.07C180.829 25.2767 180.642 24.6817 180.268 24.285C179.894 23.877 179.361 23.673 178.67 23.673C177.888 23.673 177.27 23.911 176.817 24.387C176.363 24.8517 176.137 25.526 176.137 26.41V31H174.012V21.922H176.035V23.095C176.386 22.6757 176.828 22.3583 177.361 22.143C177.893 21.9277 178.494 21.82 179.163 21.82ZM190.766 30.507C190.517 30.711 190.211 30.864 189.848 30.966C189.497 31.068 189.123 31.119 188.726 31.119C187.729 31.119 186.958 30.8583 186.414 30.337C185.87 29.8157 185.598 29.0563 185.598 28.059V23.69H184.102V21.99H185.598V19.916H187.723V21.99H190.154V23.69H187.723V28.008C187.723 28.45 187.831 28.79 188.046 29.028C188.262 29.2547 188.573 29.368 188.981 29.368C189.457 29.368 189.854 29.2433 190.171 28.994L190.766 30.507ZM192.174 21.922H194.299V31H192.174V21.922ZM193.245 20.426C192.86 20.426 192.537 20.307 192.276 20.069C192.016 19.8197 191.885 19.5137 191.885 19.151C191.885 18.7883 192.016 18.488 192.276 18.25C192.537 18.0007 192.86 17.876 193.245 17.876C193.631 17.876 193.954 17.995 194.214 18.233C194.475 18.4597 194.605 18.7487 194.605 19.1C194.605 19.474 194.475 19.7913 194.214 20.052C193.965 20.3013 193.642 20.426 193.245 20.426ZM201.899 21.82C203.044 21.82 203.962 22.1543 204.653 22.823C205.345 23.4917 205.69 24.4833 205.69 25.798V31H203.565V26.07C203.565 25.2767 203.378 24.6817 203.004 24.285C202.63 23.877 202.098 23.673 201.406 23.673C200.624 23.673 200.007 23.911 199.553 24.387C199.1 24.8517 198.873 25.526 198.873 26.41V31H196.748V21.922H198.771V23.095C199.123 22.6757 199.565 22.3583 200.097 22.143C200.63 21.9277 201.231 21.82 201.899 21.82Z" fill="#292626"/>
<path d="M9.6 82.5L12.225 87.15H11.025L8.325 82.475L12.9 77.775H14.175L9.6 82.5ZM13.775 82.5L16.4 87.15H15.2L12.5 82.475L17.075 77.775H18.35L13.775 82.5ZM29.0479 71.5H30.3229L27.0479 87.85H37.1229L36.8729 89H25.5479L29.0479 71.5ZM40.1021 82.75C40.0688 83.1167 40.0521 83.3917 40.0521 83.575C40.0521 84.9917 40.4605 86.0833 41.2771 86.85C42.0938 87.6 43.2938 87.975 44.8771 87.975C45.7938 87.975 46.6355 87.825 47.4021 87.525C48.1855 87.2083 48.8355 86.775 49.3521 86.225L49.9271 87.1C49.3438 87.7333 48.5938 88.225 47.6771 88.575C46.7771 88.925 45.8105 89.1 44.7771 89.1C42.9271 89.1 41.4688 88.6167 40.4021 87.65C39.3521 86.6833 38.8271 85.3417 38.8271 83.625C38.8271 82.1583 39.1355 80.8333 39.7521 79.65C40.3688 78.4667 41.2188 77.5417 42.3021 76.875C43.3855 76.1917 44.6021 75.85 45.9521 75.85C47.6521 75.85 49.0021 76.3333 50.0021 77.3C51.0021 78.2667 51.5021 79.6 51.5021 81.3C51.5021 81.7 51.4521 82.1833 51.3521 82.75H40.1021ZM45.9271 76.925C44.5105 76.925 43.2855 77.3667 42.2521 78.25C41.2355 79.1333 40.5688 80.3083 40.2521 81.775H50.3021C50.3188 81.625 50.3271 81.4083 50.3271 81.125C50.3271 79.8083 49.9271 78.7833 49.1271 78.05C48.3271 77.3 47.2605 76.925 45.9271 76.925ZM66.8145 71.425C65.9978 71.425 65.3478 71.6417 64.8645 72.075C64.3811 72.5083 64.0478 73.2 63.8645 74.15L63.4895 75.95H67.6645L67.4645 77.025H63.2895L60.9145 89H59.6645L62.0645 77.025H59.6395L59.8395 75.95H62.2645L62.6645 73.975C62.8978 72.7917 63.3645 71.8917 64.0645 71.275C64.7811 70.6583 65.7061 70.35 66.8395 70.35C67.3561 70.35 67.8395 70.425 68.2895 70.575C68.7395 70.725 69.0978 70.9417 69.3645 71.225L68.7645 72.125C68.2645 71.6583 67.6145 71.425 66.8145 71.425ZM67.9479 82.75C67.9145 83.1167 67.8979 83.3917 67.8979 83.575C67.8979 84.9917 68.3062 86.0833 69.1229 86.85C69.9395 87.6 71.1395 87.975 72.7229 87.975C73.6395 87.975 74.4812 87.825 75.2479 87.525C76.0312 87.2083 76.6812 86.775 77.1979 86.225L77.7729 87.1C77.1895 87.7333 76.4395 88.225 75.5229 88.575C74.6229 88.925 73.6562 89.1 72.6229 89.1C70.7729 89.1 69.3145 88.6167 68.2479 87.65C67.1979 86.6833 66.6729 85.3417 66.6729 83.625C66.6729 82.1583 66.9812 80.8333 67.5979 79.65C68.2145 78.4667 69.0645 77.5417 70.1479 76.875C71.2312 76.1917 72.4479 75.85 73.7979 75.85C75.4979 75.85 76.8479 76.3333 77.8479 77.3C78.8479 78.2667 79.3479 79.6 79.3479 81.3C79.3479 81.7 79.2979 82.1833 79.1979 82.75H67.9479ZM73.7729 76.925C72.3562 76.925 71.1312 77.3667 70.0979 78.25C69.0812 79.1333 68.4145 80.3083 68.0979 81.775H78.1479C78.1645 81.625 78.1729 81.4083 78.1729 81.125C78.1729 79.8083 77.7729 78.7833 76.9729 78.05C76.1729 77.3 75.1062 76.925 73.7729 76.925ZM99.8893 75.85C101.356 75.85 102.481 76.2167 103.264 76.95C104.048 77.6667 104.439 78.675 104.439 79.975C104.439 80.425 104.389 80.9167 104.289 81.45L102.764 89H101.514L103.039 81.45C103.123 81.0667 103.164 80.6417 103.164 80.175C103.164 79.1583 102.864 78.375 102.264 77.825C101.664 77.2583 100.789 76.975 99.6393 76.975C98.2059 76.975 97.0059 77.375 96.0393 78.175C95.0893 78.9583 94.4643 80.1 94.1643 81.6L92.6643 89H91.4143L92.9393 81.45C93.0226 81.0667 93.0643 80.6417 93.0643 80.175C93.0643 79.1583 92.7643 78.375 92.1643 77.825C91.5643 77.2583 90.6893 76.975 89.5393 76.975C88.0893 76.975 86.8809 77.4 85.9143 78.25C84.9476 79.0833 84.3059 80.3 83.9893 81.9L82.5643 89H81.3143L83.9143 75.95H85.1393L84.6393 78.4C85.2559 77.5333 86.0059 76.8917 86.8893 76.475C87.7726 76.0583 88.7643 75.85 89.8643 75.85C91.0643 75.85 92.0309 76.1083 92.7643 76.625C93.4976 77.125 93.9809 77.8417 94.2143 78.775C94.8643 77.8083 95.6726 77.0833 96.6393 76.6C97.6059 76.1 98.6893 75.85 99.8893 75.85ZM110.026 75.95H111.276L108.676 89H107.426L110.026 75.95ZM111.426 72.775C111.159 72.775 110.934 72.6833 110.751 72.5C110.567 72.3167 110.476 72.1 110.476 71.85C110.476 71.55 110.576 71.2917 110.776 71.075C110.992 70.8583 111.259 70.75 111.576 70.75C111.842 70.75 112.067 70.8417 112.251 71.025C112.451 71.2083 112.551 71.425 112.551 71.675C112.551 71.9917 112.442 72.2583 112.226 72.475C112.009 72.675 111.742 72.775 111.426 72.775ZM122.169 75.85C123.652 75.85 124.794 76.225 125.594 76.975C126.394 77.7083 126.794 78.725 126.794 80.025C126.794 80.475 126.744 80.95 126.644 81.45L125.144 89H123.894L125.394 81.45C125.477 81.0667 125.519 80.65 125.519 80.2C125.519 79.1667 125.202 78.375 124.569 77.825C123.952 77.2583 123.044 76.975 121.844 76.975C120.344 76.975 119.094 77.4 118.094 78.25C117.094 79.0833 116.436 80.3 116.119 81.9L114.694 89H113.444L116.044 75.95H117.269L116.769 78.425C117.386 77.5583 118.152 76.9167 119.069 76.5C120.002 76.0667 121.036 75.85 122.169 75.85ZM132.365 75.95H133.615L131.015 89H129.765L132.365 75.95ZM133.765 72.775C133.499 72.775 133.274 72.6833 133.09 72.5C132.907 72.3167 132.815 72.1 132.815 71.85C132.815 71.55 132.915 71.2917 133.115 71.075C133.332 70.8583 133.599 70.75 133.915 70.75C134.182 70.75 134.407 70.8417 134.59 71.025C134.79 71.2083 134.89 71.425 134.89 71.675C134.89 71.9917 134.782 72.2583 134.565 72.475C134.349 72.675 134.082 72.775 133.765 72.775ZM139.359 89.1C138.342 89.1 137.367 88.95 136.434 88.65C135.517 88.3333 134.801 87.9333 134.284 87.45L134.959 86.475C135.442 86.9417 136.084 87.3167 136.884 87.6C137.701 87.8667 138.559 88 139.459 88C140.809 88 141.851 87.7667 142.584 87.3C143.334 86.8167 143.709 86.15 143.709 85.3C143.709 84.8167 143.559 84.4333 143.259 84.15C142.959 83.8667 142.592 83.6583 142.159 83.525C141.726 83.375 141.126 83.2167 140.359 83.05C139.459 82.8667 138.726 82.675 138.159 82.475C137.609 82.275 137.142 81.9667 136.759 81.55C136.376 81.1167 136.184 80.5333 136.184 79.8C136.184 78.6 136.676 77.6417 137.659 76.925C138.659 76.2083 139.984 75.85 141.634 75.85C142.467 75.85 143.276 75.9667 144.059 76.2C144.842 76.4167 145.467 76.725 145.934 77.125L145.359 78.1C144.876 77.7167 144.292 77.4333 143.609 77.25C142.942 77.05 142.251 76.95 141.534 76.95C140.267 76.95 139.259 77.2 138.509 77.7C137.776 78.2 137.409 78.8583 137.409 79.675C137.409 80.175 137.559 80.575 137.859 80.875C138.159 81.1583 138.534 81.375 138.984 81.525C139.451 81.675 140.067 81.8333 140.834 82C141.734 82.1833 142.451 82.375 142.984 82.575C143.534 82.7583 144.001 83.0583 144.384 83.475C144.767 83.8917 144.959 84.4583 144.959 85.175C144.959 86.3917 144.451 87.35 143.434 88.05C142.417 88.75 141.059 89.1 139.359 89.1ZM165.797 75.85C167.264 75.85 168.389 76.2167 169.172 76.95C169.956 77.6667 170.347 78.675 170.347 79.975C170.347 80.425 170.297 80.9167 170.197 81.45L168.672 89H167.422L168.947 81.45C169.031 81.0667 169.072 80.6417 169.072 80.175C169.072 79.1583 168.772 78.375 168.172 77.825C167.572 77.2583 166.697 76.975 165.547 76.975C164.114 76.975 162.914 77.375 161.947 78.175C160.997 78.9583 160.372 80.1 160.072 81.6L158.572 89H157.322L158.847 81.45C158.931 81.0667 158.972 80.6417 158.972 80.175C158.972 79.1583 158.672 78.375 158.072 77.825C157.472 77.2583 156.597 76.975 155.447 76.975C153.997 76.975 152.789 77.4 151.822 78.25C150.856 79.0833 150.214 80.3 149.897 81.9L148.472 89H147.222L149.822 75.95H151.047L150.547 78.4C151.164 77.5333 151.914 76.8917 152.797 76.475C153.681 76.0583 154.672 75.85 155.772 75.85C156.972 75.85 157.939 76.1083 158.672 76.625C159.406 77.125 159.889 77.8417 160.122 78.775C160.772 77.8083 161.581 77.0833 162.547 76.6C163.514 76.1 164.597 75.85 165.797 75.85ZM174.433 82.75C174.4 83.1167 174.383 83.3917 174.383 83.575C174.383 84.9917 174.792 86.0833 175.608 86.85C176.425 87.6 177.625 87.975 179.208 87.975C180.125 87.975 180.967 87.825 181.733 87.525C182.517 87.2083 183.167 86.775 183.683 86.225L184.258 87.1C183.675 87.7333 182.925 88.225 182.008 88.575C181.108 88.925 180.142 89.1 179.108 89.1C177.258 89.1 175.8 88.6167 174.733 87.65C173.683 86.6833 173.158 85.3417 173.158 83.625C173.158 82.1583 173.467 80.8333 174.083 79.65C174.7 78.4667 175.55 77.5417 176.633 76.875C177.717 76.1917 178.933 75.85 180.283 75.85C181.983 75.85 183.333 76.3333 184.333 77.3C185.333 78.2667 185.833 79.6 185.833 81.3C185.833 81.7 185.783 82.1833 185.683 82.75H174.433ZM180.258 76.925C178.842 76.925 177.617 77.3667 176.583 78.25C175.567 79.1333 174.9 80.3083 174.583 81.775H184.633C184.65 81.625 184.658 81.4083 184.658 81.125C184.658 79.8083 184.258 78.7833 183.458 78.05C182.658 77.3 181.592 76.925 180.258 76.925ZM194.796 82.75C194.762 83.1167 194.746 83.3917 194.746 83.575C194.746 84.9917 195.154 86.0833 195.971 86.85C196.787 87.6 197.987 87.975 199.571 87.975C200.487 87.975 201.329 87.825 202.096 87.525C202.879 87.2083 203.529 86.775 204.046 86.225L204.621 87.1C204.037 87.7333 203.287 88.225 202.371 88.575C201.471 88.925 200.504 89.1 199.471 89.1C197.621 89.1 196.162 88.6167 195.096 87.65C194.046 86.6833 193.521 85.3417 193.521 83.625C193.521 82.1583 193.829 80.8333 194.446 79.65C195.062 78.4667 195.912 77.5417 196.996 76.875C198.079 76.1917 199.296 75.85 200.646 75.85C202.346 75.85 203.696 76.3333 204.696 77.3C205.696 78.2667 206.196 79.6 206.196 81.3C206.196 81.7 206.146 82.1833 206.046 82.75H194.796ZM200.621 76.925C199.204 76.925 197.979 77.3667 196.946 78.25C195.929 79.1333 195.262 80.3083 194.946 81.775H204.996C205.012 81.625 205.021 81.4083 205.021 81.125C205.021 79.8083 204.621 78.7833 203.821 78.05C203.021 77.3 201.954 76.925 200.621 76.925ZM216.887 75.85C218.37 75.85 219.512 76.225 220.312 76.975C221.112 77.7083 221.512 78.725 221.512 80.025C221.512 80.475 221.462 80.95 221.362 81.45L219.862 89H218.612L220.112 81.45C220.195 81.0667 220.237 80.65 220.237 80.2C220.237 79.1667 219.92 78.375 219.287 77.825C218.67 77.2583 217.762 76.975 216.562 76.975C215.062 76.975 213.812 77.4 212.812 78.25C211.812 79.0833 211.154 80.3 210.837 81.9L209.412 89H208.162L210.762 75.95H211.987L211.487 78.425C212.104 77.5583 212.87 76.9167 213.787 76.5C214.72 76.0667 215.754 75.85 216.887 75.85ZM235.379 72.65L233.879 80.125H243.179L242.954 81.275H233.654L232.104 89H230.829L234.329 71.5H246.029L245.779 72.65H235.379ZM248.706 78.7C249.29 77.75 250.031 77.0417 250.931 76.575C251.848 76.0917 252.956 75.85 254.256 75.85L254.031 77.075L253.631 77.05C252.148 77.05 250.931 77.4917 249.981 78.375C249.031 79.2583 248.381 80.5667 248.031 82.3L246.681 89H245.431L248.031 75.95H249.256L248.706 78.7ZM268.654 75.95L266.054 89H264.854L265.354 86.45C264.72 87.2833 263.929 87.9333 262.979 88.4C262.045 88.8667 261.004 89.1 259.854 89.1C258.154 89.1 256.787 88.6167 255.754 87.65C254.737 86.6667 254.229 85.3417 254.229 83.675C254.229 82.1917 254.545 80.8583 255.179 79.675C255.812 78.475 256.687 77.5417 257.804 76.875C258.937 76.1917 260.204 75.85 261.604 75.85C262.954 75.85 264.07 76.1417 264.954 76.725C265.837 77.3083 266.437 78.1333 266.754 79.2L267.404 75.95H268.654ZM260.104 87.975C261.27 87.975 262.312 87.6917 263.229 87.125C264.162 86.5583 264.895 85.775 265.429 84.775C265.962 83.7583 266.229 82.6167 266.229 81.35C266.229 79.9667 265.82 78.8917 265.004 78.125C264.204 77.3583 263.07 76.975 261.604 76.975C260.437 76.975 259.387 77.2667 258.454 77.85C257.537 78.4167 256.812 79.2083 256.279 80.225C255.745 81.225 255.479 82.35 255.479 83.6C255.479 84.9833 255.879 86.0583 256.679 86.825C257.495 87.5917 258.637 87.975 260.104 87.975ZM279.524 75.85C281.007 75.85 282.149 76.225 282.949 76.975C283.749 77.7083 284.149 78.725 284.149 80.025C284.149 80.475 284.099 80.95 283.999 81.45L282.499 89H281.249L282.749 81.45C282.832 81.0667 282.874 80.65 282.874 80.2C282.874 79.1667 282.557 78.375 281.924 77.825C281.307 77.2583 280.399 76.975 279.199 76.975C277.699 76.975 276.449 77.4 275.449 78.25C274.449 79.0833 273.79 80.3 273.474 81.9L272.049 89H270.799L273.399 75.95H274.624L274.124 78.425C274.74 77.5583 275.507 76.9167 276.424 76.5C277.357 76.0667 278.39 75.85 279.524 75.85ZM292.819 89.1C291.019 89.1 289.586 88.6083 288.519 87.625C287.469 86.6417 286.944 85.325 286.944 83.675C286.944 82.1917 287.261 80.8583 287.894 79.675C288.544 78.475 289.436 77.5417 290.569 76.875C291.719 76.1917 293.011 75.85 294.444 75.85C295.611 75.85 296.611 76.0583 297.444 76.475C298.278 76.875 298.928 77.4833 299.394 78.3L298.369 78.925C297.586 77.625 296.253 76.975 294.369 76.975C293.186 76.975 292.128 77.2667 291.194 77.85C290.261 78.4167 289.528 79.2 288.994 80.2C288.461 81.2 288.194 82.3333 288.194 83.6C288.194 84.9833 288.603 86.0583 289.419 86.825C290.236 87.5917 291.403 87.975 292.919 87.975C293.786 87.975 294.594 87.8083 295.344 87.475C296.111 87.1417 296.744 86.675 297.244 86.075L298.119 86.775C297.553 87.5083 296.794 88.0833 295.844 88.5C294.911 88.9 293.903 89.1 292.819 89.1ZM301.367 82.75C301.333 83.1167 301.317 83.3917 301.317 83.575C301.317 84.9917 301.725 86.0833 302.542 86.85C303.358 87.6 304.558 87.975 306.142 87.975C307.058 87.975 307.9 87.825 308.667 87.525C309.45 87.2083 310.1 86.775 310.617 86.225L311.192 87.1C310.608 87.7333 309.858 88.225 308.942 88.575C308.042 88.925 307.075 89.1 306.042 89.1C304.192 89.1 302.733 88.6167 301.667 87.65C300.617 86.6833 300.092 85.3417 300.092 83.625C300.092 82.1583 300.4 80.8333 301.017 79.65C301.633 78.4667 302.483 77.5417 303.567 76.875C304.65 76.1917 305.867 75.85 307.217 75.85C308.917 75.85 310.267 76.3333 311.267 77.3C312.267 78.2667 312.767 79.6 312.767 81.3C312.767 81.7 312.717 82.1833 312.617 82.75H301.367ZM307.192 76.925C305.775 76.925 304.55 77.3667 303.517 78.25C302.5 79.1333 301.833 80.3083 301.517 81.775H311.567C311.583 81.625 311.592 81.4083 311.592 81.125C311.592 79.8083 311.192 78.7833 310.392 78.05C309.592 77.3 308.525 76.925 307.192 76.925ZM325.204 82.475L320.629 87.15H319.379L323.929 82.4L321.329 77.775H322.504L325.204 82.475ZM329.379 82.475L324.804 87.15H323.554L328.104 82.4L325.504 77.775H326.679L329.379 82.475Z" fill="#292626"/>
</svg>
