<svg width="336" height="134" viewBox="0 0 336 134" fill="none" xmlns="http://www.w3.org/2000/svg">
<rect width="336" height="134" rx="22" fill="#B9D7EA"/>
<path d="M10.598 16.1H15.8C17.0693 16.1 18.197 16.3493 19.183 16.848C20.169 17.3353 20.934 18.0323 21.478 18.939C22.022 19.8343 22.294 20.8713 22.294 22.05C22.294 23.2287 22.022 24.2713 21.478 25.178C20.934 26.0733 20.169 26.7703 19.183 27.269C18.197 27.7563 17.0693 28 15.8 28H10.598V16.1ZM15.698 26.13C16.5707 26.13 17.3357 25.9657 17.993 25.637C18.6617 25.297 19.1717 24.821 19.523 24.209C19.8857 23.5857 20.067 22.866 20.067 22.05C20.067 21.234 19.8857 20.52 19.523 19.908C19.1717 19.2847 18.6617 18.8087 17.993 18.48C17.3357 18.14 16.5707 17.97 15.698 17.97H12.808V26.13H15.698ZM29.4199 28.17C27.7766 28.17 26.4959 27.711 25.5779 26.793C24.6599 25.8637 24.2009 24.5377 24.2009 22.815V16.1H26.4109V22.73C26.4109 25.0647 27.4196 26.232 29.4369 26.232C31.4429 26.232 32.4459 25.0647 32.4459 22.73V16.1H34.6219V22.815C34.6219 24.5377 34.1629 25.8637 33.2449 26.793C32.3383 27.711 31.0633 28.17 29.4199 28.17ZM48.257 16.1L43.072 28H40.896L35.694 16.1H38.091L42.052 25.28L46.047 16.1H48.257ZM56.5089 25.246H50.5589L49.3859 28H47.1079L52.4629 16.1H54.6389L60.0109 28H57.6989L56.5089 25.246ZM55.7779 23.512L53.5339 18.31L51.3069 23.512H55.7779ZM61.1843 16.1H63.3943V26.13H69.6163V28H61.1843V16.1ZM77.2323 28.17C76.473 28.17 75.7703 28.0227 75.1243 27.728C74.4896 27.422 73.9683 26.997 73.5603 26.453L74.8183 24.94C75.4756 25.8467 76.2633 26.3 77.1813 26.3C78.4166 26.3 79.0343 25.569 79.0343 24.107V17.953H74.8013V16.1H81.2443V23.988C81.2443 25.382 80.9043 26.4303 80.2243 27.133C79.5443 27.8243 78.547 28.17 77.2323 28.17ZM92.5891 18.922V28H90.5661V26.844C90.2261 27.252 89.8011 27.5693 89.2911 27.796C88.7811 28.0113 88.2315 28.119 87.6421 28.119C86.4295 28.119 85.4718 27.7847 84.7691 27.116C84.0778 26.436 83.7321 25.433 83.7321 24.107V18.922H85.8571V23.818C85.8571 24.634 86.0385 25.246 86.4011 25.654C86.7751 26.0507 87.3021 26.249 87.9821 26.249C88.7415 26.249 89.3421 26.0167 89.7841 25.552C90.2375 25.076 90.4641 24.396 90.4641 23.512V18.922H92.5891ZM97.8364 28.119C97.0998 28.119 96.3801 28.0227 95.6774 27.83C94.9748 27.6373 94.4138 27.3937 93.9944 27.099L94.8104 25.484C95.2184 25.756 95.7058 25.977 96.2724 26.147C96.8504 26.3057 97.4171 26.385 97.9724 26.385C99.2418 26.385 99.8764 26.0507 99.8764 25.382C99.8764 25.0647 99.7121 24.8437 99.3834 24.719C99.0661 24.5943 98.5504 24.4753 97.8364 24.362C97.0884 24.2487 96.4764 24.1183 96.0004 23.971C95.5358 23.8237 95.1278 23.5687 94.7764 23.206C94.4364 22.832 94.2664 22.3163 94.2664 21.659C94.2664 20.7977 94.6234 20.112 95.3374 19.602C96.0628 19.0807 97.0374 18.82 98.2614 18.82C98.8848 18.82 99.5081 18.8937 100.131 19.041C100.755 19.177 101.265 19.364 101.661 19.602L100.845 21.217C100.075 20.7637 99.2078 20.537 98.2444 20.537C97.6211 20.537 97.1451 20.6333 96.8164 20.826C96.4991 21.0073 96.3404 21.251 96.3404 21.557C96.3404 21.897 96.5104 22.1407 96.8504 22.288C97.2018 22.424 97.7401 22.5543 98.4654 22.679C99.1908 22.7923 99.7858 22.9227 100.25 23.07C100.715 23.2173 101.112 23.4667 101.44 23.818C101.78 24.1693 101.95 24.668 101.95 25.314C101.95 26.164 101.582 26.844 100.845 27.354C100.109 27.864 99.1058 28.119 97.8364 28.119ZM108.897 27.507C108.648 27.711 108.342 27.864 107.979 27.966C107.628 28.068 107.254 28.119 106.857 28.119C105.86 28.119 105.089 27.8583 104.545 27.337C104.001 26.8157 103.729 26.0563 103.729 25.059V20.69H102.233V18.99H103.729V16.916H105.854V18.99H108.285V20.69H105.854V25.008C105.854 25.45 105.962 25.79 106.177 26.028C106.393 26.2547 106.704 26.368 107.112 26.368C107.588 26.368 107.985 26.2433 108.302 25.994L108.897 27.507ZM110.306 18.922H112.431V28H110.306V18.922ZM111.377 17.426C110.991 17.426 110.668 17.307 110.408 17.069C110.147 16.8197 110.017 16.5137 110.017 16.151C110.017 15.7883 110.147 15.488 110.408 15.25C110.668 15.0007 110.991 14.876 111.377 14.876C111.762 14.876 112.085 14.995 112.346 15.233C112.606 15.4597 112.737 15.7487 112.737 16.1C112.737 16.474 112.606 16.7913 112.346 17.052C112.096 17.3013 111.773 17.426 111.377 17.426ZM120.031 18.82C121.175 18.82 122.093 19.1543 122.785 19.823C123.476 20.4917 123.822 21.4833 123.822 22.798V28H121.697V23.07C121.697 22.2767 121.51 21.6817 121.136 21.285C120.762 20.877 120.229 20.673 119.538 20.673C118.756 20.673 118.138 20.911 117.685 21.387C117.231 21.8517 117.005 22.526 117.005 23.41V28H114.88V18.922H116.903V20.095C117.254 19.6757 117.696 19.3583 118.229 19.143C118.761 18.9277 119.362 18.82 120.031 18.82ZM134.794 23.512C134.794 23.6593 134.783 23.869 134.76 24.141H127.637C127.762 24.8097 128.085 25.3423 128.606 25.739C129.139 26.1243 129.796 26.317 130.578 26.317C131.576 26.317 132.397 25.9883 133.043 25.331L134.182 26.64C133.774 27.1273 133.259 27.4957 132.635 27.745C132.012 27.9943 131.309 28.119 130.527 28.119C129.53 28.119 128.652 27.9207 127.892 27.524C127.133 27.1273 126.544 26.5777 126.124 25.875C125.716 25.161 125.512 24.3563 125.512 23.461C125.512 22.577 125.711 21.7837 126.107 21.081C126.515 20.367 127.076 19.8117 127.79 19.415C128.504 19.0183 129.309 18.82 130.204 18.82C131.088 18.82 131.876 19.0183 132.567 19.415C133.27 19.8003 133.814 20.35 134.199 21.064C134.596 21.7667 134.794 22.5827 134.794 23.512ZM130.204 20.52C129.524 20.52 128.946 20.724 128.47 21.132C128.006 21.5287 127.722 22.0613 127.62 22.73H132.771C132.681 22.0727 132.403 21.54 131.938 21.132C131.474 20.724 130.896 20.52 130.204 20.52Z" fill="#292626"/>
<path d="M58.6 80.5L61.225 85.15H60.025L57.325 80.475L61.9 75.775H63.175L58.6 80.5ZM62.775 80.5L65.4 85.15H64.2L61.5 80.475L66.075 75.775H67.35L62.775 80.5ZM78.0479 69.5H79.3229L76.0479 85.85H86.1229L85.8729 87H74.5479L78.0479 69.5ZM89.1021 80.75C89.0688 81.1167 89.0521 81.3917 89.0521 81.575C89.0521 82.9917 89.4605 84.0833 90.2771 84.85C91.0938 85.6 92.2938 85.975 93.8771 85.975C94.7938 85.975 95.6355 85.825 96.4021 85.525C97.1855 85.2083 97.8355 84.775 98.3521 84.225L98.9271 85.1C98.3438 85.7333 97.5938 86.225 96.6771 86.575C95.7771 86.925 94.8105 87.1 93.7771 87.1C91.9271 87.1 90.4688 86.6167 89.4021 85.65C88.3521 84.6833 87.8271 83.3417 87.8271 81.625C87.8271 80.1583 88.1355 78.8333 88.7521 77.65C89.3688 76.4667 90.2188 75.5417 91.3021 74.875C92.3855 74.1917 93.6021 73.85 94.9521 73.85C96.6521 73.85 98.0021 74.3333 99.0021 75.3C100.002 76.2667 100.502 77.6 100.502 79.3C100.502 79.7 100.452 80.1833 100.352 80.75H89.1021ZM94.9271 74.925C93.5105 74.925 92.2855 75.3667 91.2521 76.25C90.2355 77.1333 89.5688 78.3083 89.2521 79.775H99.3021C99.3188 79.625 99.3271 79.4083 99.3271 79.125C99.3271 77.8083 98.9271 76.7833 98.1271 76.05C97.3271 75.3 96.2605 74.925 94.9271 74.925ZM106.044 87.1C105.027 87.1 104.052 86.95 103.119 86.65C102.202 86.3333 101.485 85.9333 100.969 85.45L101.644 84.475C102.127 84.9417 102.769 85.3167 103.569 85.6C104.385 85.8667 105.244 86 106.144 86C107.494 86 108.535 85.7667 109.269 85.3C110.019 84.8167 110.394 84.15 110.394 83.3C110.394 82.8167 110.244 82.4333 109.944 82.15C109.644 81.8667 109.277 81.6583 108.844 81.525C108.41 81.375 107.81 81.2167 107.044 81.05C106.144 80.8667 105.41 80.675 104.844 80.475C104.294 80.275 103.827 79.9667 103.444 79.55C103.06 79.1167 102.869 78.5333 102.869 77.8C102.869 76.6 103.36 75.6417 104.344 74.925C105.344 74.2083 106.669 73.85 108.319 73.85C109.152 73.85 109.96 73.9667 110.744 74.2C111.527 74.4167 112.152 74.725 112.619 75.125L112.044 76.1C111.56 75.7167 110.977 75.4333 110.294 75.25C109.627 75.05 108.935 74.95 108.219 74.95C106.952 74.95 105.944 75.2 105.194 75.7C104.46 76.2 104.094 76.8583 104.094 77.675C104.094 78.175 104.244 78.575 104.544 78.875C104.844 79.1583 105.219 79.375 105.669 79.525C106.135 79.675 106.752 79.8333 107.519 80C108.419 80.1833 109.135 80.375 109.669 80.575C110.219 80.7583 110.685 81.0583 111.069 81.475C111.452 81.8917 111.644 82.4583 111.644 83.175C111.644 84.3917 111.135 85.35 110.119 86.05C109.102 86.75 107.744 87.1 106.044 87.1ZM137.728 69.5L126.403 87H125.153L120.828 69.5H122.178L126.053 85.35L136.328 69.5H137.728ZM138.554 73.95H139.804L137.204 87H135.954L138.554 73.95ZM139.954 70.775C139.687 70.775 139.462 70.6833 139.279 70.5C139.096 70.3167 139.004 70.1 139.004 69.85C139.004 69.55 139.104 69.2917 139.304 69.075C139.521 68.8583 139.787 68.75 140.104 68.75C140.371 68.75 140.596 68.8417 140.779 69.025C140.979 69.2083 141.079 69.425 141.079 69.675C141.079 69.9917 140.971 70.2583 140.754 70.475C140.537 70.675 140.271 70.775 139.954 70.775ZM147.647 87.1C145.847 87.1 144.414 86.6083 143.347 85.625C142.297 84.6417 141.772 83.325 141.772 81.675C141.772 80.1917 142.089 78.8583 142.722 77.675C143.372 76.475 144.264 75.5417 145.397 74.875C146.547 74.1917 147.839 73.85 149.272 73.85C150.439 73.85 151.439 74.0583 152.272 74.475C153.106 74.875 153.756 75.4833 154.222 76.3L153.197 76.925C152.414 75.625 151.081 74.975 149.197 74.975C148.014 74.975 146.956 75.2667 146.022 75.85C145.089 76.4167 144.356 77.2 143.822 78.2C143.289 79.2 143.022 80.3333 143.022 81.6C143.022 82.9833 143.431 84.0583 144.247 84.825C145.064 85.5917 146.231 85.975 147.747 85.975C148.614 85.975 149.422 85.8083 150.172 85.475C150.939 85.1417 151.572 84.675 152.072 84.075L152.947 84.775C152.381 85.5083 151.622 86.0833 150.672 86.5C149.739 86.9 148.731 87.1 147.647 87.1ZM157.761 83.225C157.694 83.5417 157.661 83.85 157.661 84.15C157.661 85.4 158.328 86.025 159.661 86.025C160.461 86.025 161.169 85.7833 161.786 85.3L162.161 86.225C161.444 86.8083 160.511 87.1 159.361 87.1C158.428 87.1 157.694 86.8583 157.161 86.375C156.644 85.875 156.386 85.1917 156.386 84.325C156.386 83.975 156.419 83.6417 156.486 83.325L158.161 75.025H155.736L155.936 73.95H158.361L158.936 71.1H160.186L159.611 73.95H163.761L163.561 75.025H159.411L157.761 83.225ZM170.058 87.1C168.292 87.1 166.883 86.6083 165.833 85.625C164.8 84.6417 164.283 83.325 164.283 81.675C164.283 80.1917 164.6 78.8583 165.233 77.675C165.883 76.4917 166.775 75.5583 167.908 74.875C169.042 74.1917 170.325 73.85 171.758 73.85C173.525 73.85 174.925 74.3417 175.958 75.325C177.008 76.2917 177.533 77.6083 177.533 79.275C177.533 80.7583 177.208 82.1 176.558 83.3C175.925 84.4833 175.042 85.4167 173.908 86.1C172.775 86.7667 171.492 87.1 170.058 87.1ZM170.158 85.975C171.325 85.975 172.367 85.6917 173.283 85.125C174.217 84.5583 174.95 83.775 175.483 82.775C176.017 81.7583 176.283 80.6167 176.283 79.35C176.283 77.9667 175.875 76.8917 175.058 76.125C174.258 75.3583 173.125 74.975 171.658 74.975C170.492 74.975 169.442 75.2667 168.508 75.85C167.592 76.4167 166.867 77.2083 166.333 78.225C165.8 79.225 165.533 80.35 165.533 81.6C165.533 82.9833 165.933 84.0583 166.733 84.825C167.55 85.5917 168.692 85.975 170.158 85.975ZM182.761 76.7C183.344 75.75 184.086 75.0417 184.986 74.575C185.903 74.0917 187.011 73.85 188.311 73.85L188.086 75.075L187.686 75.05C186.203 75.05 184.986 75.4917 184.036 76.375C183.086 77.2583 182.436 78.5667 182.086 80.3L180.736 87H179.486L182.086 73.95H183.311L182.761 76.7ZM191.205 73.95H192.455L189.855 87H188.605L191.205 73.95ZM192.605 70.775C192.339 70.775 192.114 70.6833 191.93 70.5C191.747 70.3167 191.655 70.1 191.655 69.85C191.655 69.55 191.755 69.2917 191.955 69.075C192.172 68.8583 192.439 68.75 192.755 68.75C193.022 68.75 193.247 68.8417 193.43 69.025C193.63 69.2083 193.73 69.425 193.73 69.675C193.73 69.9917 193.622 70.2583 193.405 70.475C193.189 70.675 192.922 70.775 192.605 70.775ZM195.699 80.75C195.665 81.1167 195.649 81.3917 195.649 81.575C195.649 82.9917 196.057 84.0833 196.874 84.85C197.69 85.6 198.89 85.975 200.474 85.975C201.39 85.975 202.232 85.825 202.999 85.525C203.782 85.2083 204.432 84.775 204.949 84.225L205.524 85.1C204.94 85.7333 204.19 86.225 203.274 86.575C202.374 86.925 201.407 87.1 200.374 87.1C198.524 87.1 197.065 86.6167 195.999 85.65C194.949 84.6833 194.424 83.3417 194.424 81.625C194.424 80.1583 194.732 78.8333 195.349 77.65C195.965 76.4667 196.815 75.5417 197.899 74.875C198.982 74.1917 200.199 73.85 201.549 73.85C203.249 73.85 204.599 74.3333 205.599 75.3C206.599 76.2667 207.099 77.6 207.099 79.3C207.099 79.7 207.049 80.1833 206.949 80.75H195.699ZM201.524 74.925C200.107 74.925 198.882 75.3667 197.849 76.25C196.832 77.1333 196.165 78.3083 195.849 79.775H205.899C205.915 79.625 205.924 79.4083 205.924 79.125C205.924 77.8083 205.524 76.7833 204.724 76.05C203.924 75.3 202.857 74.925 201.524 74.925ZM223.14 73.95L220.54 87H219.315L219.815 84.525C218.599 86.2417 216.815 87.1 214.465 87.1C212.999 87.1 211.865 86.7333 211.065 86C210.282 85.25 209.89 84.225 209.89 82.925C209.89 82.475 209.94 82 210.04 81.5L211.54 73.95H212.79L211.29 81.5C211.207 81.8667 211.165 82.2833 211.165 82.75C211.165 83.7833 211.465 84.5833 212.065 85.15C212.682 85.7 213.59 85.975 214.79 85.975C216.29 85.975 217.532 85.5583 218.515 84.725C219.499 83.875 220.149 82.65 220.465 81.05L221.89 73.95H223.14ZM228.864 87.1C227.847 87.1 226.872 86.95 225.939 86.65C225.022 86.3333 224.306 85.9333 223.789 85.45L224.464 84.475C224.947 84.9417 225.589 85.3167 226.389 85.6C227.206 85.8667 228.064 86 228.964 86C230.314 86 231.356 85.7667 232.089 85.3C232.839 84.8167 233.214 84.15 233.214 83.3C233.214 82.8167 233.064 82.4333 232.764 82.15C232.464 81.8667 232.097 81.6583 231.664 81.525C231.231 81.375 230.631 81.2167 229.864 81.05C228.964 80.8667 228.231 80.675 227.664 80.475C227.114 80.275 226.647 79.9667 226.264 79.55C225.881 79.1167 225.689 78.5333 225.689 77.8C225.689 76.6 226.181 75.6417 227.164 74.925C228.164 74.2083 229.489 73.85 231.139 73.85C231.972 73.85 232.781 73.9667 233.564 74.2C234.347 74.4167 234.972 74.725 235.439 75.125L234.864 76.1C234.381 75.7167 233.797 75.4333 233.114 75.25C232.447 75.05 231.756 74.95 231.039 74.95C229.772 74.95 228.764 75.2 228.014 75.7C227.281 76.2 226.914 76.8583 226.914 77.675C226.914 78.175 227.064 78.575 227.364 78.875C227.664 79.1583 228.039 79.375 228.489 79.525C228.956 79.675 229.572 79.8333 230.339 80C231.239 80.1833 231.956 80.375 232.489 80.575C233.039 80.7583 233.506 81.0583 233.889 81.475C234.272 81.8917 234.464 82.4583 234.464 83.175C234.464 84.3917 233.956 85.35 232.939 86.05C231.922 86.75 230.564 87.1 228.864 87.1ZM237.802 80.75C237.769 81.1167 237.752 81.3917 237.752 81.575C237.752 82.9917 238.161 84.0833 238.977 84.85C239.794 85.6 240.994 85.975 242.577 85.975C243.494 85.975 244.336 85.825 245.102 85.525C245.886 85.2083 246.536 84.775 247.052 84.225L247.627 85.1C247.044 85.7333 246.294 86.225 245.377 86.575C244.477 86.925 243.511 87.1 242.477 87.1C240.627 87.1 239.169 86.6167 238.102 85.65C237.052 84.6833 236.527 83.3417 236.527 81.625C236.527 80.1583 236.836 78.8333 237.452 77.65C238.069 76.4667 238.919 75.5417 240.002 74.875C241.086 74.1917 242.302 73.85 243.652 73.85C245.352 73.85 246.702 74.3333 247.702 75.3C248.702 76.2667 249.202 77.6 249.202 79.3C249.202 79.7 249.152 80.1833 249.052 80.75H237.802ZM243.627 74.925C242.211 74.925 240.986 75.3667 239.952 76.25C238.936 77.1333 238.269 78.3083 237.952 79.775H248.002C248.019 79.625 248.027 79.4083 248.027 79.125C248.027 77.8083 247.627 76.7833 246.827 76.05C246.027 75.3 244.961 74.925 243.627 74.925ZM254.744 87.1C253.727 87.1 252.752 86.95 251.819 86.65C250.902 86.3333 250.185 85.9333 249.669 85.45L250.344 84.475C250.827 84.9417 251.469 85.3167 252.269 85.6C253.085 85.8667 253.944 86 254.844 86C256.194 86 257.235 85.7667 257.969 85.3C258.719 84.8167 259.094 84.15 259.094 83.3C259.094 82.8167 258.944 82.4333 258.644 82.15C258.344 81.8667 257.977 81.6583 257.544 81.525C257.11 81.375 256.51 81.2167 255.744 81.05C254.844 80.8667 254.11 80.675 253.544 80.475C252.994 80.275 252.527 79.9667 252.144 79.55C251.76 79.1167 251.569 78.5333 251.569 77.8C251.569 76.6 252.06 75.6417 253.044 74.925C254.044 74.2083 255.369 73.85 257.019 73.85C257.852 73.85 258.66 73.9667 259.444 74.2C260.227 74.4167 260.852 74.725 261.319 75.125L260.744 76.1C260.26 75.7167 259.677 75.4333 258.994 75.25C258.327 75.05 257.635 74.95 256.919 74.95C255.652 74.95 254.644 75.2 253.894 75.7C253.16 76.2 252.794 76.8583 252.794 77.675C252.794 78.175 252.944 78.575 253.244 78.875C253.544 79.1583 253.919 79.375 254.369 79.525C254.835 79.675 255.452 79.8333 256.219 80C257.119 80.1833 257.835 80.375 258.369 80.575C258.919 80.7583 259.385 81.0583 259.769 81.475C260.152 81.8917 260.344 82.4583 260.344 83.175C260.344 84.3917 259.835 85.35 258.819 86.05C257.802 86.75 256.444 87.1 254.744 87.1ZM273.078 80.475L268.503 85.15H267.253L271.803 80.4L269.203 75.775H270.378L273.078 80.475ZM277.253 80.475L272.678 85.15H271.428L275.978 80.4L273.378 75.775H274.553L277.253 80.475Z" fill="#292626"/>
</svg>
