<svg width="336" height="212" viewBox="0 0 336 212" fill="none" xmlns="http://www.w3.org/2000/svg">
<rect width="336" height="212" rx="22" fill="#93B4E1"/>
<path d="M19.523 26.147V28H10.598V16.1H19.285V17.953H12.808V21.047H18.554V22.866H12.808V26.147H19.523ZM27.1049 28.17C25.9035 28.17 24.8155 27.9093 23.8409 27.388C22.8775 26.8553 22.1182 26.1243 21.5629 25.195C21.0189 24.2657 20.7469 23.2173 20.7469 22.05C20.7469 20.8827 21.0245 19.8343 21.5799 18.905C22.1352 17.9757 22.8945 17.2503 23.8579 16.729C24.8325 16.1963 25.9205 15.93 27.1219 15.93C28.0965 15.93 28.9862 16.1 29.7909 16.44C30.5955 16.78 31.2755 17.273 31.8309 17.919L30.4029 19.262C29.5415 18.3327 28.4819 17.868 27.2239 17.868C26.4079 17.868 25.6769 18.0493 25.0309 18.412C24.3849 18.7633 23.8805 19.2563 23.5179 19.891C23.1552 20.5257 22.9739 21.2453 22.9739 22.05C22.9739 22.8547 23.1552 23.5743 23.5179 24.209C23.8805 24.8437 24.3849 25.3423 25.0309 25.705C25.6769 26.0563 26.4079 26.232 27.2239 26.232C28.4819 26.232 29.5415 25.7617 30.4029 24.821L31.8309 26.181C31.2755 26.827 30.5899 27.32 29.7739 27.66C28.9692 28 28.0795 28.17 27.1049 28.17ZM38.8674 28.17C37.6661 28.17 36.5781 27.9093 35.6034 27.388C34.6401 26.8553 33.8807 26.1243 33.3254 25.195C32.7814 24.2657 32.5094 23.2173 32.5094 22.05C32.5094 20.8827 32.7871 19.8343 33.3424 18.905C33.8977 17.9757 34.6571 17.2503 35.6204 16.729C36.5951 16.1963 37.6831 15.93 38.8844 15.93C39.8591 15.93 40.7487 16.1 41.5534 16.44C42.3581 16.78 43.0381 17.273 43.5934 17.919L42.1654 19.262C41.3041 18.3327 40.2444 17.868 38.9864 17.868C38.1704 17.868 37.4394 18.0493 36.7934 18.412C36.1474 18.7633 35.6431 19.2563 35.2804 19.891C34.9177 20.5257 34.7364 21.2453 34.7364 22.05C34.7364 22.8547 34.9177 23.5743 35.2804 24.209C35.6431 24.8437 36.1474 25.3423 36.7934 25.705C37.4394 26.0563 38.1704 26.232 38.9864 26.232C40.2444 26.232 41.3041 25.7617 42.1654 24.821L43.5934 26.181C43.0381 26.827 42.3524 27.32 41.5364 27.66C40.7317 28 39.8421 28.17 38.8674 28.17ZM55.945 16.1V28H53.735V22.9H47.581V28H45.371V16.1H47.581V21.013H53.735V16.1H55.945ZM67.7187 26.147V28H58.7937V16.1H67.4807V17.953H61.0037V21.047H66.7497V22.866H61.0037V26.147H67.7187ZM77.6283 28L75.1973 24.515C75.0953 24.5263 74.9423 24.532 74.7383 24.532H72.0523V28H69.8423V16.1H74.7383C75.7697 16.1 76.665 16.27 77.4243 16.61C78.195 16.95 78.7843 17.4373 79.1923 18.072C79.6003 18.7067 79.8043 19.4603 79.8043 20.333C79.8043 21.2283 79.5833 21.999 79.1413 22.645C78.7107 23.291 78.0873 23.7727 77.2713 24.09L80.0083 28H77.6283ZM77.5773 20.333C77.5773 19.5737 77.328 18.99 76.8293 18.582C76.3307 18.174 75.5997 17.97 74.6363 17.97H72.0523V22.713H74.6363C75.5997 22.713 76.3307 22.509 76.8293 22.101C77.328 21.6817 77.5773 21.0923 77.5773 20.333ZM94.0132 25.246H88.0632L86.8902 28H84.6122L89.9672 16.1H92.1432L97.5152 28H95.2032L94.0132 25.246ZM93.2822 23.512L91.0382 18.31L88.8112 23.512H93.2822ZM107.412 18.922V26.623C107.412 29.819 105.78 31.417 102.516 31.417C101.643 31.417 100.816 31.3037 100.034 31.077C99.2515 30.8617 98.6055 30.5443 98.0955 30.125L99.0475 28.527C99.4442 28.8557 99.9429 29.1163 100.544 29.309C101.156 29.513 101.773 29.615 102.397 29.615C103.394 29.615 104.125 29.3883 104.59 28.935C105.054 28.4817 105.287 27.7903 105.287 26.861V26.385C104.924 26.7817 104.482 27.082 103.961 27.286C103.439 27.49 102.867 27.592 102.244 27.592C101.382 27.592 100.6 27.4107 99.8975 27.048C99.2062 26.674 98.6565 26.1527 98.2485 25.484C97.8519 24.8153 97.6535 24.0503 97.6535 23.189C97.6535 22.3277 97.8519 21.5683 98.2485 20.911C98.6565 20.2423 99.2062 19.7267 99.8975 19.364C100.6 19.0013 101.382 18.82 102.244 18.82C102.901 18.82 103.496 18.9277 104.029 19.143C104.573 19.3583 105.026 19.687 105.389 20.129V18.922H107.412ZM102.567 25.79C103.371 25.79 104.029 25.552 104.539 25.076C105.06 24.5887 105.321 23.9597 105.321 23.189C105.321 22.4297 105.06 21.812 104.539 21.336C104.029 20.86 103.371 20.622 102.567 20.622C101.751 20.622 101.082 20.86 100.561 21.336C100.051 21.812 99.7955 22.4297 99.7955 23.189C99.7955 23.9597 100.051 24.5887 100.561 25.076C101.082 25.552 101.751 25.79 102.567 25.79ZM113.333 18.82C114.671 18.82 115.691 19.143 116.393 19.789C117.107 20.4237 117.464 21.387 117.464 22.679V28H115.458V26.895C115.198 27.2917 114.824 27.5977 114.336 27.813C113.86 28.017 113.282 28.119 112.602 28.119C111.922 28.119 111.327 28.0057 110.817 27.779C110.307 27.541 109.911 27.218 109.627 26.81C109.355 26.3907 109.219 25.9203 109.219 25.399C109.219 24.583 109.52 23.9313 110.12 23.444C110.732 22.9453 111.69 22.696 112.993 22.696H115.339V22.56C115.339 21.9253 115.147 21.438 114.761 21.098C114.387 20.758 113.826 20.588 113.078 20.588C112.568 20.588 112.064 20.6673 111.565 20.826C111.078 20.9847 110.664 21.2057 110.324 21.489L109.491 19.942C109.967 19.5793 110.54 19.3017 111.208 19.109C111.877 18.9163 112.585 18.82 113.333 18.82ZM113.044 26.572C113.577 26.572 114.047 26.453 114.455 26.215C114.875 25.9657 115.169 25.6143 115.339 25.161V24.107H113.146C111.922 24.107 111.31 24.5093 111.31 25.314C111.31 25.6993 111.463 26.0053 111.769 26.232C112.075 26.4587 112.5 26.572 113.044 26.572ZM125.308 27.507C125.059 27.711 124.753 27.864 124.39 27.966C124.039 28.068 123.665 28.119 123.268 28.119C122.271 28.119 121.5 27.8583 120.956 27.337C120.412 26.8157 120.14 26.0563 120.14 25.059V20.69H118.644V18.99H120.14V16.916H122.265V18.99H124.696V20.69H122.265V25.008C122.265 25.45 122.373 25.79 122.588 26.028C122.804 26.2547 123.115 26.368 123.523 26.368C123.999 26.368 124.396 26.2433 124.713 25.994L125.308 27.507ZM131.868 18.82C133.012 18.82 133.93 19.1543 134.622 19.823C135.313 20.4917 135.659 21.4833 135.659 22.798V28H133.534V23.07C133.534 22.2767 133.347 21.6817 132.973 21.285C132.599 20.877 132.066 20.673 131.375 20.673C130.593 20.673 129.975 20.911 129.522 21.387C129.068 21.8517 128.842 22.526 128.842 23.41V28H126.717V15.386H128.842V19.976C129.193 19.602 129.624 19.3187 130.134 19.126C130.655 18.922 131.233 18.82 131.868 18.82ZM146.631 23.512C146.631 23.6593 146.62 23.869 146.597 24.141H139.474C139.599 24.8097 139.922 25.3423 140.443 25.739C140.976 26.1243 141.633 26.317 142.415 26.317C143.413 26.317 144.234 25.9883 144.88 25.331L146.019 26.64C145.611 27.1273 145.096 27.4957 144.472 27.745C143.849 27.9943 143.146 28.119 142.364 28.119C141.367 28.119 140.489 27.9207 139.729 27.524C138.97 27.1273 138.381 26.5777 137.961 25.875C137.553 25.161 137.349 24.3563 137.349 23.461C137.349 22.577 137.548 21.7837 137.944 21.081C138.352 20.367 138.913 19.8117 139.627 19.415C140.341 19.0183 141.146 18.82 142.041 18.82C142.925 18.82 143.713 19.0183 144.404 19.415C145.107 19.8003 145.651 20.35 146.036 21.064C146.433 21.7667 146.631 22.5827 146.631 23.512ZM142.041 20.52C141.361 20.52 140.783 20.724 140.307 21.132C139.843 21.5287 139.559 22.0613 139.457 22.73H144.608C144.518 22.0727 144.24 21.54 143.775 21.132C143.311 20.724 142.733 20.52 142.041 20.52Z" fill="#292626"/>
<path d="M43.6 72.5L46.225 77.15H45.025L42.325 72.475L46.9 67.775H48.175L43.6 72.5ZM47.775 72.5L50.4 77.15H49.2L46.5 72.475L51.075 67.775H52.35L47.775 72.5ZM64.0979 62.65L62.5979 70.125H71.8979L71.6729 71.275H62.3729L60.8229 79H59.5479L63.0479 61.5H74.7479L74.4979 62.65H64.0979ZM75.0055 72.75C74.9721 73.1167 74.9555 73.3917 74.9555 73.575C74.9555 74.9917 75.3638 76.0833 76.1805 76.85C76.9971 77.6 78.1971 77.975 79.7805 77.975C80.6971 77.975 81.5388 77.825 82.3055 77.525C83.0888 77.2083 83.7388 76.775 84.2555 76.225L84.8305 77.1C84.2471 77.7333 83.4971 78.225 82.5805 78.575C81.6805 78.925 80.7138 79.1 79.6805 79.1C77.8305 79.1 76.3721 78.6167 75.3055 77.65C74.2555 76.6833 73.7305 75.3417 73.7305 73.625C73.7305 72.1583 74.0388 70.8333 74.6555 69.65C75.2721 68.4667 76.1221 67.5417 77.2055 66.875C78.2888 66.1917 79.5055 65.85 80.8555 65.85C82.5555 65.85 83.9055 66.3333 84.9055 67.3C85.9055 68.2667 86.4055 69.6 86.4055 71.3C86.4055 71.7 86.3555 72.1833 86.2555 72.75H75.0055ZM80.8305 66.925C79.4138 66.925 78.1888 67.3667 77.1555 68.25C76.1388 69.1333 75.4721 70.3083 75.1555 71.775H85.2055C85.2221 71.625 85.2305 71.4083 85.2305 71.125C85.2305 69.8083 84.8305 68.7833 84.0305 68.05C83.2305 67.3 82.1638 66.925 80.8305 66.925ZM83.9805 60.875H85.8555L81.6055 63.825H80.1805L83.9805 60.875ZM106.947 65.85C108.414 65.85 109.539 66.2167 110.322 66.95C111.105 67.6667 111.497 68.675 111.497 69.975C111.497 70.425 111.447 70.9167 111.347 71.45L109.822 79H108.572L110.097 71.45C110.18 71.0667 110.222 70.6417 110.222 70.175C110.222 69.1583 109.922 68.375 109.322 67.825C108.722 67.2583 107.847 66.975 106.697 66.975C105.264 66.975 104.064 67.375 103.097 68.175C102.147 68.9583 101.522 70.1 101.222 71.6L99.7219 79H98.4719L99.9969 71.45C100.08 71.0667 100.122 70.6417 100.122 70.175C100.122 69.1583 99.8219 68.375 99.2219 67.825C98.6219 67.2583 97.7469 66.975 96.5969 66.975C95.1469 66.975 93.9385 67.4 92.9719 68.25C92.0052 69.0833 91.3635 70.3 91.0469 71.9L89.6219 79H88.3719L90.9719 65.95H92.1969L91.6969 68.4C92.3135 67.5333 93.0635 66.8917 93.9469 66.475C94.8302 66.0583 95.8219 65.85 96.9219 65.85C98.1219 65.85 99.0885 66.1083 99.8219 66.625C100.555 67.125 101.039 67.8417 101.272 68.775C101.922 67.8083 102.73 67.0833 103.697 66.6C104.664 66.1 105.747 65.85 106.947 65.85ZM117.083 65.95H118.333L115.733 79H114.483L117.083 65.95ZM118.483 62.775C118.217 62.775 117.992 62.6833 117.808 62.5C117.625 62.3167 117.533 62.1 117.533 61.85C117.533 61.55 117.633 61.2917 117.833 61.075C118.05 60.8583 118.317 60.75 118.633 60.75C118.9 60.75 119.125 60.8417 119.308 61.025C119.508 61.2083 119.608 61.425 119.608 61.675C119.608 61.9917 119.5 62.2583 119.283 62.475C119.067 62.675 118.8 62.775 118.483 62.775ZM129.227 65.85C130.71 65.85 131.852 66.225 132.652 66.975C133.452 67.7083 133.852 68.725 133.852 70.025C133.852 70.475 133.802 70.95 133.702 71.45L132.202 79H130.952L132.452 71.45C132.535 71.0667 132.577 70.65 132.577 70.2C132.577 69.1667 132.26 68.375 131.627 67.825C131.01 67.2583 130.102 66.975 128.902 66.975C127.402 66.975 126.152 67.4 125.152 68.25C124.152 69.0833 123.493 70.3 123.177 71.9L121.752 79H120.502L123.102 65.95H124.327L123.827 68.425C124.443 67.5583 125.21 66.9167 126.127 66.5C127.06 66.0667 128.093 65.85 129.227 65.85ZM139.423 65.95H140.673L138.073 79H136.823L139.423 65.95ZM140.823 62.775C140.556 62.775 140.331 62.6833 140.148 62.5C139.965 62.3167 139.873 62.1 139.873 61.85C139.873 61.55 139.973 61.2917 140.173 61.075C140.39 60.8583 140.656 60.75 140.973 60.75C141.24 60.75 141.465 60.8417 141.648 61.025C141.848 61.2083 141.948 61.425 141.948 61.675C141.948 61.9917 141.84 62.2583 141.623 62.475C141.406 62.675 141.14 62.775 140.823 62.775ZM146.417 79.1C145.4 79.1 144.425 78.95 143.492 78.65C142.575 78.3333 141.858 77.9333 141.342 77.45L142.017 76.475C142.5 76.9417 143.142 77.3167 143.942 77.6C144.758 77.8667 145.617 78 146.517 78C147.867 78 148.908 77.7667 149.642 77.3C150.392 76.8167 150.767 76.15 150.767 75.3C150.767 74.8167 150.617 74.4333 150.317 74.15C150.017 73.8667 149.65 73.6583 149.217 73.525C148.783 73.375 148.183 73.2167 147.417 73.05C146.517 72.8667 145.783 72.675 145.217 72.475C144.667 72.275 144.2 71.9667 143.817 71.55C143.433 71.1167 143.242 70.5333 143.242 69.8C143.242 68.6 143.733 67.6417 144.717 66.925C145.717 66.2083 147.042 65.85 148.692 65.85C149.525 65.85 150.333 65.9667 151.117 66.2C151.9 66.4167 152.525 66.725 152.992 67.125L152.417 68.1C151.933 67.7167 151.35 67.4333 150.667 67.25C150 67.05 149.308 66.95 148.592 66.95C147.325 66.95 146.317 67.2 145.567 67.7C144.833 68.2 144.467 68.8583 144.467 69.675C144.467 70.175 144.617 70.575 144.917 70.875C145.217 71.1583 145.592 71.375 146.042 71.525C146.508 71.675 147.125 71.8333 147.892 72C148.792 72.1833 149.508 72.375 150.042 72.575C150.592 72.7583 151.058 73.0583 151.442 73.475C151.825 73.8917 152.017 74.4583 152.017 75.175C152.017 76.3917 151.508 77.35 150.492 78.05C149.475 78.75 148.117 79.1 146.417 79.1ZM172.855 65.85C174.322 65.85 175.447 66.2167 176.23 66.95C177.013 67.6667 177.405 68.675 177.405 69.975C177.405 70.425 177.355 70.9167 177.255 71.45L175.73 79H174.48L176.005 71.45C176.088 71.0667 176.13 70.6417 176.13 70.175C176.13 69.1583 175.83 68.375 175.23 67.825C174.63 67.2583 173.755 66.975 172.605 66.975C171.172 66.975 169.972 67.375 169.005 68.175C168.055 68.9583 167.43 70.1 167.13 71.6L165.63 79H164.38L165.905 71.45C165.988 71.0667 166.03 70.6417 166.03 70.175C166.03 69.1583 165.73 68.375 165.13 67.825C164.53 67.2583 163.655 66.975 162.505 66.975C161.055 66.975 159.847 67.4 158.88 68.25C157.913 69.0833 157.272 70.3 156.955 71.9L155.53 79H154.28L156.88 65.95H158.105L157.605 68.4C158.222 67.5333 158.972 66.8917 159.855 66.475C160.738 66.0583 161.73 65.85 162.83 65.85C164.03 65.85 164.997 66.1083 165.73 66.625C166.463 67.125 166.947 67.8417 167.18 68.775C167.83 67.8083 168.638 67.0833 169.605 66.6C170.572 66.1 171.655 65.85 172.855 65.85ZM181.491 72.75C181.457 73.1167 181.441 73.3917 181.441 73.575C181.441 74.9917 181.849 76.0833 182.666 76.85C183.482 77.6 184.682 77.975 186.266 77.975C187.182 77.975 188.024 77.825 188.791 77.525C189.574 77.2083 190.224 76.775 190.741 76.225L191.316 77.1C190.732 77.7333 189.982 78.225 189.066 78.575C188.166 78.925 187.199 79.1 186.166 79.1C184.316 79.1 182.857 78.6167 181.791 77.65C180.741 76.6833 180.216 75.3417 180.216 73.625C180.216 72.1583 180.524 70.8333 181.141 69.65C181.757 68.4667 182.607 67.5417 183.691 66.875C184.774 66.1917 185.991 65.85 187.341 65.85C189.041 65.85 190.391 66.3333 191.391 67.3C192.391 68.2667 192.891 69.6 192.891 71.3C192.891 71.7 192.841 72.1833 192.741 72.75H181.491ZM187.316 66.925C185.899 66.925 184.674 67.3667 183.641 68.25C182.624 69.1333 181.957 70.3083 181.641 71.775H191.691C191.707 71.625 191.716 71.4083 191.716 71.125C191.716 69.8083 191.316 68.7833 190.516 68.05C189.716 67.3 188.649 66.925 187.316 66.925ZM201.853 72.75C201.82 73.1167 201.803 73.3917 201.803 73.575C201.803 74.9917 202.211 76.0833 203.028 76.85C203.845 77.6 205.045 77.975 206.628 77.975C207.545 77.975 208.386 77.825 209.153 77.525C209.936 77.2083 210.586 76.775 211.103 76.225L211.678 77.1C211.095 77.7333 210.345 78.225 209.428 78.575C208.528 78.925 207.561 79.1 206.528 79.1C204.678 79.1 203.22 78.6167 202.153 77.65C201.103 76.6833 200.578 75.3417 200.578 73.625C200.578 72.1583 200.886 70.8333 201.503 69.65C202.12 68.4667 202.97 67.5417 204.053 66.875C205.136 66.1917 206.353 65.85 207.703 65.85C209.403 65.85 210.753 66.3333 211.753 67.3C212.753 68.2667 213.253 69.6 213.253 71.3C213.253 71.7 213.203 72.1833 213.103 72.75H201.853ZM207.678 66.925C206.261 66.925 205.036 67.3667 204.003 68.25C202.986 69.1333 202.32 70.3083 202.003 71.775H212.053C212.07 71.625 212.078 71.4083 212.078 71.125C212.078 69.8083 211.678 68.7833 210.878 68.05C210.078 67.3 209.011 66.925 207.678 66.925ZM217.495 75.225C217.428 75.5417 217.395 75.85 217.395 76.15C217.395 77.4 218.061 78.025 219.395 78.025C220.195 78.025 220.903 77.7833 221.52 77.3L221.895 78.225C221.178 78.8083 220.245 79.1 219.095 79.1C218.161 79.1 217.428 78.8583 216.895 78.375C216.378 77.875 216.12 77.1917 216.12 76.325C216.12 75.975 216.153 75.6417 216.22 75.325L217.895 67.025H215.47L215.67 65.95H218.095L218.67 63.1H219.92L219.345 65.95H223.495L223.295 67.025H219.145L217.495 75.225ZM234.301 60.45H235.551L231.851 79H230.601L234.301 60.45ZM250.695 65.95L248.095 79H246.87L247.37 76.525C246.153 78.2417 244.37 79.1 242.02 79.1C240.553 79.1 239.42 78.7333 238.62 78C237.837 77.25 237.445 76.225 237.445 74.925C237.445 74.475 237.495 74 237.595 73.5L239.095 65.95H240.345L238.845 73.5C238.762 73.8667 238.72 74.2833 238.72 74.75C238.72 75.7833 239.02 76.5833 239.62 77.15C240.237 77.7 241.145 77.975 242.345 77.975C243.845 77.975 245.087 77.5583 246.07 76.725C247.053 75.875 247.703 74.65 248.02 73.05L249.445 65.95H250.695ZM255.119 75.225C255.052 75.5417 255.019 75.85 255.019 76.15C255.019 77.4 255.685 78.025 257.019 78.025C257.819 78.025 258.527 77.7833 259.144 77.3L259.519 78.225C258.802 78.8083 257.869 79.1 256.719 79.1C255.785 79.1 255.052 78.8583 254.519 78.375C254.002 77.875 253.744 77.1917 253.744 76.325C253.744 75.975 253.777 75.6417 253.844 75.325L255.519 67.025H253.094L253.294 65.95H255.719L256.294 63.1H257.544L256.969 65.95H261.119L260.919 67.025H256.769L255.119 75.225ZM264.238 75.225C264.171 75.5417 264.138 75.85 264.138 76.15C264.138 77.4 264.804 78.025 266.138 78.025C266.938 78.025 267.646 77.7833 268.263 77.3L268.638 78.225C267.921 78.8083 266.988 79.1 265.838 79.1C264.904 79.1 264.171 78.8583 263.638 78.375C263.121 77.875 262.863 77.1917 262.863 76.325C262.863 75.975 262.896 75.6417 262.963 75.325L264.638 67.025H262.213L262.413 65.95H264.838L265.413 63.1H266.663L266.088 65.95H270.238L270.038 67.025H265.888L264.238 75.225ZM272.035 72.75C272.001 73.1167 271.985 73.3917 271.985 73.575C271.985 74.9917 272.393 76.0833 273.21 76.85C274.026 77.6 275.226 77.975 276.81 77.975C277.726 77.975 278.568 77.825 279.335 77.525C280.118 77.2083 280.768 76.775 281.285 76.225L281.86 77.1C281.276 77.7333 280.526 78.225 279.61 78.575C278.71 78.925 277.743 79.1 276.71 79.1C274.86 79.1 273.401 78.6167 272.335 77.65C271.285 76.6833 270.76 75.3417 270.76 73.625C270.76 72.1583 271.068 70.8333 271.685 69.65C272.301 68.4667 273.151 67.5417 274.235 66.875C275.318 66.1917 276.535 65.85 277.885 65.85C279.585 65.85 280.935 66.3333 281.935 67.3C282.935 68.2667 283.435 69.6 283.435 71.3C283.435 71.7 283.385 72.1833 283.285 72.75H272.035ZM277.86 66.925C276.443 66.925 275.218 67.3667 274.185 68.25C273.168 69.1333 272.501 70.3083 272.185 71.775H282.235C282.251 71.625 282.26 71.4083 282.26 71.125C282.26 69.8083 281.86 68.7833 281.06 68.05C280.26 67.3 279.193 66.925 277.86 66.925ZM306.647 60.45L302.947 79H301.747L302.247 76.45C301.614 77.2833 300.822 77.9333 299.872 78.4C298.939 78.8667 297.897 79.1 296.747 79.1C295.047 79.1 293.68 78.6167 292.647 77.65C291.63 76.6667 291.122 75.3417 291.122 73.675C291.122 72.1917 291.439 70.8583 292.072 69.675C292.705 68.475 293.58 67.5417 294.697 66.875C295.83 66.1917 297.097 65.85 298.497 65.85C299.847 65.85 300.964 66.1417 301.847 66.725C302.73 67.3083 303.33 68.1417 303.647 69.225L305.397 60.45H306.647ZM296.997 77.975C298.164 77.975 299.205 77.6917 300.122 77.125C301.055 76.5583 301.789 75.775 302.322 74.775C302.855 73.7583 303.122 72.6167 303.122 71.35C303.122 69.9667 302.714 68.8917 301.897 68.125C301.097 67.3583 299.964 66.975 298.497 66.975C297.33 66.975 296.28 67.2667 295.347 67.85C294.43 68.4167 293.705 69.2083 293.172 70.225C292.639 71.225 292.372 72.35 292.372 73.6C292.372 74.9833 292.772 76.0583 293.572 76.825C294.389 77.5917 295.53 77.975 296.997 77.975ZM308.767 72.75C308.734 73.1167 308.717 73.3917 308.717 73.575C308.717 74.9917 309.126 76.0833 309.942 76.85C310.759 77.6 311.959 77.975 313.542 77.975C314.459 77.975 315.301 77.825 316.067 77.525C316.851 77.2083 317.501 76.775 318.017 76.225L318.592 77.1C318.009 77.7333 317.259 78.225 316.342 78.575C315.442 78.925 314.476 79.1 313.442 79.1C311.592 79.1 310.134 78.6167 309.067 77.65C308.017 76.6833 307.492 75.3417 307.492 73.625C307.492 72.1583 307.801 70.8333 308.417 69.65C309.034 68.4667 309.884 67.5417 310.967 66.875C312.051 66.1917 313.267 65.85 314.617 65.85C316.317 65.85 317.667 66.3333 318.667 67.3C319.667 68.2667 320.167 69.6 320.167 71.3C320.167 71.7 320.117 72.1833 320.017 72.75H308.767ZM314.592 66.925C313.176 66.925 311.951 67.3667 310.917 68.25C309.901 69.1333 309.234 70.3083 308.917 71.775H318.967C318.984 71.625 318.992 71.4083 318.992 71.125C318.992 69.8083 318.592 68.7833 317.792 68.05C316.992 67.3 315.926 66.925 314.592 66.925ZM46.025 109.45H47.275L43.575 128H42.325L46.025 109.45ZM51.7686 109.35C52.0519 109.35 52.2852 109.45 52.4686 109.65C52.6686 109.85 52.7686 110.092 52.7686 110.375C52.7686 110.542 52.7436 110.708 52.6936 110.875C52.6436 111.025 52.5519 111.217 52.4186 111.45L50.6686 114.95H49.7686L51.2936 111.4C51.1102 111.317 50.9602 111.192 50.8436 111.025C50.7269 110.858 50.6686 110.667 50.6686 110.45C50.6686 110.133 50.7769 109.875 50.9936 109.675C51.2102 109.458 51.4686 109.35 51.7686 109.35ZM53.191 121.75C53.1577 122.117 53.141 122.392 53.141 122.575C53.141 123.992 53.5493 125.083 54.366 125.85C55.1827 126.6 56.3827 126.975 57.966 126.975C58.8827 126.975 59.7243 126.825 60.491 126.525C61.2743 126.208 61.9243 125.775 62.441 125.225L63.016 126.1C62.4327 126.733 61.6827 127.225 60.766 127.575C59.866 127.925 58.8993 128.1 57.866 128.1C56.016 128.1 54.5577 127.617 53.491 126.65C52.441 125.683 51.916 124.342 51.916 122.625C51.916 121.158 52.2243 119.833 52.841 118.65C53.4577 117.467 54.3077 116.542 55.391 115.875C56.4743 115.192 57.691 114.85 59.041 114.85C60.741 114.85 62.091 115.333 63.091 116.3C64.091 117.267 64.591 118.6 64.591 120.3C64.591 120.7 64.541 121.183 64.441 121.75H53.191ZM59.016 115.925C57.5993 115.925 56.3743 116.367 55.341 117.25C54.3243 118.133 53.6577 119.308 53.341 120.775H63.391C63.4077 120.625 63.416 120.408 63.416 120.125C63.416 118.808 63.016 117.783 62.216 117.05C61.416 116.3 60.3493 115.925 59.016 115.925ZM62.166 109.875H64.041L59.791 112.825H58.366L62.166 109.875ZM81.8824 109.45L78.1824 128H76.9824L77.4824 125.45C76.8491 126.283 76.0574 126.933 75.1074 127.4C74.1741 127.867 73.1324 128.1 71.9824 128.1C70.2824 128.1 68.9158 127.617 67.8824 126.65C66.8658 125.667 66.3574 124.342 66.3574 122.675C66.3574 121.192 66.6741 119.858 67.3074 118.675C67.9408 117.475 68.8158 116.542 69.9324 115.875C71.0658 115.192 72.3324 114.85 73.7324 114.85C75.0824 114.85 76.1991 115.142 77.0824 115.725C77.9658 116.308 78.5658 117.142 78.8824 118.225L80.6324 109.45H81.8824ZM72.2324 126.975C73.3991 126.975 74.4408 126.692 75.3574 126.125C76.2908 125.558 77.0241 124.775 77.5574 123.775C78.0908 122.758 78.3574 121.617 78.3574 120.35C78.3574 118.967 77.9491 117.892 77.1324 117.125C76.3324 116.358 75.1991 115.975 73.7324 115.975C72.5658 115.975 71.5158 116.267 70.5824 116.85C69.6658 117.417 68.9408 118.208 68.4074 119.225C67.8741 120.225 67.6074 121.35 67.6074 122.6C67.6074 123.983 68.0074 125.058 68.8074 125.825C69.6241 126.592 70.7658 126.975 72.2324 126.975ZM97.0025 114.95L94.4025 128H93.1775L93.6775 125.525C92.4609 127.242 90.6775 128.1 88.3275 128.1C86.8609 128.1 85.7275 127.733 84.9275 127C84.1442 126.25 83.7525 125.225 83.7525 123.925C83.7525 123.475 83.8025 123 83.9025 122.5L85.4025 114.95H86.6525L85.1525 122.5C85.0692 122.867 85.0275 123.283 85.0275 123.75C85.0275 124.783 85.3275 125.583 85.9275 126.15C86.5442 126.7 87.4525 126.975 88.6525 126.975C90.1525 126.975 91.3942 126.558 92.3775 125.725C93.3609 124.875 94.0109 123.65 94.3275 122.05L95.7525 114.95H97.0025ZM104.826 128.1C103.026 128.1 101.593 127.608 100.526 126.625C99.4762 125.642 98.9512 124.325 98.9512 122.675C98.9512 121.192 99.2678 119.858 99.9012 118.675C100.551 117.475 101.443 116.542 102.576 115.875C103.726 115.192 105.018 114.85 106.451 114.85C107.618 114.85 108.618 115.058 109.451 115.475C110.285 115.875 110.935 116.483 111.401 117.3L110.376 117.925C109.593 116.625 108.26 115.975 106.376 115.975C105.193 115.975 104.135 116.267 103.201 116.85C102.268 117.417 101.535 118.2 101.001 119.2C100.468 120.2 100.201 121.333 100.201 122.6C100.201 123.983 100.61 125.058 101.426 125.825C102.243 126.592 103.41 126.975 104.926 126.975C105.793 126.975 106.601 126.808 107.351 126.475C108.118 126.142 108.751 125.675 109.251 125.075L110.126 125.775C109.56 126.508 108.801 127.083 107.851 127.5C106.918 127.9 105.91 128.1 104.826 128.1ZM126.524 114.95L123.924 128H122.724L123.224 125.45C122.59 126.283 121.799 126.933 120.849 127.4C119.915 127.867 118.874 128.1 117.724 128.1C116.024 128.1 114.657 127.617 113.624 126.65C112.607 125.667 112.099 124.342 112.099 122.675C112.099 121.192 112.415 119.858 113.049 118.675C113.682 117.475 114.557 116.542 115.674 115.875C116.807 115.192 118.074 114.85 119.474 114.85C120.824 114.85 121.94 115.142 122.824 115.725C123.707 116.308 124.307 117.133 124.624 118.2L125.274 114.95H126.524ZM117.974 126.975C119.14 126.975 120.182 126.692 121.099 126.125C122.032 125.558 122.765 124.775 123.299 123.775C123.832 122.758 124.099 121.617 124.099 120.35C124.099 118.967 123.69 117.892 122.874 117.125C122.074 116.358 120.94 115.975 119.474 115.975C118.307 115.975 117.257 116.267 116.324 116.85C115.407 117.417 114.682 118.208 114.149 119.225C113.615 120.225 113.349 121.35 113.349 122.6C113.349 123.983 113.749 125.058 114.549 125.825C115.365 126.592 116.507 126.975 117.974 126.975ZM130.944 124.225C130.877 124.542 130.844 124.85 130.844 125.15C130.844 126.4 131.51 127.025 132.844 127.025C133.644 127.025 134.352 126.783 134.969 126.3L135.344 127.225C134.627 127.808 133.694 128.1 132.544 128.1C131.61 128.1 130.877 127.858 130.344 127.375C129.827 126.875 129.569 126.192 129.569 125.325C129.569 124.975 129.602 124.642 129.669 124.325L131.344 116.025H128.919L129.119 114.95H131.544L132.119 112.1H133.369L132.794 114.95H136.944L136.744 116.025H132.594L130.944 124.225ZM140.73 114.95H141.98L139.38 128H138.13L140.73 114.95ZM142.13 111.775C141.863 111.775 141.638 111.683 141.455 111.5C141.271 111.317 141.18 111.1 141.18 110.85C141.18 110.55 141.28 110.292 141.48 110.075C141.696 109.858 141.963 109.75 142.28 109.75C142.546 109.75 142.771 109.842 142.955 110.025C143.155 110.208 143.255 110.425 143.255 110.675C143.255 110.992 143.146 111.258 142.93 111.475C142.713 111.675 142.446 111.775 142.13 111.775ZM149.723 128.1C147.957 128.1 146.548 127.608 145.498 126.625C144.465 125.642 143.948 124.325 143.948 122.675C143.948 121.192 144.265 119.858 144.898 118.675C145.548 117.492 146.44 116.558 147.573 115.875C148.707 115.192 149.99 114.85 151.423 114.85C153.19 114.85 154.59 115.342 155.623 116.325C156.673 117.292 157.198 118.608 157.198 120.275C157.198 121.758 156.873 123.1 156.223 124.3C155.59 125.483 154.707 126.417 153.573 127.1C152.44 127.767 151.157 128.1 149.723 128.1ZM149.823 126.975C150.99 126.975 152.032 126.692 152.948 126.125C153.882 125.558 154.615 124.775 155.148 123.775C155.682 122.758 155.948 121.617 155.948 120.35C155.948 118.967 155.54 117.892 154.723 117.125C153.923 116.358 152.79 115.975 151.323 115.975C150.157 115.975 149.107 116.267 148.173 116.85C147.257 117.417 146.532 118.208 145.998 119.225C145.465 120.225 145.198 121.35 145.198 122.6C145.198 123.983 145.598 125.058 146.398 125.825C147.215 126.592 148.357 126.975 149.823 126.975ZM167.876 114.85C169.36 114.85 170.501 115.225 171.301 115.975C172.101 116.708 172.501 117.725 172.501 119.025C172.501 119.475 172.451 119.95 172.351 120.45L170.851 128H169.601L171.101 120.45C171.185 120.067 171.226 119.65 171.226 119.2C171.226 118.167 170.91 117.375 170.276 116.825C169.66 116.258 168.751 115.975 167.551 115.975C166.051 115.975 164.801 116.4 163.801 117.25C162.801 118.083 162.143 119.3 161.826 120.9L160.401 128H159.151L161.751 114.95H162.976L162.476 117.425C163.093 116.558 163.86 115.917 164.776 115.5C165.71 115.067 166.743 114.85 167.876 114.85ZM196.718 109.45L193.018 128H191.818L192.318 125.45C191.685 126.283 190.893 126.933 189.943 127.4C189.01 127.867 187.968 128.1 186.818 128.1C185.118 128.1 183.752 127.617 182.718 126.65C181.702 125.667 181.193 124.342 181.193 122.675C181.193 121.192 181.51 119.858 182.143 118.675C182.777 117.475 183.652 116.542 184.768 115.875C185.902 115.192 187.168 114.85 188.568 114.85C189.918 114.85 191.035 115.142 191.918 115.725C192.802 116.308 193.402 117.142 193.718 118.225L195.468 109.45H196.718ZM187.068 126.975C188.235 126.975 189.277 126.692 190.193 126.125C191.127 125.558 191.86 124.775 192.393 123.775C192.927 122.758 193.193 121.617 193.193 120.35C193.193 118.967 192.785 117.892 191.968 117.125C191.168 116.358 190.035 115.975 188.568 115.975C187.402 115.975 186.352 116.267 185.418 116.85C184.502 117.417 183.777 118.208 183.243 119.225C182.71 120.225 182.443 121.35 182.443 122.6C182.443 123.983 182.843 125.058 183.643 125.825C184.46 126.592 185.602 126.975 187.068 126.975ZM198.838 121.75C198.805 122.117 198.788 122.392 198.788 122.575C198.788 123.992 199.197 125.083 200.013 125.85C200.83 126.6 202.03 126.975 203.613 126.975C204.53 126.975 205.372 126.825 206.138 126.525C206.922 126.208 207.572 125.775 208.088 125.225L208.663 126.1C208.08 126.733 207.33 127.225 206.413 127.575C205.513 127.925 204.547 128.1 203.513 128.1C201.663 128.1 200.205 127.617 199.138 126.65C198.088 125.683 197.563 124.342 197.563 122.625C197.563 121.158 197.872 119.833 198.488 118.65C199.105 117.467 199.955 116.542 201.038 115.875C202.122 115.192 203.338 114.85 204.688 114.85C206.388 114.85 207.738 115.333 208.738 116.3C209.738 117.267 210.238 118.6 210.238 120.3C210.238 120.7 210.188 121.183 210.088 121.75H198.838ZM204.663 115.925C203.247 115.925 202.022 116.367 200.988 117.25C199.972 118.133 199.305 119.308 198.988 120.775H209.038C209.055 120.625 209.063 120.408 209.063 120.125C209.063 118.808 208.663 117.783 207.863 117.05C207.063 116.3 205.997 115.925 204.663 115.925ZM215.78 128.1C214.763 128.1 213.788 127.95 212.855 127.65C211.938 127.333 211.222 126.933 210.705 126.45L211.38 125.475C211.863 125.942 212.505 126.317 213.305 126.6C214.122 126.867 214.98 127 215.88 127C217.23 127 218.272 126.767 219.005 126.3C219.755 125.817 220.13 125.15 220.13 124.3C220.13 123.817 219.98 123.433 219.68 123.15C219.38 122.867 219.013 122.658 218.58 122.525C218.147 122.375 217.547 122.217 216.78 122.05C215.88 121.867 215.147 121.675 214.58 121.475C214.03 121.275 213.563 120.967 213.18 120.55C212.797 120.117 212.605 119.533 212.605 118.8C212.605 117.6 213.097 116.642 214.08 115.925C215.08 115.208 216.405 114.85 218.055 114.85C218.888 114.85 219.697 114.967 220.48 115.2C221.263 115.417 221.888 115.725 222.355 116.125L221.78 117.1C221.297 116.717 220.713 116.433 220.03 116.25C219.363 116.05 218.672 115.95 217.955 115.95C216.688 115.95 215.68 116.2 214.93 116.7C214.197 117.2 213.83 117.858 213.83 118.675C213.83 119.175 213.98 119.575 214.28 119.875C214.58 120.158 214.955 120.375 215.405 120.525C215.872 120.675 216.488 120.833 217.255 121C218.155 121.183 218.872 121.375 219.405 121.575C219.955 121.758 220.422 122.058 220.805 122.475C221.188 122.892 221.38 123.458 221.38 124.175C221.38 125.392 220.872 126.35 219.855 127.05C218.838 127.75 217.48 128.1 215.78 128.1ZM236.989 110.425C236.173 110.425 235.523 110.642 235.039 111.075C234.556 111.508 234.223 112.2 234.039 113.15L233.664 114.95H237.839L237.639 116.025H233.464L231.089 128H229.839L232.239 116.025H229.814L230.014 114.95H232.439L232.839 112.975C233.073 111.792 233.539 110.892 234.239 110.275C234.956 109.658 235.881 109.35 237.014 109.35C237.531 109.35 238.014 109.425 238.464 109.575C238.914 109.725 239.273 109.942 239.539 110.225L238.939 111.125C238.439 110.658 237.789 110.425 236.989 110.425ZM242.364 114.95H243.614L241.014 128H239.764L242.364 114.95ZM243.764 111.775C243.498 111.775 243.273 111.683 243.089 111.5C242.906 111.317 242.814 111.1 242.814 110.85C242.814 110.55 242.914 110.292 243.114 110.075C243.331 109.858 243.598 109.75 243.914 109.75C244.181 109.75 244.406 109.842 244.589 110.025C244.789 110.208 244.889 110.425 244.889 110.675C244.889 110.992 244.781 111.258 244.564 111.475C244.348 111.675 244.081 111.775 243.764 111.775ZM249.488 109.45H250.738L247.038 128H245.788L249.488 109.45ZM255.506 109.45H256.756L253.056 128H251.806L255.506 109.45ZM258.9 121.75C258.867 122.117 258.85 122.392 258.85 122.575C258.85 123.992 259.258 125.083 260.075 125.85C260.892 126.6 262.092 126.975 263.675 126.975C264.592 126.975 265.433 126.825 266.2 126.525C266.983 126.208 267.633 125.775 268.15 125.225L268.725 126.1C268.142 126.733 267.392 127.225 266.475 127.575C265.575 127.925 264.608 128.1 263.575 128.1C261.725 128.1 260.267 127.617 259.2 126.65C258.15 125.683 257.625 124.342 257.625 122.625C257.625 121.158 257.933 119.833 258.55 118.65C259.167 117.467 260.017 116.542 261.1 115.875C262.183 115.192 263.4 114.85 264.75 114.85C266.45 114.85 267.8 115.333 268.8 116.3C269.8 117.267 270.3 118.6 270.3 120.3C270.3 120.7 270.25 121.183 270.15 121.75H258.9ZM264.725 115.925C263.308 115.925 262.083 116.367 261.05 117.25C260.033 118.133 259.367 119.308 259.05 120.775H269.1C269.117 120.625 269.125 120.408 269.125 120.125C269.125 118.808 268.725 117.783 267.925 117.05C267.125 116.3 266.058 115.925 264.725 115.925ZM275.841 128.1C274.825 128.1 273.85 127.95 272.916 127.65C272 127.333 271.283 126.933 270.766 126.45L271.441 125.475C271.925 125.942 272.566 126.317 273.366 126.6C274.183 126.867 275.041 127 275.941 127C277.291 127 278.333 126.767 279.066 126.3C279.816 125.817 280.191 125.15 280.191 124.3C280.191 123.817 280.041 123.433 279.741 123.15C279.441 122.867 279.075 122.658 278.641 122.525C278.208 122.375 277.608 122.217 276.841 122.05C275.941 121.867 275.208 121.675 274.641 121.475C274.091 121.275 273.625 120.967 273.241 120.55C272.858 120.117 272.666 119.533 272.666 118.8C272.666 117.6 273.158 116.642 274.141 115.925C275.141 115.208 276.466 114.85 278.116 114.85C278.95 114.85 279.758 114.967 280.541 115.2C281.325 115.417 281.95 115.725 282.416 116.125L281.841 117.1C281.358 116.717 280.775 116.433 280.091 116.25C279.425 116.05 278.733 115.95 278.016 115.95C276.75 115.95 275.741 116.2 274.991 116.7C274.258 117.2 273.891 117.858 273.891 118.675C273.891 119.175 274.041 119.575 274.341 119.875C274.641 120.158 275.016 120.375 275.466 120.525C275.933 120.675 276.55 120.833 277.316 121C278.216 121.183 278.933 121.375 279.466 121.575C280.016 121.758 280.483 122.058 280.866 122.475C281.25 122.892 281.441 123.458 281.441 124.175C281.441 125.392 280.933 126.35 279.916 127.05C278.9 127.75 277.541 128.1 275.841 128.1ZM57.65 158.45L53.95 177H52.75L53.25 174.45C52.6167 175.283 51.825 175.933 50.875 176.4C49.9417 176.867 48.9 177.1 47.75 177.1C46.05 177.1 44.6833 176.617 43.65 175.65C42.6333 174.667 42.125 173.342 42.125 171.675C42.125 170.192 42.4417 168.858 43.075 167.675C43.7083 166.475 44.5833 165.542 45.7 164.875C46.8333 164.192 48.1 163.85 49.5 163.85C50.85 163.85 51.9667 164.142 52.85 164.725C53.7333 165.308 54.3333 166.142 54.65 167.225L56.4 158.45H57.65ZM48 175.975C49.1667 175.975 50.2083 175.692 51.125 175.125C52.0583 174.558 52.7917 173.775 53.325 172.775C53.8583 171.758 54.125 170.617 54.125 169.35C54.125 167.967 53.7167 166.892 52.9 166.125C52.1 165.358 50.9667 164.975 49.5 164.975C48.3333 164.975 47.2833 165.267 46.35 165.85C45.4333 166.417 44.7083 167.208 44.175 168.225C43.6417 169.225 43.375 170.35 43.375 171.6C43.375 172.983 43.775 174.058 44.575 174.825C45.3917 175.592 46.5333 175.975 48 175.975ZM72.9201 163.95L70.3201 177H69.1201L69.6201 174.45C68.9868 175.283 68.1951 175.933 67.2451 176.4C66.3118 176.867 65.2701 177.1 64.1201 177.1C62.4201 177.1 61.0535 176.617 60.0201 175.65C59.0035 174.667 58.4951 173.342 58.4951 171.675C58.4951 170.192 58.8118 168.858 59.4451 167.675C60.0785 166.475 60.9535 165.542 62.0701 164.875C63.2035 164.192 64.4701 163.85 65.8701 163.85C67.2201 163.85 68.3368 164.142 69.2201 164.725C70.1035 165.308 70.7035 166.133 71.0201 167.2L71.6701 163.95H72.9201ZM64.3701 175.975C65.5368 175.975 66.5785 175.692 67.4951 175.125C68.4285 174.558 69.1618 173.775 69.6951 172.775C70.2285 171.758 70.4951 170.617 70.4951 169.35C70.4951 167.967 70.0868 166.892 69.2701 166.125C68.4701 165.358 67.3368 164.975 65.8701 164.975C64.7035 164.975 63.6535 165.267 62.7201 165.85C61.8035 166.417 61.0785 167.208 60.5451 168.225C60.0118 169.225 59.7451 170.35 59.7451 171.6C59.7451 172.983 60.1451 174.058 60.9451 174.825C61.7618 175.592 62.9035 175.975 64.3701 175.975ZM83.7902 163.85C85.2736 163.85 86.4152 164.225 87.2152 164.975C88.0152 165.708 88.4152 166.725 88.4152 168.025C88.4152 168.475 88.3652 168.95 88.2652 169.45L86.7652 177H85.5152L87.0152 169.45C87.0986 169.067 87.1402 168.65 87.1402 168.2C87.1402 167.167 86.8236 166.375 86.1902 165.825C85.5736 165.258 84.6652 164.975 83.4652 164.975C81.9652 164.975 80.7152 165.4 79.7152 166.25C78.7152 167.083 78.0569 168.3 77.7402 169.9L76.3152 177H75.0652L77.6652 163.95H78.8902L78.3902 166.425C79.0069 165.558 79.7736 164.917 80.6902 164.5C81.6236 164.067 82.6569 163.85 83.7902 163.85ZM94.9615 177.1C93.9449 177.1 92.9699 176.95 92.0365 176.65C91.1199 176.333 90.4032 175.933 89.8865 175.45L90.5615 174.475C91.0449 174.942 91.6865 175.317 92.4865 175.6C93.3032 175.867 94.1615 176 95.0615 176C96.4115 176 97.4532 175.767 98.1865 175.3C98.9365 174.817 99.3115 174.15 99.3115 173.3C99.3115 172.817 99.1615 172.433 98.8615 172.15C98.5615 171.867 98.1949 171.658 97.7615 171.525C97.3282 171.375 96.7282 171.217 95.9615 171.05C95.0615 170.867 94.3282 170.675 93.7615 170.475C93.2115 170.275 92.7449 169.967 92.3615 169.55C91.9782 169.117 91.7865 168.533 91.7865 167.8C91.7865 166.6 92.2782 165.642 93.2615 164.925C94.2615 164.208 95.5865 163.85 97.2365 163.85C98.0699 163.85 98.8782 163.967 99.6615 164.2C100.445 164.417 101.07 164.725 101.537 165.125L100.962 166.1C100.478 165.717 99.8949 165.433 99.2115 165.25C98.5449 165.05 97.8532 164.95 97.1365 164.95C95.8699 164.95 94.8615 165.2 94.1115 165.7C93.3782 166.2 93.0115 166.858 93.0115 167.675C93.0115 168.175 93.1615 168.575 93.4615 168.875C93.7615 169.158 94.1365 169.375 94.5865 169.525C95.0532 169.675 95.6699 169.833 96.4365 170C97.3365 170.183 98.0532 170.375 98.5865 170.575C99.1365 170.758 99.6032 171.058 99.9865 171.475C100.37 171.892 100.562 172.458 100.562 173.175C100.562 174.392 100.053 175.35 99.0365 176.05C98.0199 176.75 96.6615 177.1 94.9615 177.1ZM112.446 158.45H113.696L109.996 177H108.746L112.446 158.45ZM115.839 170.75C115.806 171.117 115.789 171.392 115.789 171.575C115.789 172.992 116.198 174.083 117.014 174.85C117.831 175.6 119.031 175.975 120.614 175.975C121.531 175.975 122.373 175.825 123.139 175.525C123.923 175.208 124.573 174.775 125.089 174.225L125.664 175.1C125.081 175.733 124.331 176.225 123.414 176.575C122.514 176.925 121.548 177.1 120.514 177.1C118.664 177.1 117.206 176.617 116.139 175.65C115.089 174.683 114.564 173.342 114.564 171.625C114.564 170.158 114.873 168.833 115.489 167.65C116.106 166.467 116.956 165.542 118.039 164.875C119.123 164.192 120.339 163.85 121.689 163.85C123.389 163.85 124.739 164.333 125.739 165.3C126.739 166.267 127.239 167.6 127.239 169.3C127.239 169.7 127.189 170.183 127.089 170.75H115.839ZM121.664 164.925C120.248 164.925 119.023 165.367 117.989 166.25C116.973 167.133 116.306 168.308 115.989 169.775H126.039C126.056 169.625 126.064 169.408 126.064 169.125C126.064 167.808 125.664 166.783 124.864 166.05C124.064 165.3 122.998 164.925 121.664 164.925ZM153.702 163.85C155.168 163.85 156.293 164.217 157.077 164.95C157.86 165.667 158.252 166.675 158.252 167.975C158.252 168.425 158.202 168.917 158.102 169.45L156.577 177H155.327L156.852 169.45C156.935 169.067 156.977 168.642 156.977 168.175C156.977 167.158 156.677 166.375 156.077 165.825C155.477 165.258 154.602 164.975 153.452 164.975C152.018 164.975 150.818 165.375 149.852 166.175C148.902 166.958 148.277 168.1 147.977 169.6L146.477 177H145.227L146.752 169.45C146.835 169.067 146.877 168.642 146.877 168.175C146.877 167.158 146.577 166.375 145.977 165.825C145.377 165.258 144.502 164.975 143.352 164.975C141.902 164.975 140.693 165.4 139.727 166.25C138.76 167.083 138.118 168.3 137.802 169.9L136.377 177H135.127L137.727 163.95H138.952L138.452 166.4C139.068 165.533 139.818 164.892 140.702 164.475C141.585 164.058 142.577 163.85 143.677 163.85C144.877 163.85 145.843 164.108 146.577 164.625C147.31 165.125 147.793 165.842 148.027 166.775C148.677 165.808 149.485 165.083 150.452 164.6C151.418 164.1 152.502 163.85 153.702 163.85ZM166.838 177.1C165.071 177.1 163.663 176.608 162.613 175.625C161.579 174.642 161.063 173.325 161.063 171.675C161.063 170.192 161.379 168.858 162.013 167.675C162.663 166.492 163.554 165.558 164.688 164.875C165.821 164.192 167.104 163.85 168.538 163.85C170.304 163.85 171.704 164.342 172.738 165.325C173.788 166.292 174.313 167.608 174.313 169.275C174.313 170.758 173.988 172.1 173.338 173.3C172.704 174.483 171.821 175.417 170.688 176.1C169.554 176.767 168.271 177.1 166.838 177.1ZM166.938 175.975C168.104 175.975 169.146 175.692 170.063 175.125C170.996 174.558 171.729 173.775 172.263 172.775C172.796 171.758 173.063 170.617 173.063 169.35C173.063 167.967 172.654 166.892 171.838 166.125C171.038 165.358 169.904 164.975 168.438 164.975C167.271 164.975 166.221 165.267 165.288 165.85C164.371 166.417 163.646 167.208 163.113 168.225C162.579 169.225 162.313 170.35 162.313 171.6C162.313 172.983 162.713 174.058 163.513 174.825C164.329 175.592 165.471 175.975 166.938 175.975ZM184.99 163.85C186.474 163.85 187.615 164.225 188.415 164.975C189.215 165.708 189.615 166.725 189.615 168.025C189.615 168.475 189.565 168.95 189.465 169.45L187.965 177H186.715L188.215 169.45C188.299 169.067 188.34 168.65 188.34 168.2C188.34 167.167 188.024 166.375 187.39 165.825C186.774 165.258 185.865 164.975 184.665 164.975C183.165 164.975 181.915 165.4 180.915 166.25C179.915 167.083 179.257 168.3 178.94 169.9L177.515 177H176.265L178.865 163.95H180.09L179.59 166.425C180.207 165.558 180.974 164.917 181.89 164.5C182.824 164.067 183.857 163.85 184.99 163.85ZM207.936 158.45L204.236 177H203.036L203.536 174.45C202.903 175.283 202.111 175.933 201.161 176.4C200.228 176.867 199.186 177.1 198.036 177.1C196.336 177.1 194.969 176.617 193.936 175.65C192.919 174.667 192.411 173.342 192.411 171.675C192.411 170.192 192.728 168.858 193.361 167.675C193.994 166.475 194.869 165.542 195.986 164.875C197.119 164.192 198.386 163.85 199.786 163.85C201.136 163.85 202.253 164.142 203.136 164.725C204.019 165.308 204.619 166.142 204.936 167.225L206.686 158.45H207.936ZM198.286 175.975C199.453 175.975 200.494 175.692 201.411 175.125C202.344 174.558 203.078 173.775 203.611 172.775C204.144 171.758 204.411 170.617 204.411 169.35C204.411 167.967 204.003 166.892 203.186 166.125C202.386 165.358 201.253 164.975 199.786 164.975C198.619 164.975 197.569 165.267 196.636 165.85C195.719 166.417 194.994 167.208 194.461 168.225C193.928 169.225 193.661 170.35 193.661 171.6C193.661 172.983 194.061 174.058 194.861 174.825C195.678 175.592 196.819 175.975 198.286 175.975ZM210.056 170.75C210.023 171.117 210.006 171.392 210.006 171.575C210.006 172.992 210.415 174.083 211.231 174.85C212.048 175.6 213.248 175.975 214.831 175.975C215.748 175.975 216.59 175.825 217.356 175.525C218.14 175.208 218.79 174.775 219.306 174.225L219.881 175.1C219.298 175.733 218.548 176.225 217.631 176.575C216.731 176.925 215.765 177.1 214.731 177.1C212.881 177.1 211.423 176.617 210.356 175.65C209.306 174.683 208.781 173.342 208.781 171.625C208.781 170.158 209.09 168.833 209.706 167.65C210.323 166.467 211.173 165.542 212.256 164.875C213.34 164.192 214.556 163.85 215.906 163.85C217.606 163.85 218.956 164.333 219.956 165.3C220.956 166.267 221.456 167.6 221.456 169.3C221.456 169.7 221.406 170.183 221.306 170.75H210.056ZM215.881 164.925C214.465 164.925 213.24 165.367 212.206 166.25C211.19 167.133 210.523 168.308 210.206 169.775H220.256C220.273 169.625 220.281 169.408 220.281 169.125C220.281 167.808 219.881 166.783 219.081 166.05C218.281 165.3 217.215 164.925 215.881 164.925ZM233.894 170.475L229.319 175.15H228.069L232.619 170.4L230.019 165.775H231.194L233.894 170.475ZM238.069 170.475L233.494 175.15H232.244L236.794 170.4L234.194 165.775H235.369L238.069 170.475Z" fill="#292626"/>
</svg>
