<svg width="336" height="129" viewBox="0 0 336 129" fill="none" xmlns="http://www.w3.org/2000/svg">
<rect width="336" height="129" rx="22" fill="#B9D7EA"/>
<path d="M12.808 18.953V22.574H18.554V24.444H12.808V29H10.598V17.1H19.285V18.953H12.808ZM30.0072 27.147V29H21.0822V17.1H29.7692V18.953H23.2922V22.047H29.0382V23.866H23.2922V27.147H30.0072ZM39.9169 29L37.4859 25.515C37.3839 25.5263 37.2309 25.532 37.0269 25.532H34.3409V29H32.1309V17.1H37.0269C38.0582 17.1 38.9536 17.27 39.7129 17.61C40.4836 17.95 41.0729 18.4373 41.4809 19.072C41.8889 19.7067 42.0929 20.4603 42.0929 21.333C42.0929 22.2283 41.8719 22.999 41.4299 23.645C40.9992 24.291 40.3759 24.7727 39.5599 25.09L42.2969 29H39.9169ZM39.8659 21.333C39.8659 20.5737 39.6166 19.99 39.1179 19.582C38.6192 19.174 37.8882 18.97 36.9249 18.97H34.3409V23.713H36.9249C37.8882 23.713 38.6192 23.509 39.1179 23.101C39.6166 22.6817 39.8659 22.0923 39.8659 21.333ZM52.0115 29L49.5805 25.515C49.4785 25.5263 49.3255 25.532 49.1215 25.532H46.4355V29H44.2255V17.1H49.1215C50.1528 17.1 51.0481 17.27 51.8075 17.61C52.5781 17.95 53.1675 18.4373 53.5755 19.072C53.9835 19.7067 54.1875 20.4603 54.1875 21.333C54.1875 22.2283 53.9665 22.999 53.5245 23.645C53.0938 24.291 52.4705 24.7727 51.6545 25.09L54.3915 29H52.0115ZM51.9605 21.333C51.9605 20.5737 51.7111 19.99 51.2125 19.582C50.7138 19.174 49.9828 18.97 49.0195 18.97H46.4355V23.713H49.0195C49.9828 23.713 50.7138 23.509 51.2125 23.101C51.7111 22.6817 51.9605 22.0923 51.9605 21.333ZM61.288 24.801V29H59.078V24.835L54.403 17.1H56.766L60.251 22.897L63.77 17.1H65.946L61.288 24.801ZM79.8435 22.812C80.5008 23.0273 81.0222 23.39 81.4075 23.9C81.7928 24.3987 81.9855 25.022 81.9855 25.77C81.9855 26.8013 81.5888 27.6003 80.7955 28.167C80.0022 28.7223 78.8462 29 77.3275 29H71.4115V17.1H76.9875C78.3928 17.1 79.4752 17.3777 80.2345 17.933C80.9938 18.477 81.3735 19.2307 81.3735 20.194C81.3735 20.7833 81.2375 21.3047 80.9655 21.758C80.6935 22.2113 80.3195 22.5627 79.8435 22.812ZM73.6215 18.834V22.115H76.7495C77.5202 22.115 78.1095 21.979 78.5175 21.707C78.9368 21.4237 79.1465 21.0157 79.1465 20.483C79.1465 19.939 78.9368 19.531 78.5175 19.259C78.1095 18.9757 77.5202 18.834 76.7495 18.834H73.6215ZM77.1915 27.266C78.9028 27.266 79.7585 26.6937 79.7585 25.549C79.7585 24.4043 78.9028 23.832 77.1915 23.832H73.6215V27.266H77.1915ZM85.8231 21.248C86.4351 20.296 87.5118 19.82 89.0531 19.82V21.843C88.8718 21.809 88.7075 21.792 88.5601 21.792C87.7328 21.792 87.0868 22.0357 86.6221 22.523C86.1575 22.999 85.9251 23.6903 85.9251 24.597V29H83.8001V19.922H85.8231V21.248ZM99.3478 19.922L95.0978 29.731C94.7012 30.717 94.2195 31.4083 93.6528 31.805C93.0862 32.213 92.4005 32.417 91.5958 32.417C91.1425 32.417 90.6948 32.3433 90.2528 32.196C89.8108 32.0487 89.4482 31.8447 89.1648 31.584L90.0148 30.02C90.2188 30.2127 90.4568 30.3657 90.7288 30.479C91.0122 30.5923 91.2955 30.649 91.5788 30.649C91.9528 30.649 92.2588 30.5527 92.4968 30.36C92.7462 30.1673 92.9728 29.8443 93.1768 29.391L93.3298 29.034L89.3688 19.922H91.5788L94.4348 26.637L97.3078 19.922H99.3478ZM103.522 19.82C104.859 19.82 105.879 20.143 106.582 20.789C107.296 21.4237 107.653 22.387 107.653 23.679V29H105.647V27.895C105.386 28.2917 105.012 28.5977 104.525 28.813C104.049 29.017 103.471 29.119 102.791 29.119C102.111 29.119 101.516 29.0057 101.006 28.779C100.496 28.541 100.099 28.218 99.8157 27.81C99.5437 27.3907 99.4077 26.9203 99.4077 26.399C99.4077 25.583 99.7081 24.9313 100.309 24.444C100.921 23.9453 101.878 23.696 103.182 23.696H105.528V23.56C105.528 22.9253 105.335 22.438 104.95 22.098C104.576 21.758 104.015 21.588 103.267 21.588C102.757 21.588 102.252 21.6673 101.754 21.826C101.266 21.9847 100.853 22.2057 100.513 22.489L99.6797 20.942C100.156 20.5793 100.728 20.3017 101.397 20.109C102.065 19.9163 102.774 19.82 103.522 19.82ZM103.233 27.572C103.765 27.572 104.236 27.453 104.644 27.215C105.063 26.9657 105.358 26.6143 105.528 26.161V25.107H103.335C102.111 25.107 101.499 25.5093 101.499 26.314C101.499 26.6993 101.652 27.0053 101.958 27.232C102.264 27.4587 102.689 27.572 103.233 27.572ZM115.191 19.82C116.336 19.82 117.254 20.1543 117.945 20.823C118.636 21.4917 118.982 22.4833 118.982 23.798V29H116.857V24.07C116.857 23.2767 116.67 22.6817 116.296 22.285C115.922 21.877 115.389 21.673 114.698 21.673C113.916 21.673 113.298 21.911 112.845 22.387C112.392 22.8517 112.165 23.526 112.165 24.41V29H110.04V19.922H112.063V21.095C112.414 20.6757 112.856 20.3583 113.389 20.143C113.922 19.9277 114.522 19.82 115.191 19.82Z" fill="#292626"/>
<path d="M8.6 71.5L11.225 76.15H10.025L7.325 71.475L11.9 66.775H13.175L8.6 71.5ZM12.775 71.5L15.4 76.15H14.2L11.5 71.475L16.075 66.775H17.35L12.775 71.5ZM29.0979 61.65L27.5979 69.125H36.8979L36.6729 70.275H27.3729L25.8229 78H24.5479L28.0479 60.5H39.7479L39.4979 61.65H29.0979ZM40.0055 71.75C39.9721 72.1167 39.9555 72.3917 39.9555 72.575C39.9555 73.9917 40.3638 75.0833 41.1805 75.85C41.9971 76.6 43.1971 76.975 44.7805 76.975C45.6971 76.975 46.5388 76.825 47.3055 76.525C48.0888 76.2083 48.7388 75.775 49.2555 75.225L49.8305 76.1C49.2471 76.7333 48.4971 77.225 47.5805 77.575C46.6805 77.925 45.7138 78.1 44.6805 78.1C42.8305 78.1 41.3721 77.6167 40.3055 76.65C39.2555 75.6833 38.7305 74.3417 38.7305 72.625C38.7305 71.1583 39.0388 69.8333 39.6555 68.65C40.2721 67.4667 41.1221 66.5417 42.2055 65.875C43.2888 65.1917 44.5055 64.85 45.8555 64.85C47.5555 64.85 48.9055 65.3333 49.9055 66.3C50.9055 67.2667 51.4055 68.6 51.4055 70.3C51.4055 70.7 51.3555 71.1833 51.2555 71.75H40.0055ZM45.8305 65.925C44.4138 65.925 43.1888 66.3667 42.1555 67.25C41.1388 68.1333 40.4721 69.3083 40.1555 70.775H50.2055C50.2221 70.625 50.2305 70.4083 50.2305 70.125C50.2305 68.8083 49.8305 67.7833 49.0305 67.05C48.2305 66.3 47.1638 65.925 45.8305 65.925ZM48.9805 59.875H50.8555L46.6055 62.825H45.1805L48.9805 59.875ZM71.9469 64.85C73.4135 64.85 74.5385 65.2167 75.3219 65.95C76.1052 66.6667 76.4969 67.675 76.4969 68.975C76.4969 69.425 76.4469 69.9167 76.3469 70.45L74.8219 78H73.5719L75.0969 70.45C75.1802 70.0667 75.2219 69.6417 75.2219 69.175C75.2219 68.1583 74.9219 67.375 74.3219 66.825C73.7219 66.2583 72.8469 65.975 71.6969 65.975C70.2635 65.975 69.0635 66.375 68.0969 67.175C67.1469 67.9583 66.5219 69.1 66.2219 70.6L64.7219 78H63.4719L64.9969 70.45C65.0802 70.0667 65.1219 69.6417 65.1219 69.175C65.1219 68.1583 64.8219 67.375 64.2219 66.825C63.6219 66.2583 62.7469 65.975 61.5969 65.975C60.1469 65.975 58.9385 66.4 57.9719 67.25C57.0052 68.0833 56.3635 69.3 56.0469 70.9L54.6219 78H53.3719L55.9719 64.95H57.1969L56.6969 67.4C57.3135 66.5333 58.0635 65.8917 58.9469 65.475C59.8302 65.0583 60.8219 64.85 61.9219 64.85C63.1219 64.85 64.0885 65.1083 64.8219 65.625C65.5552 66.125 66.0385 66.8417 66.2719 67.775C66.9219 66.8083 67.7302 66.0833 68.6969 65.6C69.6635 65.1 70.7469 64.85 71.9469 64.85ZM82.0832 64.95H83.3332L80.7332 78H79.4832L82.0832 64.95ZM83.4832 61.775C83.2165 61.775 82.9915 61.6833 82.8082 61.5C82.6249 61.3167 82.5332 61.1 82.5332 60.85C82.5332 60.55 82.6332 60.2917 82.8332 60.075C83.0499 59.8583 83.3165 59.75 83.6332 59.75C83.8999 59.75 84.1249 59.8417 84.3082 60.025C84.5082 60.2083 84.6082 60.425 84.6082 60.675C84.6082 60.9917 84.4999 61.2583 84.2832 61.475C84.0665 61.675 83.7999 61.775 83.4832 61.775ZM94.2268 64.85C95.7101 64.85 96.8518 65.225 97.6518 65.975C98.4518 66.7083 98.8518 67.725 98.8518 69.025C98.8518 69.475 98.8018 69.95 98.7018 70.45L97.2018 78H95.9518L97.4518 70.45C97.5351 70.0667 97.5768 69.65 97.5768 69.2C97.5768 68.1667 97.2601 67.375 96.6268 66.825C96.0101 66.2583 95.1018 65.975 93.9018 65.975C92.4018 65.975 91.1518 66.4 90.1518 67.25C89.1518 68.0833 88.4934 69.3 88.1768 70.9L86.7518 78H85.5018L88.1018 64.95H89.3268L88.8268 67.425C89.4434 66.5583 90.2101 65.9167 91.1268 65.5C92.0601 65.0667 93.0934 64.85 94.2268 64.85ZM104.423 64.95H105.673L103.073 78H101.823L104.423 64.95ZM105.823 61.775C105.556 61.775 105.331 61.6833 105.148 61.5C104.965 61.3167 104.873 61.1 104.873 60.85C104.873 60.55 104.973 60.2917 105.173 60.075C105.39 59.8583 105.656 59.75 105.973 59.75C106.24 59.75 106.465 59.8417 106.648 60.025C106.848 60.2083 106.948 60.425 106.948 60.675C106.948 60.9917 106.84 61.2583 106.623 61.475C106.406 61.675 106.14 61.775 105.823 61.775ZM111.417 78.1C110.4 78.1 109.425 77.95 108.492 77.65C107.575 77.3333 106.858 76.9333 106.342 76.45L107.017 75.475C107.5 75.9417 108.142 76.3167 108.942 76.6C109.758 76.8667 110.617 77 111.517 77C112.867 77 113.908 76.7667 114.642 76.3C115.392 75.8167 115.767 75.15 115.767 74.3C115.767 73.8167 115.617 73.4333 115.317 73.15C115.017 72.8667 114.65 72.6583 114.217 72.525C113.783 72.375 113.183 72.2167 112.417 72.05C111.517 71.8667 110.783 71.675 110.217 71.475C109.667 71.275 109.2 70.9667 108.817 70.55C108.433 70.1167 108.242 69.5333 108.242 68.8C108.242 67.6 108.733 66.6417 109.717 65.925C110.717 65.2083 112.042 64.85 113.692 64.85C114.525 64.85 115.333 64.9667 116.117 65.2C116.9 65.4167 117.525 65.725 117.992 66.125L117.417 67.1C116.933 66.7167 116.35 66.4333 115.667 66.25C115 66.05 114.308 65.95 113.592 65.95C112.325 65.95 111.317 66.2 110.567 66.7C109.833 67.2 109.467 67.8583 109.467 68.675C109.467 69.175 109.617 69.575 109.917 69.875C110.217 70.1583 110.592 70.375 111.042 70.525C111.508 70.675 112.125 70.8333 112.892 71C113.792 71.1833 114.508 71.375 115.042 71.575C115.592 71.7583 116.058 72.0583 116.442 72.475C116.825 72.8917 117.017 73.4583 117.017 74.175C117.017 75.3917 116.508 76.35 115.492 77.05C114.475 77.75 113.117 78.1 111.417 78.1ZM137.855 64.85C139.322 64.85 140.447 65.2167 141.23 65.95C142.013 66.6667 142.405 67.675 142.405 68.975C142.405 69.425 142.355 69.9167 142.255 70.45L140.73 78H139.48L141.005 70.45C141.088 70.0667 141.13 69.6417 141.13 69.175C141.13 68.1583 140.83 67.375 140.23 66.825C139.63 66.2583 138.755 65.975 137.605 65.975C136.172 65.975 134.972 66.375 134.005 67.175C133.055 67.9583 132.43 69.1 132.13 70.6L130.63 78H129.38L130.905 70.45C130.988 70.0667 131.03 69.6417 131.03 69.175C131.03 68.1583 130.73 67.375 130.13 66.825C129.53 66.2583 128.655 65.975 127.505 65.975C126.055 65.975 124.847 66.4 123.88 67.25C122.913 68.0833 122.272 69.3 121.955 70.9L120.53 78H119.28L121.88 64.95H123.105L122.605 67.4C123.222 66.5333 123.972 65.8917 124.855 65.475C125.738 65.0583 126.73 64.85 127.83 64.85C129.03 64.85 129.997 65.1083 130.73 65.625C131.463 66.125 131.947 66.8417 132.18 67.775C132.83 66.8083 133.638 66.0833 134.605 65.6C135.572 65.1 136.655 64.85 137.855 64.85ZM146.491 71.75C146.457 72.1167 146.441 72.3917 146.441 72.575C146.441 73.9917 146.849 75.0833 147.666 75.85C148.482 76.6 149.682 76.975 151.266 76.975C152.182 76.975 153.024 76.825 153.791 76.525C154.574 76.2083 155.224 75.775 155.741 75.225L156.316 76.1C155.732 76.7333 154.982 77.225 154.066 77.575C153.166 77.925 152.199 78.1 151.166 78.1C149.316 78.1 147.857 77.6167 146.791 76.65C145.741 75.6833 145.216 74.3417 145.216 72.625C145.216 71.1583 145.524 69.8333 146.141 68.65C146.757 67.4667 147.607 66.5417 148.691 65.875C149.774 65.1917 150.991 64.85 152.341 64.85C154.041 64.85 155.391 65.3333 156.391 66.3C157.391 67.2667 157.891 68.6 157.891 70.3C157.891 70.7 157.841 71.1833 157.741 71.75H146.491ZM152.316 65.925C150.899 65.925 149.674 66.3667 148.641 67.25C147.624 68.1333 146.957 69.3083 146.641 70.775H156.691C156.707 70.625 156.716 70.4083 156.716 70.125C156.716 68.8083 156.316 67.7833 155.516 67.05C154.716 66.3 153.649 65.925 152.316 65.925ZM179.653 70.65C179.003 72.3167 178.22 73.6917 177.303 74.775L179.353 77.475L178.478 78.25L176.503 75.65C174.803 77.3 172.745 78.125 170.328 78.125C168.778 78.125 167.536 77.775 166.603 77.075C165.686 76.3583 165.228 75.4083 165.228 74.225C165.228 73.0917 165.661 72.0667 166.528 71.15C167.395 70.2167 168.845 69.2417 170.878 68.225L170.853 68.2C170.353 67.5333 169.978 66.9083 169.728 66.325C169.478 65.7417 169.353 65.1583 169.353 64.575C169.353 63.2917 169.778 62.275 170.628 61.525C171.478 60.775 172.595 60.4 173.978 60.4C175.061 60.4 175.928 60.6667 176.578 61.2C177.228 61.7333 177.553 62.4417 177.553 63.325C177.553 64.025 177.386 64.6583 177.053 65.225C176.72 65.775 176.195 66.3083 175.478 66.825C174.778 67.325 173.803 67.8833 172.553 68.5L176.653 73.925C177.436 72.925 178.103 71.725 178.653 70.325L179.653 70.65ZM170.528 64.45C170.528 64.9333 170.636 65.4333 170.853 65.95C171.086 66.4667 171.445 67.0417 171.928 67.675L171.953 67.7C173.136 67.1333 174.045 66.6333 174.678 66.2C175.311 65.7667 175.761 65.3333 176.028 64.9C176.311 64.4667 176.453 63.9667 176.453 63.4C176.453 62.8167 176.228 62.3333 175.778 61.95C175.328 61.5667 174.711 61.375 173.928 61.375C172.895 61.375 172.07 61.6583 171.453 62.225C170.836 62.775 170.528 63.5167 170.528 64.45ZM170.403 77.075C172.52 77.075 174.345 76.3167 175.878 74.8L171.478 69.025C170.211 69.6583 169.211 70.2417 168.478 70.775C167.761 71.2917 167.245 71.8167 166.928 72.35C166.628 72.8667 166.478 73.4417 166.478 74.075C166.478 74.975 166.828 75.7 167.528 76.25C168.228 76.8 169.186 77.075 170.403 77.075ZM205.756 60.5L202.256 78H200.981L202.631 69.7H190.931L189.281 78H188.006L191.506 60.5H192.781L191.181 68.525H202.881L204.481 60.5H205.756ZM221.517 64.95L218.917 78H217.692L218.192 75.525C216.976 77.2417 215.192 78.1 212.842 78.1C211.376 78.1 210.242 77.7333 209.442 77C208.659 76.25 208.267 75.225 208.267 73.925C208.267 73.475 208.317 73 208.417 72.5L209.917 64.95H211.167L209.667 72.5C209.584 72.8667 209.542 73.2833 209.542 73.75C209.542 74.7833 209.842 75.5833 210.442 76.15C211.059 76.7 211.967 76.975 213.167 76.975C214.667 76.975 215.909 76.5583 216.892 75.725C217.876 74.875 218.526 73.65 218.842 72.05L220.267 64.95H221.517ZM242.241 64.85C243.707 64.85 244.832 65.2167 245.616 65.95C246.399 66.6667 246.791 67.675 246.791 68.975C246.791 69.425 246.741 69.9167 246.641 70.45L245.116 78H243.866L245.391 70.45C245.474 70.0667 245.516 69.6417 245.516 69.175C245.516 68.1583 245.216 67.375 244.616 66.825C244.016 66.2583 243.141 65.975 241.991 65.975C240.557 65.975 239.357 66.375 238.391 67.175C237.441 67.9583 236.816 69.1 236.516 70.6L235.016 78H233.766L235.291 70.45C235.374 70.0667 235.416 69.6417 235.416 69.175C235.416 68.1583 235.116 67.375 234.516 66.825C233.916 66.2583 233.041 65.975 231.891 65.975C230.441 65.975 229.232 66.4 228.266 67.25C227.299 68.0833 226.657 69.3 226.341 70.9L224.916 78H223.666L226.266 64.95H227.491L226.991 67.4C227.607 66.5333 228.357 65.8917 229.241 65.475C230.124 65.0583 231.116 64.85 232.216 64.85C233.416 64.85 234.382 65.1083 235.116 65.625C235.849 66.125 236.332 66.8417 236.566 67.775C237.216 66.8083 238.024 66.0833 238.991 65.6C239.957 65.1 241.041 64.85 242.241 64.85ZM264.027 64.95L261.427 78H260.227L260.727 75.45C260.093 76.2833 259.302 76.9333 258.352 77.4C257.418 77.8667 256.377 78.1 255.227 78.1C253.527 78.1 252.16 77.6167 251.127 76.65C250.11 75.6667 249.602 74.3417 249.602 72.675C249.602 71.1917 249.918 69.8583 250.552 68.675C251.185 67.475 252.06 66.5417 253.177 65.875C254.31 65.1917 255.577 64.85 256.977 64.85C258.327 64.85 259.443 65.1417 260.327 65.725C261.21 66.3083 261.81 67.1333 262.127 68.2L262.777 64.95H264.027ZM255.477 76.975C256.643 76.975 257.685 76.6917 258.602 76.125C259.535 75.5583 260.268 74.775 260.802 73.775C261.335 72.7583 261.602 71.6167 261.602 70.35C261.602 68.9667 261.193 67.8917 260.377 67.125C259.577 66.3583 258.443 65.975 256.977 65.975C255.81 65.975 254.76 66.2667 253.827 66.85C252.91 67.4167 252.185 68.2083 251.652 69.225C251.118 70.225 250.852 71.35 250.852 72.6C250.852 73.9833 251.252 75.0583 252.052 75.825C252.868 76.5917 254.01 76.975 255.477 76.975ZM274.897 64.85C276.38 64.85 277.522 65.225 278.322 65.975C279.122 66.7083 279.522 67.725 279.522 69.025C279.522 69.475 279.472 69.95 279.372 70.45L277.872 78H276.622L278.122 70.45C278.205 70.0667 278.247 69.65 278.247 69.2C278.247 68.1667 277.93 67.375 277.297 66.825C276.68 66.2583 275.772 65.975 274.572 65.975C273.072 65.975 271.822 66.4 270.822 67.25C269.822 68.0833 269.163 69.3 268.847 70.9L267.422 78H266.172L268.772 64.95H269.997L269.497 67.425C270.113 66.5583 270.88 65.9167 271.797 65.5C272.73 65.0667 273.763 64.85 274.897 64.85ZM285.093 64.95H286.343L283.743 78H282.493L285.093 64.95ZM286.493 61.775C286.226 61.775 286.001 61.6833 285.818 61.5C285.635 61.3167 285.543 61.1 285.543 60.85C285.543 60.55 285.643 60.2917 285.843 60.075C286.06 59.8583 286.326 59.75 286.643 59.75C286.91 59.75 287.135 59.8417 287.318 60.025C287.518 60.2083 287.618 60.425 287.618 60.675C287.618 60.9917 287.51 61.2583 287.293 61.475C287.076 61.675 286.81 61.775 286.493 61.775ZM290.787 74.225C290.72 74.5417 290.687 74.85 290.687 75.15C290.687 76.4 291.353 77.025 292.687 77.025C293.487 77.025 294.195 76.7833 294.812 76.3L295.187 77.225C294.47 77.8083 293.537 78.1 292.387 78.1C291.453 78.1 290.72 77.8583 290.187 77.375C289.67 76.875 289.412 76.1917 289.412 75.325C289.412 74.975 289.445 74.6417 289.512 74.325L291.187 66.025H288.762L288.962 64.95H291.387L291.962 62.1H293.212L292.637 64.95H296.787L296.587 66.025H292.437L290.787 74.225ZM298.584 71.75C298.55 72.1167 298.534 72.3917 298.534 72.575C298.534 73.9917 298.942 75.0833 299.759 75.85C300.575 76.6 301.775 76.975 303.359 76.975C304.275 76.975 305.117 76.825 305.884 76.525C306.667 76.2083 307.317 75.775 307.834 75.225L308.409 76.1C307.825 76.7333 307.075 77.225 306.159 77.575C305.259 77.925 304.292 78.1 303.259 78.1C301.409 78.1 299.95 77.6167 298.884 76.65C297.834 75.6833 297.309 74.3417 297.309 72.625C297.309 71.1583 297.617 69.8333 298.234 68.65C298.85 67.4667 299.7 66.5417 300.784 65.875C301.867 65.1917 303.084 64.85 304.434 64.85C306.134 64.85 307.484 65.3333 308.484 66.3C309.484 67.2667 309.984 68.6 309.984 70.3C309.984 70.7 309.934 71.1833 309.834 71.75H298.584ZM304.409 65.925C302.992 65.925 301.767 66.3667 300.734 67.25C299.717 68.1333 299.05 69.3083 298.734 70.775H308.784C308.8 70.625 308.809 70.4083 308.809 70.125C308.809 68.8083 308.409 67.7833 307.609 67.05C306.809 66.3 305.742 65.925 304.409 65.925ZM307.559 59.875H309.434L305.184 62.825H303.759L307.559 59.875ZM322.421 71.475L317.846 76.15H316.596L321.146 71.4L318.546 66.775H319.721L322.421 71.475ZM326.596 71.475L322.021 76.15H320.771L325.321 71.4L322.721 66.775H323.896L326.596 71.475Z" fill="#292626"/>
</svg>
