<svg width="336" height="109" viewBox="0 0 336 109" fill="none" xmlns="http://www.w3.org/2000/svg">
<rect width="336" height="109" rx="22" fill="#93B4E1"/>
<path d="M12.808 20.953V24.574H18.554V26.444H12.808V31H10.598V19.1H19.285V20.953H12.808ZM30.0072 29.147V31H21.0822V19.1H29.7692V20.953H23.2922V24.047H29.0382V25.866H23.2922V29.147H30.0072ZM37.2479 31.17C35.6046 31.17 34.3239 30.711 33.4059 29.793C32.4879 28.8637 32.0289 27.5377 32.0289 25.815V19.1H34.2389V25.73C34.2389 28.0647 35.2476 29.232 37.2649 29.232C39.2709 29.232 40.2739 28.0647 40.2739 25.73V19.1H42.4499V25.815C42.4499 27.5377 41.9909 28.8637 41.0729 29.793C40.1662 30.711 38.8912 31.17 37.2479 31.17ZM56.085 19.1L50.9 31H48.724L43.522 19.1H45.919L49.88 28.28L53.875 19.1H56.085ZM64.7867 31L62.3557 27.515C62.2537 27.5263 62.1007 27.532 61.8967 27.532H59.2107V31H57.0007V19.1H61.8967C62.928 19.1 63.8234 19.27 64.5827 19.61C65.3534 19.95 65.9427 20.4373 66.3507 21.072C66.7587 21.7067 66.9627 22.4603 66.9627 23.333C66.9627 24.2283 66.7417 24.999 66.2997 25.645C65.869 26.291 65.2457 26.7727 64.4297 27.09L67.1667 31H64.7867ZM64.7357 23.333C64.7357 22.5737 64.4864 21.99 63.9877 21.582C63.489 21.174 62.758 20.97 61.7947 20.97H59.2107V25.713H61.7947C62.758 25.713 63.489 25.509 63.9877 25.101C64.4864 24.6817 64.7357 24.0923 64.7357 23.333ZM69.0953 19.1H71.3053V31H69.0953V19.1ZM83.109 29.147V31H74.184V19.1H82.871V20.953H76.394V24.047H82.14V25.866H76.394V29.147H83.109ZM93.0187 31L90.5877 27.515C90.4857 27.5263 90.3327 27.532 90.1287 27.532H87.4427V31H85.2327V19.1H90.1287C91.16 19.1 92.0553 19.27 92.8147 19.61C93.5853 19.95 94.1747 20.4373 94.5827 21.072C94.9907 21.7067 95.1947 22.4603 95.1947 23.333C95.1947 24.2283 94.9737 24.999 94.5317 25.645C94.101 26.291 93.4777 26.7727 92.6617 27.09L95.3987 31H93.0187ZM92.9677 23.333C92.9677 22.5737 92.7183 21.99 92.2197 21.582C91.721 21.174 90.99 20.97 90.0267 20.97H87.4427V25.713H90.0267C90.99 25.713 91.721 25.509 92.2197 25.101C92.7183 24.6817 92.9677 24.0923 92.9677 23.333ZM110.61 29.147V31H101.685V19.1H110.372V20.953H103.895V24.047H109.641V25.866H103.895V29.147H110.61ZM112.53 18.386H114.655V31H112.53V18.386ZM117.104 21.922H119.229V31H117.104V21.922ZM118.175 20.426C117.79 20.426 117.467 20.307 117.206 20.069C116.946 19.8197 116.815 19.5137 116.815 19.151C116.815 18.7883 116.946 18.488 117.206 18.25C117.467 18.0007 117.79 17.876 118.175 17.876C118.561 17.876 118.884 17.995 119.144 18.233C119.405 18.4597 119.535 18.7487 119.535 19.1C119.535 19.474 119.405 19.7913 119.144 20.052C118.895 20.3013 118.572 20.426 118.175 20.426ZM125.758 31.119C124.84 31.119 124.013 30.9207 123.276 30.524C122.54 30.1273 121.962 29.5777 121.542 28.875C121.134 28.161 120.93 27.3563 120.93 26.461C120.93 25.5657 121.134 24.7667 121.542 24.064C121.962 23.3613 122.54 22.8117 123.276 22.415C124.013 22.0183 124.84 21.82 125.758 21.82C126.688 21.82 127.521 22.0183 128.257 22.415C128.994 22.8117 129.566 23.3613 129.974 24.064C130.394 24.7667 130.603 25.5657 130.603 26.461C130.603 27.3563 130.394 28.161 129.974 28.875C129.566 29.5777 128.994 30.1273 128.257 30.524C127.521 30.9207 126.688 31.119 125.758 31.119ZM125.758 29.3C126.54 29.3 127.186 29.0393 127.696 28.518C128.206 27.9967 128.461 27.311 128.461 26.461C128.461 25.611 128.206 24.9253 127.696 24.404C127.186 23.8827 126.54 23.622 125.758 23.622C124.976 23.622 124.33 23.8827 123.82 24.404C123.322 24.9253 123.072 25.611 123.072 26.461C123.072 27.311 123.322 27.9967 123.82 28.518C124.33 29.0393 124.976 29.3 125.758 29.3ZM137.752 30.507C137.503 30.711 137.197 30.864 136.834 30.966C136.483 31.068 136.109 31.119 135.712 31.119C134.715 31.119 133.944 30.8583 133.4 30.337C132.856 29.8157 132.584 29.0563 132.584 28.059V23.69H131.088V21.99H132.584V19.916H134.709V21.99H137.14V23.69H134.709V28.008C134.709 28.45 134.817 28.79 135.032 29.028C135.248 29.2547 135.559 29.368 135.967 29.368C136.443 29.368 136.84 29.2433 137.157 28.994L137.752 30.507Z" fill="#292626"/>
<path d="M48.6 73.5L51.225 78.15H50.025L47.325 73.475L51.9 68.775H53.175L48.6 73.5ZM52.775 73.5L55.4 78.15H54.2L51.5 73.475L56.075 68.775H57.35L52.775 73.5ZM69.0979 63.65L67.5979 71.125H76.8979L76.6729 72.275H67.3729L65.8229 80H64.5479L68.0479 62.5H79.7479L79.4979 63.65H69.0979ZM80.0055 73.75C79.9721 74.1167 79.9555 74.3917 79.9555 74.575C79.9555 75.9917 80.3638 77.0833 81.1805 77.85C81.9971 78.6 83.1971 78.975 84.7805 78.975C85.6971 78.975 86.5388 78.825 87.3055 78.525C88.0888 78.2083 88.7388 77.775 89.2555 77.225L89.8305 78.1C89.2471 78.7333 88.4971 79.225 87.5805 79.575C86.6805 79.925 85.7138 80.1 84.6805 80.1C82.8305 80.1 81.3721 79.6167 80.3055 78.65C79.2555 77.6833 78.7305 76.3417 78.7305 74.625C78.7305 73.1583 79.0388 71.8333 79.6555 70.65C80.2721 69.4667 81.1221 68.5417 82.2055 67.875C83.2888 67.1917 84.5055 66.85 85.8555 66.85C87.5555 66.85 88.9055 67.3333 89.9055 68.3C90.9055 69.2667 91.4055 70.6 91.4055 72.3C91.4055 72.7 91.3555 73.1833 91.2555 73.75H80.0055ZM85.8305 67.925C84.4138 67.925 83.1888 68.3667 82.1555 69.25C81.1388 70.1333 80.4721 71.3083 80.1555 72.775H90.2055C90.2221 72.625 90.2305 72.4083 90.2305 72.125C90.2305 70.8083 89.8305 69.7833 89.0305 69.05C88.2305 68.3 87.1638 67.925 85.8305 67.925ZM88.9805 61.875H90.8555L86.6055 64.825H85.1805L88.9805 61.875ZM111.947 66.85C113.414 66.85 114.539 67.2167 115.322 67.95C116.105 68.6667 116.497 69.675 116.497 70.975C116.497 71.425 116.447 71.9167 116.347 72.45L114.822 80H113.572L115.097 72.45C115.18 72.0667 115.222 71.6417 115.222 71.175C115.222 70.1583 114.922 69.375 114.322 68.825C113.722 68.2583 112.847 67.975 111.697 67.975C110.264 67.975 109.064 68.375 108.097 69.175C107.147 69.9583 106.522 71.1 106.222 72.6L104.722 80H103.472L104.997 72.45C105.08 72.0667 105.122 71.6417 105.122 71.175C105.122 70.1583 104.822 69.375 104.222 68.825C103.622 68.2583 102.747 67.975 101.597 67.975C100.147 67.975 98.9385 68.4 97.9719 69.25C97.0052 70.0833 96.3635 71.3 96.0469 72.9L94.6219 80H93.3719L95.9719 66.95H97.1969L96.6969 69.4C97.3135 68.5333 98.0635 67.8917 98.9469 67.475C99.8302 67.0583 100.822 66.85 101.922 66.85C103.122 66.85 104.089 67.1083 104.822 67.625C105.555 68.125 106.039 68.8417 106.272 69.775C106.922 68.8083 107.73 68.0833 108.697 67.6C109.664 67.1 110.747 66.85 111.947 66.85ZM122.083 66.95H123.333L120.733 80H119.483L122.083 66.95ZM123.483 63.775C123.217 63.775 122.992 63.6833 122.808 63.5C122.625 63.3167 122.533 63.1 122.533 62.85C122.533 62.55 122.633 62.2917 122.833 62.075C123.05 61.8583 123.317 61.75 123.633 61.75C123.9 61.75 124.125 61.8417 124.308 62.025C124.508 62.2083 124.608 62.425 124.608 62.675C124.608 62.9917 124.5 63.2583 124.283 63.475C124.067 63.675 123.8 63.775 123.483 63.775ZM134.227 66.85C135.71 66.85 136.852 67.225 137.652 67.975C138.452 68.7083 138.852 69.725 138.852 71.025C138.852 71.475 138.802 71.95 138.702 72.45L137.202 80H135.952L137.452 72.45C137.535 72.0667 137.577 71.65 137.577 71.2C137.577 70.1667 137.26 69.375 136.627 68.825C136.01 68.2583 135.102 67.975 133.902 67.975C132.402 67.975 131.152 68.4 130.152 69.25C129.152 70.0833 128.493 71.3 128.177 72.9L126.752 80H125.502L128.102 66.95H129.327L128.827 69.425C129.443 68.5583 130.21 67.9167 131.127 67.5C132.06 67.0667 133.093 66.85 134.227 66.85ZM146.798 63.65L145.423 70.55H154.723L154.498 71.675H145.198L143.748 78.85H154.548L154.298 80H142.248L145.748 62.5H157.448L157.198 63.65H146.798ZM166.772 66.85C168.255 66.85 169.397 67.225 170.197 67.975C170.997 68.7083 171.397 69.725 171.397 71.025C171.397 71.475 171.347 71.95 171.247 72.45L169.747 80H168.497L169.997 72.45C170.08 72.0667 170.122 71.65 170.122 71.2C170.122 70.1667 169.805 69.375 169.172 68.825C168.555 68.2583 167.647 67.975 166.447 67.975C164.947 67.975 163.697 68.4 162.697 69.25C161.697 70.0833 161.038 71.3 160.722 72.9L159.297 80H158.047L160.647 66.95H161.872L161.372 69.425C161.988 68.5583 162.755 67.9167 163.672 67.5C164.605 67.0667 165.638 66.85 166.772 66.85ZM188.792 66.95L186.467 78.6C186.034 80.8167 185.217 82.425 184.017 83.425C182.817 84.4417 181.159 84.95 179.042 84.95C177.842 84.95 176.759 84.7667 175.792 84.4C174.826 84.05 174.026 83.55 173.392 82.9L174.192 81.975C174.726 82.5583 175.417 83.0083 176.267 83.325C177.117 83.6583 178.076 83.825 179.142 83.825C180.876 83.825 182.234 83.4167 183.217 82.6C184.201 81.7833 184.859 80.5167 185.192 78.8L185.592 76.85C184.942 77.7 184.134 78.3583 183.167 78.825C182.201 79.2917 181.126 79.525 179.942 79.525C178.192 79.525 176.801 79.0583 175.767 78.125C174.751 77.1917 174.242 75.925 174.242 74.325C174.242 72.925 174.559 71.6583 175.192 70.525C175.826 69.375 176.709 68.475 177.842 67.825C178.976 67.175 180.251 66.85 181.667 66.85C183.034 66.85 184.176 67.1417 185.092 67.725C186.009 68.3083 186.626 69.1583 186.942 70.275L187.592 66.95H188.792ZM180.167 78.4C181.351 78.4 182.409 78.1333 183.342 77.6C184.276 77.05 185.009 76.3 185.542 75.35C186.076 74.3833 186.342 73.3 186.342 72.1C186.342 70.8 185.926 69.7917 185.092 69.075C184.276 68.3417 183.134 67.975 181.667 67.975C180.484 67.975 179.426 68.25 178.492 68.8C177.559 69.3333 176.826 70.0833 176.292 71.05C175.759 72 175.492 73.075 175.492 74.275C175.492 75.575 175.901 76.5917 176.717 77.325C177.551 78.0417 178.701 78.4 180.167 78.4ZM194.633 61.45H195.883L192.183 80H190.933L194.633 61.45ZM211.177 66.95L208.577 80H207.377L207.877 77.45C207.244 78.2833 206.452 78.9333 205.502 79.4C204.569 79.8667 203.527 80.1 202.377 80.1C200.677 80.1 199.31 79.6167 198.277 78.65C197.26 77.6667 196.752 76.3417 196.752 74.675C196.752 73.1917 197.069 71.8583 197.702 70.675C198.335 69.475 199.21 68.5417 200.327 67.875C201.46 67.1917 202.727 66.85 204.127 66.85C205.477 66.85 206.594 67.1417 207.477 67.725C208.36 68.3083 208.96 69.1333 209.277 70.2L209.927 66.95H211.177ZM202.627 78.975C203.794 78.975 204.835 78.6917 205.752 78.125C206.685 77.5583 207.419 76.775 207.952 75.775C208.485 74.7583 208.752 73.6167 208.752 72.35C208.752 70.9667 208.344 69.8917 207.527 69.125C206.727 68.3583 205.594 67.975 204.127 67.975C202.96 67.975 201.91 68.2667 200.977 68.85C200.06 69.4167 199.335 70.2083 198.802 71.225C198.269 72.225 198.002 73.35 198.002 74.6C198.002 75.9833 198.402 77.0583 199.202 77.825C200.019 78.5917 201.16 78.975 202.627 78.975ZM222.047 66.85C223.53 66.85 224.672 67.225 225.472 67.975C226.272 68.7083 226.672 69.725 226.672 71.025C226.672 71.475 226.622 71.95 226.522 72.45L225.022 80H223.772L225.272 72.45C225.355 72.0667 225.397 71.65 225.397 71.2C225.397 70.1667 225.08 69.375 224.447 68.825C223.83 68.2583 222.922 67.975 221.722 67.975C220.222 67.975 218.972 68.4 217.972 69.25C216.972 70.0833 216.314 71.3 215.997 72.9L214.572 80H213.322L215.922 66.95H217.147L216.647 69.425C217.264 68.5583 218.03 67.9167 218.947 67.5C219.88 67.0667 220.914 66.85 222.047 66.85ZM244.993 61.45L241.293 80H240.093L240.593 77.45C239.959 78.2833 239.168 78.9333 238.218 79.4C237.284 79.8667 236.243 80.1 235.093 80.1C233.393 80.1 232.026 79.6167 230.993 78.65C229.976 77.6667 229.468 76.3417 229.468 74.675C229.468 73.1917 229.784 71.8583 230.418 70.675C231.051 69.475 231.926 68.5417 233.043 67.875C234.176 67.1917 235.443 66.85 236.843 66.85C238.193 66.85 239.309 67.1417 240.193 67.725C241.076 68.3083 241.676 69.1417 241.993 70.225L243.743 61.45H244.993ZM235.343 78.975C236.509 78.975 237.551 78.6917 238.468 78.125C239.401 77.5583 240.134 76.775 240.668 75.775C241.201 74.7583 241.468 73.6167 241.468 72.35C241.468 70.9667 241.059 69.8917 240.243 69.125C239.443 68.3583 238.309 67.975 236.843 67.975C235.676 67.975 234.626 68.2667 233.693 68.85C232.776 69.4167 232.051 70.2083 231.518 71.225C230.984 72.225 230.718 73.35 230.718 74.6C230.718 75.9833 231.118 77.0583 231.918 77.825C232.734 78.5917 233.876 78.975 235.343 78.975ZM256.509 73.475L251.934 78.15H250.684L255.234 73.4L252.634 68.775H253.809L256.509 73.475ZM260.684 73.475L256.109 78.15H254.859L259.409 73.4L256.809 68.775H257.984L260.684 73.475Z" fill="#292626"/>
</svg>
