<svg width="336" height="133" viewBox="0 0 336 133" fill="none" xmlns="http://www.w3.org/2000/svg">
<rect width="336" height="133" rx="22" fill="#B9D7EA"/>
<path d="M12.808 13.953V17.574H18.554V19.444H12.808V24H10.598V12.1H19.285V13.953H12.808ZM21.0822 12.1H23.2922V22.13H29.5142V24H21.0822V12.1ZM39.844 22.147V24H30.919V12.1H39.606V13.953H33.129V17.047H38.875V18.866H33.129V22.147H39.844ZM47.0846 24.17C45.4413 24.17 44.1606 23.711 43.2426 22.793C42.3246 21.8637 41.8656 20.5377 41.8656 18.815V12.1H44.0756V18.73C44.0756 21.0647 45.0843 22.232 47.1016 22.232C49.1076 22.232 50.1106 21.0647 50.1106 18.73V12.1H52.2866V18.815C52.2866 20.5377 51.8276 21.8637 50.9096 22.793C50.003 23.711 48.728 24.17 47.0846 24.17ZM62.8277 24L60.3967 20.515C60.2947 20.5263 60.1417 20.532 59.9377 20.532H57.2517V24H55.0417V12.1H59.9377C60.969 12.1 61.8644 12.27 62.6237 12.61C63.3944 12.95 63.9837 13.4373 64.3917 14.072C64.7997 14.7067 65.0037 15.4603 65.0037 16.333C65.0037 17.2283 64.7827 17.999 64.3407 18.645C63.91 19.291 63.2867 19.7727 62.4707 20.09L65.2077 24H62.8277ZM62.7767 16.333C62.7767 15.5737 62.5274 14.99 62.0287 14.582C61.53 14.174 60.799 13.97 59.8357 13.97H57.2517V18.713H59.8357C60.799 18.713 61.53 18.509 62.0287 18.101C62.5274 17.6817 62.7767 17.0923 62.7767 16.333ZM76.0613 22.147V24H67.1363V12.1H75.8233V13.953H69.3463V17.047H75.0923V18.866H69.3463V22.147H76.0613ZM88.759 12.1V24H86.94L80.378 15.942V24H78.185V12.1H80.004L86.566 20.158V12.1H88.759ZM94.0217 13.97H90.0777V12.1H100.176V13.97H96.2317V24H94.0217V13.97ZM107.705 24.17C106.946 24.17 106.243 24.0227 105.597 23.728C104.963 23.422 104.441 22.997 104.033 22.453L105.291 20.94C105.949 21.8467 106.736 22.3 107.654 22.3C108.89 22.3 109.507 21.569 109.507 20.107V13.953H105.274V12.1H111.717V19.988C111.717 21.382 111.377 22.4303 110.697 23.133C110.017 23.8243 109.02 24.17 107.705 24.17ZM123.062 14.922V24H121.039V22.844C120.699 23.252 120.274 23.5693 119.764 23.796C119.254 24.0113 118.705 24.119 118.115 24.119C116.903 24.119 115.945 23.7847 115.242 23.116C114.551 22.436 114.205 21.433 114.205 20.107V14.922H116.33V19.818C116.33 20.634 116.512 21.246 116.874 21.654C117.248 22.0507 117.775 22.249 118.455 22.249C119.215 22.249 119.815 22.0167 120.257 21.552C120.711 21.076 120.937 20.396 120.937 19.512V14.922H123.062ZM125.505 11.386H127.63V24H125.505V11.386ZM130.079 14.922H132.204V24H130.079V14.922ZM131.15 13.426C130.764 13.426 130.441 13.307 130.181 13.069C129.92 12.8197 129.79 12.5137 129.79 12.151C129.79 11.7883 129.92 11.488 130.181 11.25C130.441 11.0007 130.764 10.876 131.15 10.876C131.535 10.876 131.858 10.995 132.119 11.233C132.379 11.4597 132.51 11.7487 132.51 12.1C132.51 12.474 132.379 12.7913 132.119 13.052C131.869 13.3013 131.546 13.426 131.15 13.426ZM143.187 19.512C143.187 19.6593 143.175 19.869 143.153 20.141H136.03C136.154 20.8097 136.477 21.3423 136.999 21.739C137.531 22.1243 138.189 22.317 138.971 22.317C139.968 22.317 140.79 21.9883 141.436 21.331L142.575 22.64C142.167 23.1273 141.651 23.4957 141.028 23.745C140.404 23.9943 139.702 24.119 138.92 24.119C137.922 24.119 137.044 23.9207 136.285 23.524C135.525 23.1273 134.936 22.5777 134.517 21.875C134.109 21.161 133.905 20.3563 133.905 19.461C133.905 18.577 134.103 17.7837 134.5 17.081C134.908 16.367 135.469 15.8117 136.183 15.415C136.897 15.0183 137.701 14.82 138.597 14.82C139.481 14.82 140.268 15.0183 140.96 15.415C141.662 15.8003 142.206 16.35 142.592 17.064C142.988 17.7667 143.187 18.5827 143.187 19.512ZM138.597 16.52C137.917 16.52 137.339 16.724 136.863 17.132C136.398 17.5287 136.115 18.0613 136.013 18.73H141.164C141.073 18.0727 140.795 17.54 140.331 17.132C139.866 16.724 139.288 16.52 138.597 16.52ZM150.039 14.82C151.184 14.82 152.102 15.1543 152.793 15.823C153.484 16.4917 153.83 17.4833 153.83 18.798V24H151.705V19.07C151.705 18.2767 151.518 17.6817 151.144 17.285C150.77 16.877 150.237 16.673 149.546 16.673C148.764 16.673 148.146 16.911 147.693 17.387C147.24 17.8517 147.013 18.526 147.013 19.41V24H144.888V14.922H146.911V16.095C147.262 15.6757 147.704 15.3583 148.237 15.143C148.77 14.9277 149.37 14.82 150.039 14.82Z" fill="#292626"/>
<path d="M48.6 74.5L51.225 79.15H50.025L47.325 74.475L51.9 69.775H53.175L48.6 74.5ZM52.775 74.5L55.4 79.15H54.2L51.5 74.475L56.075 69.775H57.35L52.775 74.5ZM69.0979 64.65L67.7229 71.55H77.0229L76.7979 72.675H67.4979L66.0479 79.85H76.8479L76.5979 81H64.5479L68.0479 63.5H79.7479L79.4979 64.65H69.0979ZM82.2064 77.225C82.1398 77.5417 82.1064 77.85 82.1064 78.15C82.1064 79.4 82.7731 80.025 84.1064 80.025C84.9064 80.025 85.6148 79.7833 86.2314 79.3L86.6064 80.225C85.8898 80.8083 84.9564 81.1 83.8064 81.1C82.8731 81.1 82.1398 80.8583 81.6064 80.375C81.0898 79.875 80.8314 79.1917 80.8314 78.325C80.8314 77.975 80.8648 77.6417 80.9314 77.325L82.6064 69.025H80.1814L80.3814 67.95H82.8064L83.3814 65.1H84.6314L84.0564 67.95H88.2064L88.0064 69.025H83.8564L82.2064 77.225ZM102.738 63.425C101.922 63.425 101.272 63.6417 100.788 64.075C100.305 64.5083 99.9716 65.2 99.7883 66.15L99.4133 67.95H103.588L103.388 69.025H99.2133L96.8383 81H95.5883L97.9883 69.025H95.5633L95.7633 67.95H98.1883L98.5883 65.975C98.8216 64.7917 99.2883 63.8917 99.9883 63.275C100.705 62.6583 101.63 62.35 102.763 62.35C103.28 62.35 103.763 62.425 104.213 62.575C104.663 62.725 105.022 62.9417 105.288 63.225L104.688 64.125C104.188 63.6583 103.538 63.425 102.738 63.425ZM103.872 74.75C103.838 75.1167 103.822 75.3917 103.822 75.575C103.822 76.9917 104.23 78.0833 105.047 78.85C105.863 79.6 107.063 79.975 108.647 79.975C109.563 79.975 110.405 79.825 111.172 79.525C111.955 79.2083 112.605 78.775 113.122 78.225L113.697 79.1C113.113 79.7333 112.363 80.225 111.447 80.575C110.547 80.925 109.58 81.1 108.547 81.1C106.697 81.1 105.238 80.6167 104.172 79.65C103.122 78.6833 102.597 77.3417 102.597 75.625C102.597 74.1583 102.905 72.8333 103.522 71.65C104.138 70.4667 104.988 69.5417 106.072 68.875C107.155 68.1917 108.372 67.85 109.722 67.85C111.422 67.85 112.772 68.3333 113.772 69.3C114.772 70.2667 115.272 71.6 115.272 73.3C115.272 73.7 115.222 74.1833 115.122 74.75H103.872ZM109.697 68.925C108.28 68.925 107.055 69.3667 106.022 70.25C105.005 71.1333 104.338 72.3083 104.022 73.775H114.072C114.088 73.625 114.097 73.4083 114.097 73.125C114.097 71.8083 113.697 70.7833 112.897 70.05C112.097 69.3 111.03 68.925 109.697 68.925ZM112.847 62.875H114.722L110.472 65.825H109.047L112.847 62.875ZM135.813 67.85C137.28 67.85 138.405 68.2167 139.188 68.95C139.971 69.6667 140.363 70.675 140.363 71.975C140.363 72.425 140.313 72.9167 140.213 73.45L138.688 81H137.438L138.963 73.45C139.046 73.0667 139.088 72.6417 139.088 72.175C139.088 71.1583 138.788 70.375 138.188 69.825C137.588 69.2583 136.713 68.975 135.563 68.975C134.13 68.975 132.93 69.375 131.963 70.175C131.013 70.9583 130.388 72.1 130.088 73.6L128.588 81H127.338L128.863 73.45C128.946 73.0667 128.988 72.6417 128.988 72.175C128.988 71.1583 128.688 70.375 128.088 69.825C127.488 69.2583 126.613 68.975 125.463 68.975C124.013 68.975 122.805 69.4 121.838 70.25C120.871 71.0833 120.23 72.3 119.913 73.9L118.488 81H117.238L119.838 67.95H121.063L120.563 70.4C121.18 69.5333 121.93 68.8917 122.813 68.475C123.696 68.0583 124.688 67.85 125.788 67.85C126.988 67.85 127.955 68.1083 128.688 68.625C129.421 69.125 129.905 69.8417 130.138 70.775C130.788 69.8083 131.596 69.0833 132.563 68.6C133.53 68.1 134.613 67.85 135.813 67.85ZM145.949 67.95H147.199L144.599 81H143.349L145.949 67.95ZM147.349 64.775C147.083 64.775 146.858 64.6833 146.674 64.5C146.491 64.3167 146.399 64.1 146.399 63.85C146.399 63.55 146.499 63.2917 146.699 63.075C146.916 62.8583 147.183 62.75 147.499 62.75C147.766 62.75 147.991 62.8417 148.174 63.025C148.374 63.2083 148.474 63.425 148.474 63.675C148.474 63.9917 148.366 64.2583 148.149 64.475C147.933 64.675 147.666 64.775 147.349 64.775ZM158.093 67.85C159.576 67.85 160.718 68.225 161.518 68.975C162.318 69.7083 162.718 70.725 162.718 72.025C162.718 72.475 162.668 72.95 162.568 73.45L161.068 81H159.818L161.318 73.45C161.401 73.0667 161.443 72.65 161.443 72.2C161.443 71.1667 161.126 70.375 160.493 69.825C159.876 69.2583 158.968 68.975 157.768 68.975C156.268 68.975 155.018 69.4 154.018 70.25C153.018 71.0833 152.36 72.3 152.043 73.9L150.618 81H149.368L151.968 67.95H153.193L152.693 70.425C153.31 69.5583 154.076 68.9167 154.993 68.5C155.926 68.0667 156.96 67.85 158.093 67.85ZM168.289 67.95H169.539L166.939 81H165.689L168.289 67.95ZM169.689 64.775C169.423 64.775 169.198 64.6833 169.014 64.5C168.831 64.3167 168.739 64.1 168.739 63.85C168.739 63.55 168.839 63.2917 169.039 63.075C169.256 62.8583 169.523 62.75 169.839 62.75C170.106 62.75 170.331 62.8417 170.514 63.025C170.714 63.2083 170.814 63.425 170.814 63.675C170.814 63.9917 170.706 64.2583 170.489 64.475C170.273 64.675 170.006 64.775 169.689 64.775ZM175.283 81.1C174.266 81.1 173.291 80.95 172.358 80.65C171.441 80.3333 170.724 79.9333 170.208 79.45L170.883 78.475C171.366 78.9417 172.008 79.3167 172.808 79.6C173.624 79.8667 174.483 80 175.383 80C176.733 80 177.774 79.7667 178.508 79.3C179.258 78.8167 179.633 78.15 179.633 77.3C179.633 76.8167 179.483 76.4333 179.183 76.15C178.883 75.8667 178.516 75.6583 178.083 75.525C177.649 75.375 177.049 75.2167 176.283 75.05C175.383 74.8667 174.649 74.675 174.083 74.475C173.533 74.275 173.066 73.9667 172.683 73.55C172.299 73.1167 172.108 72.5333 172.108 71.8C172.108 70.6 172.599 69.6417 173.583 68.925C174.583 68.2083 175.908 67.85 177.558 67.85C178.391 67.85 179.199 67.9667 179.983 68.2C180.766 68.4167 181.391 68.725 181.858 69.125L181.283 70.1C180.799 69.7167 180.216 69.4333 179.533 69.25C178.866 69.05 178.174 68.95 177.458 68.95C176.191 68.95 175.183 69.2 174.433 69.7C173.699 70.2 173.333 70.8583 173.333 71.675C173.333 72.175 173.483 72.575 173.783 72.875C174.083 73.1583 174.458 73.375 174.908 73.525C175.374 73.675 175.991 73.8333 176.758 74C177.658 74.1833 178.374 74.375 178.908 74.575C179.458 74.7583 179.924 75.0583 180.308 75.475C180.691 75.8917 180.883 76.4583 180.883 77.175C180.883 78.3917 180.374 79.35 179.358 80.05C178.341 80.75 176.983 81.1 175.283 81.1ZM201.721 67.85C203.188 67.85 204.313 68.2167 205.096 68.95C205.88 69.6667 206.271 70.675 206.271 71.975C206.271 72.425 206.221 72.9167 206.121 73.45L204.596 81H203.346L204.871 73.45C204.955 73.0667 204.996 72.6417 204.996 72.175C204.996 71.1583 204.696 70.375 204.096 69.825C203.496 69.2583 202.621 68.975 201.471 68.975C200.038 68.975 198.838 69.375 197.871 70.175C196.921 70.9583 196.296 72.1 195.996 73.6L194.496 81H193.246L194.771 73.45C194.855 73.0667 194.896 72.6417 194.896 72.175C194.896 71.1583 194.596 70.375 193.996 69.825C193.396 69.2583 192.521 68.975 191.371 68.975C189.921 68.975 188.713 69.4 187.746 70.25C186.78 71.0833 186.138 72.3 185.821 73.9L184.396 81H183.146L185.746 67.95H186.971L186.471 70.4C187.088 69.5333 187.838 68.8917 188.721 68.475C189.605 68.0583 190.596 67.85 191.696 67.85C192.896 67.85 193.863 68.1083 194.596 68.625C195.33 69.125 195.813 69.8417 196.046 70.775C196.696 69.8083 197.505 69.0833 198.471 68.6C199.438 68.1 200.521 67.85 201.721 67.85ZM210.357 74.75C210.324 75.1167 210.307 75.3917 210.307 75.575C210.307 76.9917 210.715 78.0833 211.532 78.85C212.349 79.6 213.549 79.975 215.132 79.975C216.049 79.975 216.89 79.825 217.657 79.525C218.44 79.2083 219.09 78.775 219.607 78.225L220.182 79.1C219.599 79.7333 218.849 80.225 217.932 80.575C217.032 80.925 216.065 81.1 215.032 81.1C213.182 81.1 211.724 80.6167 210.657 79.65C209.607 78.6833 209.082 77.3417 209.082 75.625C209.082 74.1583 209.39 72.8333 210.007 71.65C210.624 70.4667 211.474 69.5417 212.557 68.875C213.64 68.1917 214.857 67.85 216.207 67.85C217.907 67.85 219.257 68.3333 220.257 69.3C221.257 70.2667 221.757 71.6 221.757 73.3C221.757 73.7 221.707 74.1833 221.607 74.75H210.357ZM216.182 68.925C214.765 68.925 213.54 69.3667 212.507 70.25C211.49 71.1333 210.824 72.3083 210.507 73.775H220.557C220.574 73.625 220.582 73.4083 220.582 73.125C220.582 71.8083 220.182 70.7833 219.382 70.05C218.582 69.3 217.515 68.925 216.182 68.925ZM232.944 63.5H234.394L231.644 75.975H230.694L232.944 63.5ZM230.319 81.1C230.053 81.1 229.819 81.0083 229.619 80.825C229.419 80.625 229.319 80.3917 229.319 80.125C229.319 79.825 229.419 79.575 229.619 79.375C229.836 79.1583 230.086 79.05 230.369 79.05C230.653 79.05 230.894 79.15 231.094 79.35C231.294 79.5333 231.394 79.7583 231.394 80.025C231.394 80.325 231.286 80.5833 231.069 80.8C230.869 81 230.619 81.1 230.319 81.1ZM245.914 74.475L241.339 79.15H240.089L244.639 74.4L242.039 69.775H243.214L245.914 74.475ZM250.089 74.475L245.514 79.15H244.264L248.814 74.4L246.214 69.775H247.389L250.089 74.475Z" fill="#292626"/>
</svg>
