<svg width="176" height="1066" viewBox="0 0 176 1066" fill="none" xmlns="http://www.w3.org/2000/svg"><path fill="url(#paint0_linear_377_1500)" d="M28 0h117v966H28z"/><path d="M128.592 668.467c18.432-32.189 16.336-54.301 16.336-24.233V966H28V644.234c24.933 58.788 48.315-21.327 61.903-4.039 13.756 17.502 20.257 60.462 38.689 28.272z" fill="#062D62"/><path d="M88.276 1066l75.696-100.489H12.579L88.276 1066z" fill="#062D62"/><path d="M65 460l7.034-10.74-6.374-9.841h4.857l4.128 6.612 4.043-6.612h4.816l-6.402 9.995L84.135 460h-5.012l-4.562-7.118L69.984 460H65zm19.177 0l7.034-10.74-6.374-9.841h4.858l4.127 6.612 4.044-6.612h4.815l-6.402 9.995L103.313 460h-5.012l-4.563-7.118L89.161 460h-4.984zM65 846l7.034-10.74-6.374-9.841h4.857l4.128 6.612 4.043-6.612h4.816l-6.402 9.995L84.135 846h-5.012l-4.562-7.118L69.984 846H65zm19.177 0l7.034-10.74-6.374-9.841h4.858l4.127 6.612 4.044-6.612h4.815l-6.402 9.995L103.313 846h-5.012l-4.563-7.118L89.161 846h-4.984zm21.144 0v-20.581h4.155V846h-4.155z" fill="#fff"/><path d="M68.921 217.993C50.478 243.737 33.956 204.844 28 182.18V0h117v217.993c-9.683 65.605-29.01 43.598-37.463 24.394-5.187-18.858-20.172-50.138-38.616-24.394z" fill="url(#paint1_linear_377_1500)"/><path d="M63 115l7.034-10.74-6.374-9.841h4.857l4.128 6.612 4.043-6.612h4.816l-6.402 9.995L82.135 115h-5.012l-4.562-7.118L67.984 115H63zm21.143 0V94.419h4.156V115h-4.156zm6.037 0l7.033-10.74-6.373-9.841h4.857l4.128 6.612 4.043-6.612h4.815l-6.401 9.995L109.315 115h-5.012l-4.563-7.118L95.165 115H90.18z" fill="#fff"/><defs><linearGradient id="paint0_linear_377_1500" x1="87" y1="1068.62" x2="87" y2="0" gradientUnits="userSpaceOnUse"><stop stop-color="#062D62"/><stop offset="1" stop-color="#92B3E0"/></linearGradient><linearGradient id="paint1_linear_377_1500" x1="86.5" y1="13.98" x2="86.5" y2="293.585" gradientUnits="userSpaceOnUse"><stop stop-color="#C5E5E2"/><stop offset="1" stop-color="#93B4E1"/></linearGradient></defs></svg>