<svg width="97" height="97" viewBox="0 0 97 97" fill="none" xmlns="http://www.w3.org/2000/svg"><path d="M40.148 15.57l16.614-.085C63.116 29.09 59.09 46.09 59.09 46.09l4.055 2.718-3.323 15.658-3.6-4.64.054-5.785-2.135 4.645-12.045-.26-2.05-4.353-.14 5.918-3.585 4.143-2.98-15.657 4.477-3.02s-4.701-11.19 2.33-29.886zm9.98 7.067c-1.994-2.03-5.147 1.076-3.155 3.102 1.992 2.026 5.147-1.076 3.156-3.102zM56.438 14.62S52.886 5.262 48.62 0c0 0-4.083 4.986-8.05 14.382l15.868.238z" fill="#062D62"/><path d="M52.968 60.42s-.243 8.288-4.943 15.355c0 0-3.906-4.971-4.684-15.408 0 0-4.002 8.73 4.614 20.21-.006.006 8.581-8.49 5.013-20.156z" fill="#062D62"/></svg>