<svg width="91" height="91" viewBox="0 0 91 91" fill="none" xmlns="http://www.w3.org/2000/svg"><path d="M55.152 21.294L67.9 31.946C63.98 46.44 49.938 56.832 49.938 56.832l1.345 4.693-12.64 9.82.243-5.867 3.773-4.385-4.628 2.172-9.036-7.97 1.24-4.648-3.923 4.431-5.412.854 7.823-13.887 5.37.581s3.625-11.583 21.059-21.332zm3.067 11.838c-.215-2.838-4.627-2.499-4.412.334.215 2.833 4.627 2.499 4.412-.334zM68.212 31.076s3.323-9.442 3.457-16.215c0 0-6.336 1.177-15.43 5.796l11.973 10.419z" fill="#062D62"/><path d="M36.015 63.834s-5.532 6.176-13.681 8.544c0 0 .222-6.318 6.36-14.795 0 0-8.69 4.088-9.512 18.419-.008 0 12.034-.952 16.833-12.168z" fill="#DC6472"/></svg>