<svg width="210" height="80" viewBox="0 0 210 80" fill="none" xmlns="http://www.w3.org/2000/svg"><g clip-path="url(#clip0_366_1040)" fill="snow"><path d="M18.99 39.592l10.836-4.485c7.781 7.198 9.681 19.384 9.681 19.384l3.376.695 2.002 11.12-3.59-2.073-1.507-3.795-.157 3.606-7.943 3.04-2.501-2.298 1.486 3.906-1.238 3.663-6.123-9.44 2.122-3.167s-6.056-6.061-6.444-20.156zm8.407 1.958c-1.845-.795-3.077 2.076-1.235 2.869 1.842.793 3.077-2.075 1.235-2.869zM29.384 34.627s-4.817-5.17-9.008-7.472c0 0-1.34 4.348-1.428 11.548l10.436-4.076z"/><path d="M39.327 65.49s2.05 5.482.862 11.355c0 0-3.878-2.208-7.17-8.823 0 0-.288 6.773 8.405 11.98-.003.006 3.345-7.837-2.097-14.511z"/></g><path d="M10.11 8.68c-.087.832-.13 1.577-.13 2.234 0 .484.018.87.055 1.155h-.428c-.186-1.068-.509-1.825-.968-2.272-.46-.459-1.092-.689-1.9-.689h-.688c-.323 0-.565.031-.726.093a.556.556 0 00-.354.336c-.062.16-.093.422-.093.781v3.799h.875c.571 0 1-.199 1.285-.596a3.44 3.44 0 00.595-1.415h.429c-.038.422-.056.906-.056 1.452v.745c0 .558.037 1.29.112 2.197h-.429c-.087-.584-.285-1.062-.595-1.434-.298-.385-.745-.577-1.341-.577h-.875v3.426c0 .471.056.825.168 1.061a.977.977 0 00.595.484c.273.087.683.143 1.23.168V20a72.463 72.463 0 00-3.296-.056c-1.328 0-2.309.019-2.942.056v-.372c.422-.025.726-.075.912-.15a.62.62 0 00.373-.428c.074-.21.111-.552.111-1.024v-7.372c0-.472-.037-.813-.111-1.024a.617.617 0 00-.391-.429c-.186-.074-.484-.124-.894-.148V8.68c1.29.037 3.215.056 5.772.056 1.737 0 2.972-.019 3.705-.056zm11.16 8.9c0 .707.043 1.514.13 2.42-.807-.037-2.166-.056-4.077-.056-2.557 0-4.481.019-5.772.056v-.372c.422-.025.726-.075.912-.15a.62.62 0 00.373-.428c.074-.21.111-.552.111-1.024v-7.372c0-.472-.037-.813-.111-1.024a.617.617 0 00-.392-.429c-.186-.074-.484-.124-.893-.148V8.68c1.29.037 3.215.056 5.772.056 1.737 0 2.972-.019 3.704-.056-.086.832-.13 1.577-.13 2.234 0 .484.019.87.056 1.155h-.428c-.186-1.068-.51-1.825-.968-2.272-.46-.459-1.093-.689-1.9-.689h-.688c-.323 0-.565.031-.726.093a.556.556 0 00-.354.336c-.062.16-.093.422-.093.781v3.799h.875c.57 0 .999-.199 1.285-.596a3.44 3.44 0 00.595-1.415h.429c-.038.422-.056.906-.056 1.452v.745c0 .558.037 1.29.111 2.197h-.428c-.087-.584-.285-1.062-.596-1.434-.297-.385-.744-.577-1.34-.577h-.875v3.873c0 .36.03.626.093.8a.625.625 0 00.354.335c.161.05.403.075.726.075h.8c.882 0 1.57-.255 2.067-.764.509-.509.863-1.365 1.061-2.569h.428c-.037.348-.055.794-.055 1.34zM17.937 4.137c.174-.099.366-.149.577-.149.199 0 .379.05.54.15a.838.838 0 01.39.409.816.816 0 01.113.428.985.985 0 01-.168.54 1.37 1.37 0 01-.465.41c-.186.099-.404.192-.652.279-.248.074-.515.143-.8.205-.088.025-.367.099-.838.223-.46.124-.987.298-1.583.521l-.13-.223a20.167 20.167 0 001.843-1.769 9.27 9.27 0 01.652-.633c.16-.149.335-.279.52-.39zM38.48 9.053c-.447.024-.776.074-.987.148a.67.67 0 00-.41.429c-.074.21-.111.552-.111 1.024v7.372c0 .472.037.814.111 1.024a.67.67 0 00.41.429c.211.074.54.124.987.149V20a54.029 54.029 0 00-2.812-.056c-1.44 0-2.495.019-3.165.056v-.372c.447-.025.77-.075.968-.15a.67.67 0 00.429-.428c.074-.21.111-.552.111-1.024V9.853l-4.263 10.24h-.298L25.13 9.872v7.633c0 .546.05.962.15 1.248.099.273.279.471.54.595.272.125.682.218 1.228.28V20a31.95 31.95 0 00-2.122-.056c-.683 0-1.223.019-1.62.056v-.372c.41-.062.707-.155.894-.28.198-.124.329-.322.39-.595.075-.273.112-.69.112-1.248v-6.851c0-.472-.037-.813-.112-1.024a.67.67 0 00-.428-.429c-.198-.074-.521-.124-.968-.148V8.68c.646.037 1.632.056 2.96.056.646 0 1.198-.019 1.657-.056l3.091 7.429 3.11-7.373h1.656c1.204 0 2.142-.019 2.812-.056v.373zm7.22 0c-.422.024-.726.074-.912.148a.674.674 0 00-.39.429c-.063.21-.094.552-.094 1.024v7.372c0 .472.031.814.093 1.024a.674.674 0 00.391.429c.186.074.49.124.913.149V20a50.673 50.673 0 00-2.756-.056c-1.303 0-2.265.019-2.886.056v-.372c.422-.025.726-.075.913-.15a.62.62 0 00.372-.428c.074-.21.112-.552.112-1.024v-7.372c0-.472-.038-.813-.112-1.024a.617.617 0 00-.391-.429c-.186-.074-.484-.124-.894-.148V8.68c.608.037 1.57.056 2.886.056A50.64 50.64 0 0045.7 8.68v.373zm13.314 0c-.41.062-.713.155-.912.279-.186.124-.316.322-.391.596-.062.273-.093.688-.093 1.247v8.862l-.503-.018-.484.018-7.447-9.253v6.721c0 .546.05.962.149 1.248.1.273.28.471.54.595.26.125.67.218 1.229.28V20a33.01 33.01 0 00-2.123-.056c-.683 0-1.222.019-1.62.056v-.372c.41-.062.708-.155.894-.28.199-.124.329-.322.39-.595.075-.273.113-.69.113-1.248v-6.851c0-.472-.038-.813-.112-1.024a.617.617 0 00-.391-.429c-.186-.074-.484-.124-.894-.148V8.68c.398.037.937.056 1.62.056.881 0 1.639-.019 2.272-.056l5.939 7.373v-4.878c0-.546-.05-.956-.15-1.229-.099-.285-.285-.49-.558-.614-.26-.124-.664-.217-1.21-.28V8.68c.546.037 1.254.056 2.123.056.695 0 1.234-.019 1.62-.056v.373zm7.104 0c-.422.024-.726.074-.912.148a.674.674 0 00-.391.429c-.062.21-.093.552-.093 1.024v7.372c0 .472.03.814.093 1.024a.674.674 0 00.39.429c.187.074.491.124.913.149V20a50.675 50.675 0 00-2.755-.056c-1.304 0-2.266.019-2.886.056v-.372c.422-.025.726-.075.912-.15a.62.62 0 00.372-.428c.075-.21.112-.552.112-1.024v-7.372c0-.472-.037-.813-.112-1.024a.617.617 0 00-.39-.429c-.187-.074-.485-.124-.894-.148V8.68c.608.037 1.57.056 2.886.056 1.204 0 2.122-.019 2.755-.056v.373zM51.554 60.151c.57 0 1.055.063 1.452.187.41.124.794.291 1.154.502.137.075.255.137.354.186.112.05.205.075.28.075.11 0 .198-.062.26-.186.062-.137.112-.348.149-.633h.428c-.062.745-.093 2.035-.093 3.872h-.428c-.137-1.117-.497-1.992-1.08-2.625-.584-.645-1.347-.968-2.29-.968-.62 0-1.123.137-1.508.41-.373.273-.559.626-.559 1.06 0 .336.1.646.298.932.211.273.484.527.82.763.334.236.825.546 1.47.931l.41.242c.744.422 1.353.807 1.824 1.154.472.335.863.739 1.173 1.21.31.46.466.981.466 1.564 0 1.018-.422 1.8-1.266 2.346-.844.546-1.955.82-3.333.82-.596 0-1.11-.069-1.545-.205a7.675 7.675 0 01-1.322-.522c-.31-.148-.528-.223-.652-.223-.111 0-.198.068-.26.205-.063.124-.112.329-.15.614h-.428c.05-.695.075-2.21.075-4.543h.428c.087 1.316.44 2.352 1.061 3.11.633.757 1.52 1.135 2.663 1.135.558 0 1.042-.142 1.452-.428.41-.285.614-.707.614-1.266 0-.496-.192-.925-.577-1.285-.385-.36-1.042-.813-1.973-1.359-1.18-.67-2.086-1.31-2.719-1.917-.62-.608-.93-1.322-.93-2.141 0-.969.397-1.713 1.191-2.235.807-.52 1.837-.782 3.09-.782zm12.513 0c.72 0 1.304.106 1.75.317.447.198.907.496 1.378.894.137.111.255.167.354.167.248 0 .41-.372.484-1.117h.428c-.05.745-.074 2.048-.074 3.91h-.428c-.124-.67-.249-1.154-.373-1.452-.124-.31-.31-.62-.558-.931a3.77 3.77 0 00-1.192-.95 2.811 2.811 0 00-1.359-.353c-.683 0-1.279.223-1.787.67-.51.434-.907 1.061-1.192 1.88-.273.82-.41 1.794-.41 2.923 0 1.142.15 2.123.447 2.942.31.807.733 1.421 1.266 1.843a2.89 2.89 0 001.806.614 3.2 3.2 0 001.415-.335 3.666 3.666 0 001.21-.968c.249-.31.429-.645.54-1.005.112-.36.218-.881.317-1.564h.428c0 1.949.025 3.314.075 4.096h-.429c-.037-.385-.093-.664-.167-.838-.075-.186-.174-.28-.298-.28-.1 0-.223.057-.372.168a5.72 5.72 0 01-1.434.894c-.496.211-1.092.317-1.787.317-1.18 0-2.222-.23-3.128-.69a5.058 5.058 0 01-2.123-1.991c-.496-.87-.744-1.912-.744-3.128 0-1.18.26-2.228.782-3.147a5.451 5.451 0 012.122-2.122c.906-.51 1.924-.764 3.053-.764zm12.125.633c-.422.025-.726.075-.912.15a.674.674 0 00-.391.428c-.062.21-.093.552-.093 1.024v7.372c0 .472.03.813.093 1.024a.674.674 0 00.39.429c.187.074.491.124.913.149v.372a50.694 50.694 0 00-2.755-.056c-1.304 0-2.266.019-2.886.056v-.372c.422-.025.726-.075.912-.15a.62.62 0 00.372-.428c.075-.21.112-.552.112-1.024v-7.372c0-.472-.037-.813-.112-1.024a.617.617 0 00-.39-.429c-.187-.074-.485-.124-.894-.149v-.372c.608.037 1.57.056 2.885.056 1.204 0 2.123-.019 2.756-.056v.372zm11.359 8.528c0 .707.043 1.514.13 2.42-.807-.037-2.166-.056-4.077-.056-2.557 0-4.481.019-5.772.056v-.372c.422-.025.726-.075.913-.15a.62.62 0 00.372-.428c.074-.21.111-.552.111-1.024v-7.372c0-.472-.037-.813-.111-1.024a.617.617 0 00-.391-.429c-.186-.074-.484-.124-.894-.149v-.372c1.291.037 3.215.056 5.772.056 1.737 0 2.972-.019 3.705-.056a21.72 21.72 0 00-.13 2.234c0 .484.018.87.055 1.155h-.428c-.186-1.068-.509-1.825-.968-2.272-.46-.46-1.092-.689-1.9-.689h-.688c-.323 0-.565.031-.726.093a.555.555 0 00-.354.336c-.062.16-.093.422-.093.782v3.798h.875c.571 0 1-.199 1.285-.596a3.44 3.44 0 00.596-1.415h.428c-.037.422-.056.906-.056 1.452v.745c0 .558.037 1.29.112 2.197h-.428c-.087-.584-.286-1.061-.596-1.434-.298-.385-.745-.577-1.34-.577h-.876v3.873c0 .36.031.626.093.8a.625.625 0 00.354.335c.161.05.403.075.726.075h.8c.882 0 1.57-.255 2.067-.764.51-.509.863-1.365 1.061-2.569h.429c-.037.348-.056.794-.056 1.34zm13.673-8.528c-.41.063-.714.156-.913.28-.186.124-.316.322-.39.596-.063.273-.094.688-.094 1.247v8.862l-.502-.018-.484.018-7.448-9.253v6.721c0 .546.05.962.15 1.248.098.273.278.471.54.595.26.124.67.218 1.228.28v.372a33.025 33.025 0 00-2.123-.056c-.682 0-1.222.019-1.62.056v-.372c.41-.063.708-.156.894-.28.199-.124.33-.322.391-.596.075-.273.112-.688.112-1.247v-6.851c0-.472-.037-.813-.112-1.024a.617.617 0 00-.39-.429c-.187-.074-.485-.124-.894-.149v-.372c.397.037.937.056 1.62.056.88 0 1.638-.019 2.27-.056l5.94 7.373v-4.878c0-.546-.05-.956-.149-1.229-.1-.285-.285-.49-.558-.614-.261-.124-.664-.218-1.21-.28v-.372c.546.037 1.253.056 2.122.056.695 0 1.235-.019 1.62-.056v.372zm7.478-.633c.72 0 1.304.106 1.75.317.447.198.906.496 1.378.894.137.111.255.167.354.167.248 0 .409-.372.484-1.117h.428c-.049.745-.074 2.048-.074 3.91h-.429c-.124-.67-.248-1.154-.372-1.452-.124-.31-.31-.62-.558-.931a3.773 3.773 0 00-1.192-.95 2.809 2.809 0 00-1.359-.353 2.62 2.62 0 00-1.787.67c-.509.434-.907 1.061-1.192 1.88-.273.82-.41 1.794-.41 2.923 0 1.142.149 2.123.447 2.942.311.807.733 1.421 1.266 1.843.534.41 1.136.614 1.806.614a3.2 3.2 0 001.415-.335 3.659 3.659 0 001.21-.968 3.02 3.02 0 00.54-1.005c.112-.36.218-.881.317-1.564h.428c0 1.949.025 3.314.075 4.096h-.429c-.037-.385-.093-.664-.167-.838-.075-.186-.174-.28-.298-.28-.099 0-.224.057-.373.168a5.719 5.719 0 01-1.433.894c-.497.211-1.092.317-1.787.317-1.18 0-2.222-.23-3.128-.69a5.06 5.06 0 01-2.123-1.991c-.496-.87-.745-1.912-.745-3.128 0-1.18.261-2.228.782-3.147a5.455 5.455 0 012.123-2.122c.906-.51 1.924-.764 3.053-.764zm16.202 9.16c0 .708.044 1.515.131 2.42-.807-.036-2.166-.055-4.078-.055-2.557 0-4.481.019-5.771.056v-.372c.422-.025.726-.075.912-.15a.62.62 0 00.372-.428c.075-.21.112-.552.112-1.024v-7.372c0-.472-.037-.813-.112-1.024a.616.616 0 00-.391-.429c-.186-.074-.484-.124-.893-.149v-.372c1.29.037 3.214.056 5.771.056 1.738 0 2.973-.019 3.705-.056-.087.832-.13 1.576-.13 2.234 0 .484.019.87.056 1.155h-.428c-.187-1.068-.509-1.825-.969-2.272-.459-.46-1.092-.689-1.899-.689h-.688c-.323 0-.565.031-.727.093a.554.554 0 00-.353.336c-.062.16-.093.422-.093.782v3.798h.875c.571 0 .999-.199 1.284-.596.298-.41.497-.882.596-1.415h.428c-.037.422-.056.906-.056 1.452v.745c0 .558.038 1.29.112 2.197h-.428c-.087-.584-.286-1.061-.596-1.434-.298-.385-.745-.577-1.34-.577h-.875v3.873c0 .36.031.626.093.8a.623.623 0 00.353.335c.162.05.404.075.727.075h.8c.881 0 1.57-.255 2.067-.764.509-.509.862-1.365 1.061-2.569h.428c-.037.348-.056.794-.056 1.34zM18.471 26.425c.193-.345-6.444 6.162-4.14 13.429 0 0-1.044-3.582 4.14-13.43z" fill="snow"/><g clip-path="url(#clip1_366_1040)"><path d="M46.205 27.746c-1.166-.68 32.05 8.289 32.796 30.84 0 0-.71-10.996-32.796-30.84z" fill="snow"/></g><path d="M20.865 25.6c-.39-.06 8.823-1.292 13.136 4.994 0 0-2.182-3.026-13.136-4.994z" fill="snow"/><defs><clipPath id="clip0_366_1040"><path fill="#fff" transform="scale(-1 1) rotate(-23.304 75.762 160.493)" d="M0 0h40.215v40.215H0z"/></clipPath><clipPath id="clip1_366_1040"><path fill="#fff" transform="scale(-1 1) rotate(10.956 -154.457 -365.804)" d="M0 0h26.648v36.511H0z"/></clipPath></defs></svg>