<svg width="144" height="257" viewBox="0 0 144 257" fill="none" xmlns="http://www.w3.org/2000/svg"><path d="M1 65.5C23.667 42.667 57 1 72 1c14 0 49 45.333 71 64.5" stroke="#292626" stroke-width="2"/><path d="M75 6.5a3.5 3.5 0 11-7 0 3.5 3.5 0 017 0z" fill="#292626"/><path d="M2.751 67.258V224.75h138.482V67.259H2.751z" stroke="#DC6472" stroke-width="5"/><path d="M0 227h144v30H0v-30z" fill="#292626"/><path d="M42.205 237.336c-.351.021-.604.062-.76.124a.562.562 0 00-.325.356c-.051.176-.077.46-.077.853v7.688c0 .393.026.677.077.852.062.176.17.295.326.357.165.062.418.103.76.124v.31a47.827 47.827 0 00-2.434-.047c-1.106 0-1.922.016-2.45.047v-.31c.373-.021.641-.062.807-.124a.557.557 0 00.356-.357c.062-.175.093-.459.093-.852v-8.107l-3.735 9.766h-.248l-4.185-9.983v7.425c0 .61.03 1.059.093 1.348.062.279.196.486.403.62.206.124.542.212 1.007.264v.31a23.111 23.111 0 00-1.674-.047 15.2 15.2 0 00-1.348.047v-.31c.34-.052.589-.14.744-.264.165-.124.273-.32.325-.589.062-.268.093-.666.093-1.193v-6.975c0-.393-.03-.677-.093-.853a.514.514 0 00-.325-.356c-.155-.062-.403-.103-.744-.124v-.31c.33.031.78.046 1.348.046.95 0 1.767-.015 2.45-.046l3.13 7.548 2.852-7.502h1.1c1.055 0 1.866-.015 2.434-.046v.31zm3.236 10.773c-.661 0-1.157-.171-1.488-.512-.32-.341-.48-.791-.48-1.349 0-.465.118-.847.356-1.147.248-.31.542-.547.883-.713.352-.165.796-.341 1.333-.527.569-.196.982-.372 1.24-.527.27-.165.403-.387.403-.666v-1.209c0-.434-.103-.77-.31-1.008-.196-.248-.506-.372-.93-.372-.496 0-.873.124-1.131.372.29.104.511.259.666.465.166.207.248.45.248.729 0 .351-.118.63-.356.837-.238.207-.527.31-.868.31-.362 0-.64-.114-.837-.341-.196-.227-.295-.512-.295-.853 0-.289.068-.532.202-.728.145-.207.362-.398.65-.574.28-.165.62-.294 1.024-.387a6.14 6.14 0 011.348-.14c.507 0 .946.052 1.318.155.372.104.682.279.93.527.227.228.377.507.45.837.082.331.123.781.123 1.349v4.216c0 .248.021.424.062.527.052.103.145.155.28.155.154 0 .34-.088.557-.264l.155.264c-.465.382-1.033.574-1.705.574-.568 0-.966-.114-1.193-.342-.227-.227-.346-.532-.357-.914-.516.837-1.276 1.256-2.278 1.256zm1.193-.993c.403 0 .755-.211 1.054-.635v-3.178c-.124.207-.387.434-.79.682-.403.259-.708.517-.915.775-.206.259-.31.631-.31 1.116 0 .424.088.739.264.946a.891.891 0 00.697.294zm10.425-7.347c.465 0 .817.14 1.054.419.238.279.357.615.357 1.007 0 .383-.114.698-.341.946-.217.238-.506.356-.868.356-.351 0-.63-.087-.837-.263a.934.934 0 01-.31-.729c0-.496.227-.899.682-1.209a.853.853 0 00-.186-.015.796.796 0 00-.248.031c-.393.062-.729.3-1.008.713-.268.413-.403.837-.403 1.271v4.107c0 .476.114.806.341.992.238.186.61.279 1.116.279V248c-.144 0-.263-.005-.356-.016a88.701 88.701 0 00-2.108-.046c-.28 0-.915.015-1.907.046a2.428 2.428 0 01-.31.016v-.326c.372 0 .63-.077.775-.232.145-.165.217-.46.217-.884v-4.882c0-.475-.072-.822-.217-1.039-.144-.217-.403-.325-.775-.325v-.326c.331.031.651.047.961.047.92 0 1.674-.072 2.263-.217v1.441c.197-.444.48-.8.853-1.069a2.04 2.04 0 011.255-.419zm4.229-3.782c.434 0 .775.109 1.023.326.258.207.387.496.387.868s-.129.666-.387.883c-.248.207-.59.31-1.023.31-.434 0-.78-.103-1.039-.31-.248-.217-.372-.511-.372-.883s.124-.661.372-.868c.259-.217.605-.326 1.039-.326zm1.209 10.571c0 .424.072.719.217.884.155.155.413.232.775.232V248a65.842 65.842 0 00-2.062-.062 79 79 0 00-2.154.062v-.326c.372 0 .63-.077.775-.232.144-.165.217-.46.217-.884v-4.882c0-.475-.073-.822-.217-1.039-.145-.217-.403-.325-.775-.325v-.326c.33.031.65.047.96.047.92 0 1.675-.072 2.264-.217v6.742zm6.532.388c.847 0 1.53-.413 2.046-1.24l.279.093a3.716 3.716 0 01-1.116 1.72c-.527.465-1.188.698-1.984.698-1.095 0-1.969-.346-2.62-1.039-.64-.702-.96-1.736-.96-3.1 0-1.395.346-2.459 1.038-3.193.692-.744 1.612-1.116 2.759-1.116 1.943 0 2.914 1.147 2.914 3.441h-4.356c-.01.155-.015.398-.015.729 0 .682.093 1.25.279 1.705.196.455.444.785.744.992.31.207.64.31.992.31zm-.651-6.851c-.372 0-.682.232-.93.697-.238.455-.388 1.163-.45 2.124h2.434c.02-.816-.062-1.488-.248-2.015-.176-.537-.444-.806-.806-.806zm13.924-3.286c.62 0 1.147.088 1.58.263.435.176.858.424 1.272.744.113.093.212.14.294.14.207 0 .341-.31.403-.93h.357c-.042.703-.062 1.953-.062 3.751h-.357c-.093-.765-.217-1.349-.372-1.752a2.5 2.5 0 00-.79-1.054 2.533 2.533 0 00-.9-.558 2.898 2.898 0 00-1.069-.201c-1.043 0-1.819.511-2.325 1.534-.506 1.013-.76 2.279-.76 3.798 0 1.509.264 2.769.791 3.782s1.313 1.519 2.356 1.519c.352 0 .698-.062 1.039-.186.351-.134.645-.326.883-.574.383-.289.646-.651.79-1.085.156-.434.275-1.069.357-1.906h.357c0 1.87.02 3.172.062 3.906h-.357c-.03-.331-.077-.563-.14-.698-.051-.144-.129-.217-.232-.217-.082 0-.191.042-.325.124-.465.331-.91.584-1.333.76-.424.165-.936.248-1.535.248-1.095 0-2.056-.222-2.883-.667a4.679 4.679 0 01-1.906-1.922c-.455-.847-.682-1.854-.682-3.022 0-1.137.232-2.144.697-3.023a5.073 5.073 0 011.938-2.046c.837-.485 1.787-.728 2.852-.728zm13.176 9.501c0 .476.072.822.217 1.039.155.217.413.325.775.325V248a9.97 9.97 0 00-.961-.047c-.9 0-1.653.073-2.263.218v-1.396c-.475.961-1.307 1.442-2.496 1.442-.775 0-1.338-.201-1.69-.605a1.932 1.932 0 01-.371-.759c-.072-.32-.109-.739-.109-1.256v-3.921c0-.475-.077-.822-.232-1.039-.145-.217-.398-.325-.76-.325v-.326c.32.031.641.047.961.047.9 0 1.654-.072 2.263-.217v6.417c0 .434.062.759.186.976.135.217.383.326.744.326.414 0 .765-.171 1.054-.512.3-.351.45-.78.45-1.286v-4.061c0-.475-.078-.822-.233-1.039-.144-.217-.398-.325-.76-.325v-.326c.332.031.652.047.962.047.899 0 1.653-.072 2.263-.217v6.494zm7.323-6.541c.465 0 .816.14 1.054.419.237.279.356.615.356 1.007 0 .383-.113.698-.341.946-.217.238-.506.356-.868.356-.351 0-.63-.087-.837-.263a.937.937 0 01-.31-.729c0-.496.228-.899.682-1.209a.849.849 0 00-.186-.015.798.798 0 00-.248.031c-.392.062-.728.3-1.007.713-.269.413-.403.837-.403 1.271v4.107c0 .476.113.806.341.992.237.186.609.279 1.116.279V248c-.145 0-.264-.005-.357-.016a88.644 88.644 0 00-2.108-.046c-.279 0-.914.015-1.906.046a2.428 2.428 0 01-.31.016v-.326c.372 0 .63-.077.775-.232.144-.165.217-.46.217-.884v-4.882c0-.475-.073-.822-.217-1.039-.145-.217-.403-.325-.775-.325v-.326c.33.031.65.047.96.047.92 0 1.675-.072 2.264-.217v1.441c.196-.444.48-.8.852-1.069a2.042 2.042 0 011.256-.419zm4.228-3.782c.434 0 .775.109 1.023.326.258.207.388.496.388.868s-.13.666-.388.883c-.248.207-.589.31-1.023.31-.434 0-.78-.103-1.038-.31-.248-.217-.372-.511-.372-.883s.124-.661.372-.868c.258-.217.604-.326 1.038-.326zm1.209 10.571c0 .424.072.719.217.884.155.155.413.232.775.232V248a65.79 65.79 0 00-2.061-.062c-.321 0-1.039.021-2.155.062v-.326c.372 0 .63-.077.775-.232.145-.165.217-.46.217-.884v-4.882c0-.475-.072-.822-.217-1.039-.145-.217-.403-.325-.775-.325v-.326c.331.031.651.047.961.047.92 0 1.674-.072 2.263-.217v6.742zm6.532.388c.848 0 1.53-.413 2.046-1.24l.279.093a3.705 3.705 0 01-1.116 1.72c-.527.465-1.188.698-1.984.698-1.095 0-1.968-.346-2.619-1.039-.641-.702-.961-1.736-.961-3.1 0-1.395.346-2.459 1.038-3.193.693-.744 1.612-1.116 2.759-1.116 1.943 0 2.914 1.147 2.914 3.441h-4.355a11.54 11.54 0 00-.016.729c0 .682.093 1.25.279 1.705.197.455.445.785.744.992.31.207.641.31.992.31zm-.651-6.851c-.372 0-.682.232-.93.697-.237.455-.387 1.163-.449 2.124h2.433c.021-.816-.062-1.488-.248-2.015-.175-.537-.444-.806-.806-.806z" fill="snow"/></svg>